STARTFONT 2.1
FONT -Adobe-New Century Schoolbook-Medium-R-Normal--20-140-100-100-P-103-ISO10646-1
SIZE 14 100 100
FONTBOUNDINGBOX 27 30 -4 -7
COMMENT $XFree86$
COMMENT ISO10646-1 extension by Markus Kuhn <mkuhn@acm.org>, 2001-03-20
COMMENT 
COMMENT +
COMMENT  Copyright 1984-1989, 1994 Adobe Systems Incorporated.
COMMENT  Copyright 1988, 1994 Digital Equipment Corporation.
COMMENT
COMMENT  Adobe is a trademark of Adobe Systems Incorporated which may be
COMMENT  registered in certain jurisdictions.
COMMENT  Permission to use these trademarks is hereby granted only in
COMMENT  association with the images described in this file.
COMMENT
COMMENT  Permission to use, copy, modify, distribute and sell this software
COMMENT  and its documentation for any purpose and without fee is hereby
COMMENT  granted, provided that the above copyright notices appear in all
COMMENT  copies and that both those copyright notices and this permission
COMMENT  notice appear in supporting documentation, and that the names of
COMMENT  Adobe Systems and Digital Equipment Corporation not be used in
COMMENT  advertising or publicity pertaining to distribution of the software
COMMENT  without specific, written prior permission.  Adobe Systems and
COMMENT  Digital Equipment Corporation make no representations about the
COMMENT  suitability of this software for any purpose.  It is provided "as
COMMENT  is" without express or implied warranty.
COMMENT -
STARTPROPERTIES 26
FOUNDRY "Adobe"
FAMILY_NAME "New Century Schoolbook"
WEIGHT_NAME "Medium"
SLANT "R"
SETWIDTH_NAME "Normal"
ADD_STYLE_NAME ""
PIXEL_SIZE 20
POINT_SIZE 140
RESOLUTION_X 100
RESOLUTION_Y 100
SPACING "P"
AVERAGE_WIDTH 103
CHARSET_REGISTRY "ISO10646"
CHARSET_ENCODING "1"
CAP_HEIGHT 14
X_HEIGHT 9
FONT_ASCENT 16
FONT_DESCENT 4
FACE_NAME "New Century Schoolbook Roman"
COPYRIGHT "Copyright (c) 1984, 1987 Adobe Systems Incorporated. All Rights Reserved. Copyright (c) 1988, 1991 Digital Equipment Corporation. All Rights Reserved."

STARTCHAR char0
ENCODING 0
SWIDTH 833 0
DWIDTH 16 0
BBX 15 13 0 0
BITMAP
AAAA
0000
8002
0000
8002
0000
8002
0000
8002
0000
8002
0000
AAAA
ENDCHAR
STARTCHAR space
ENCODING 32
SWIDTH 278 0
DWIDTH 5 0
BBX 1 1 0 0
BITMAP
00
ENDCHAR
STARTCHAR exclam
ENCODING 33
SWIDTH 296 0
DWIDTH 5 0
BBX 2 14 1 0
BITMAP
C0
C0
C0
C0
C0
C0
C0
80
80
80
00
00
C0
C0
ENDCHAR
STARTCHAR quotedbl
ENCODING 34
SWIDTH 389 0
DWIDTH 7 0
BBX 4 5 1 9
BITMAP
90
90
90
90
90
ENDCHAR
STARTCHAR numbersign
ENCODING 35
SWIDTH 556 0
DWIDTH 11 0
BBX 10 13 0 0
BITMAP
0900
0900
0900
0900
7FC0
1200
1200
1200
FF80
2400
2400
2400
2400
ENDCHAR
STARTCHAR dollar
ENCODING 36
SWIDTH 556 0
DWIDTH 10 0
BBX 9 17 0 -2
BITMAP
0800
0800
3F00
6980
C980
C800
E800
7800
1E00
0F00
0B80
0980
C980
CB00
7E00
0800
0800
ENDCHAR
STARTCHAR percent
ENCODING 37
SWIDTH 833 0
DWIDTH 16 0
BBX 15 14 0 0
BITMAP
1C20
3220
63C0
6240
C480
C480
C91C
7132
0262
0262
04C4
04C4
08C8
0870
ENDCHAR
STARTCHAR ampersand
ENCODING 38
SWIDTH 815 0
DWIDTH 14 0
BBX 13 14 0 0
BITMAP
1E00
3300
2100
2300
3600
1C00
39F8
7C60
EE40
C780
C380
C1C8
E3F0
7C60
ENDCHAR
STARTCHAR quotesingle
ENCODING 39
SWIDTH 204 0
DWIDTH 4 0
BBX 1 5 1 9
BITMAP
80
80
80
80
80
ENDCHAR
STARTCHAR parenleft
ENCODING 40
SWIDTH 333 0
DWIDTH 7 0
BBX 6 17 0 -3
BITMAP
04
18
30
60
60
C0
C0
C0
C0
C0
C0
C0
60
60
30
18
04
ENDCHAR
STARTCHAR parenright
ENCODING 41
SWIDTH 333 0
DWIDTH 7 0
BBX 6 17 0 -3
BITMAP
80
60
30
18
18
0C
0C
0C
0C
0C
0C
0C
18
18
30
60
80
ENDCHAR
STARTCHAR asterisk
ENCODING 42
SWIDTH 500 0
DWIDTH 10 0
BBX 7 7 1 7
BITMAP
10
92
D6
38
D6
92
10
ENDCHAR
STARTCHAR plus
ENCODING 43
SWIDTH 606 0
DWIDTH 10 0
BBX 9 9 0 1
BITMAP
0800
0800
0800
0800
FF80
0800
0800
0800
0800
ENDCHAR
STARTCHAR comma
ENCODING 44
SWIDTH 278 0
DWIDTH 5 0
BBX 3 5 0 -3
BITMAP
60
60
20
40
80
ENDCHAR
STARTCHAR hyphen
ENCODING 45
SWIDTH 333 0
DWIDTH 6 0
BBX 5 1 0 5
BITMAP
F8
ENDCHAR
STARTCHAR period
ENCODING 46
SWIDTH 278 0
DWIDTH 5 0
BBX 2 2 1 0
BITMAP
C0
C0
ENDCHAR
STARTCHAR slash
ENCODING 47
SWIDTH 278 0
DWIDTH 6 0
BBX 5 14 0 0
BITMAP
08
08
08
10
10
10
20
20
20
40
40
40
80
80
ENDCHAR
STARTCHAR zero
ENCODING 48
SWIDTH 556 0
DWIDTH 10 0
BBX 9 14 0 0
BITMAP
1C00
6300
6300
C180
C180
C180
C180
C180
C180
C180
C180
6300
6300
1C00
ENDCHAR
STARTCHAR one
ENCODING 49
SWIDTH 556 0
DWIDTH 10 0
BBX 8 14 1 0
BITMAP
18
F8
18
18
18
18
18
18
18
18
18
18
18
FF
ENDCHAR
STARTCHAR two
ENCODING 50
SWIDTH 556 0
DWIDTH 10 0
BBX 9 14 0 0
BITMAP
1E00
6300
C180
C180
0180
0180
0300
0600
0C00
1800
3080
6080
FF80
FF80
ENDCHAR
STARTCHAR three
ENCODING 51
SWIDTH 556 0
DWIDTH 10 0
BBX 9 14 0 0
BITMAP
3E00
6300
6180
0180
0180
0300
1E00
0300
0180
0180
0180
C180
C300
7E00
ENDCHAR
STARTCHAR four
ENCODING 52
SWIDTH 556 0
DWIDTH 10 0
BBX 10 14 0 0
BITMAP
0300
0700
0B00
0B00
1300
1300
2300
2300
4300
4300
FFC0
0300
0300
0F80
ENDCHAR
STARTCHAR five
ENCODING 53
SWIDTH 556 0
DWIDTH 10 0
BBX 9 14 0 0
BITMAP
7F80
7F00
4000
4000
4000
5E00
6300
4180
0180
0180
0180
C180
C300
7E00
ENDCHAR
STARTCHAR six
ENCODING 54
SWIDTH 556 0
DWIDTH 10 0
BBX 9 14 0 0
BITMAP
0F00
3180
6180
6000
C000
CE00
DF00
E380
C180
C180
C180
C180
6300
3E00
ENDCHAR
STARTCHAR seven
ENCODING 55
SWIDTH 556 0
DWIDTH 10 0
BBX 9 14 0 0
BITMAP
FF80
FF80
8100
8300
0200
0600
0600
0C00
0C00
1800
1800
1800
1800
1800
ENDCHAR
STARTCHAR eight
ENCODING 56
SWIDTH 556 0
DWIDTH 10 0
BBX 9 14 0 0
BITMAP
3E00
6300
4100
4100
6100
7200
3E00
2F00
4380
C180
C180
C180
6300
3E00
ENDCHAR
STARTCHAR nine
ENCODING 57
SWIDTH 556 0
DWIDTH 10 0
BBX 9 14 0 0
BITMAP
3E00
6300
C180
C180
C180
C180
E380
7D80
3980
0180
0300
C300
C600
7800
ENDCHAR
STARTCHAR colon
ENCODING 58
SWIDTH 278 0
DWIDTH 5 0
BBX 2 9 1 0
BITMAP
C0
C0
00
00
00
00
00
C0
C0
ENDCHAR
STARTCHAR semicolon
ENCODING 59
SWIDTH 278 0
DWIDTH 5 0
BBX 3 12 0 -3
BITMAP
60
60
00
00
00
00
00
60
60
20
40
80
ENDCHAR
STARTCHAR less
ENCODING 60
SWIDTH 606 0
DWIDTH 10 0
BBX 9 9 0 1
BITMAP
0080
0380
0E00
3800
E000
3800
0E00
0380
0080
ENDCHAR
STARTCHAR equal
ENCODING 61
SWIDTH 606 0
DWIDTH 10 0
BBX 9 4 0 4
BITMAP
FF80
0000
0000
FF80
ENDCHAR
STARTCHAR greater
ENCODING 62
SWIDTH 606 0
DWIDTH 10 0
BBX 9 9 0 1
BITMAP
8000
E000
3800
0E00
0380
0E00
3800
E000
8000
ENDCHAR
STARTCHAR question
ENCODING 63
SWIDTH 444 0
DWIDTH 8 0
BBX 7 14 0 0
BITMAP
3C
CE
C6
06
06
04
08
08
10
10
00
00
30
30
ENDCHAR
STARTCHAR at
ENCODING 64
SWIDTH 737 0
DWIDTH 14 0
BBX 13 14 0 0
BITMAP
0780
1860
2010
46D0
4DC8
8CC8
98C8
9990
9990
9BA0
4CC0
4010
2060
1F80
ENDCHAR
STARTCHAR A
ENCODING 65
SWIDTH 722 0
DWIDTH 13 0
BBX 14 14 -1 0
BITMAP
0300
0300
0300
0580
0580
0580
08C0
08C0
1FE0
1060
1060
2030
2030
F8FC
ENDCHAR
STARTCHAR B
ENCODING 66
SWIDTH 722 0
DWIDTH 13 0
BBX 12 14 0 0
BITMAP
FF80
30C0
3060
3060
3060
30C0
3F80
3060
3030
3030
3030
3030
3060
FFC0
ENDCHAR
STARTCHAR C
ENCODING 67
SWIDTH 722 0
DWIDTH 13 0
BBX 12 14 0 0
BITMAP
0F90
3870
6030
6010
C010
C000
C000
C000
C000
C000
6010
6010
3860
0FC0
ENDCHAR
STARTCHAR D
ENCODING 68
SWIDTH 778 0
DWIDTH 15 0
BBX 14 14 0 0
BITMAP
FFC0
3070
3018
3018
300C
300C
300C
300C
300C
300C
3018
3018
3070
FFC0
ENDCHAR
STARTCHAR E
ENCODING 69
SWIDTH 722 0
DWIDTH 12 0
BBX 11 14 0 0
BITMAP
FFE0
3060
3020
3020
3120
3100
3F00
3100
3100
3020
3020
3020
3060
FFE0
ENDCHAR
STARTCHAR F
ENCODING 70
SWIDTH 667 0
DWIDTH 12 0
BBX 11 14 0 0
BITMAP
FFE0
3060
3020
3020
3120
3100
3F00
3100
3100
3000
3000
3000
3000
FC00
ENDCHAR
STARTCHAR G
ENCODING 71
SWIDTH 778 0
DWIDTH 15 0
BBX 14 14 0 0
BITMAP
0FC8
3878
6018
6008
C008
C000
C000
C000
C07C
C018
6018
6018
3878
0FC8
ENDCHAR
STARTCHAR H
ENCODING 72
SWIDTH 833 0
DWIDTH 16 0
BBX 15 14 0 0
BITMAP
FC7E
3018
3018
3018
3018
3018
3FF8
3018
3018
3018
3018
3018
3018
FC7E
ENDCHAR
STARTCHAR I
ENCODING 73
SWIDTH 407 0
DWIDTH 7 0
BBX 6 14 0 0
BITMAP
FC
30
30
30
30
30
30
30
30
30
30
30
30
FC
ENDCHAR
STARTCHAR J
ENCODING 74
SWIDTH 556 0
DWIDTH 10 0
BBX 9 14 0 0
BITMAP
1F80
0600
0600
0600
0600
0600
0600
0600
0600
0600
C600
C600
8400
7800
ENDCHAR
STARTCHAR K
ENCODING 75
SWIDTH 778 0
DWIDTH 15 0
BBX 15 14 0 0
BITMAP
FCF8
3060
3040
3080
3100
3200
3600
3F00
3380
31C0
30E0
3070
3038
FCFE
ENDCHAR
STARTCHAR L
ENCODING 76
SWIDTH 667 0
DWIDTH 12 0
BBX 11 14 0 0
BITMAP
FC00
3000
3000
3000
3000
3000
3000
3000
3000
3020
3020
3020
3060
FFE0
ENDCHAR
STARTCHAR M
ENCODING 77
SWIDTH 944 0
DWIDTH 18 0
BBX 17 14 0 0
BITMAP
F80F80
380E00
2C1600
2C1600
2C1600
262600
262600
262600
234600
234600
234600
218600
218600
F99F80
ENDCHAR
STARTCHAR N
ENCODING 78
SWIDTH 815 0
DWIDTH 15 0
BBX 14 14 0 0
BITMAP
F07C
3010
3810
3C10
2E10
2610
2310
2390
2190
20D0
20F0
2070
2030
F810
ENDCHAR
STARTCHAR O
ENCODING 79
SWIDTH 778 0
DWIDTH 15 0
BBX 14 14 0 0
BITMAP
0FC0
3870
6018
6018
C00C
C00C
C00C
C00C
C00C
C00C
6018
6018
3870
0FC0
ENDCHAR
STARTCHAR P
ENCODING 80
SWIDTH 667 0
DWIDTH 12 0
BBX 11 14 0 0
BITMAP
FF80
30C0
3060
3060
3060
3060
30C0
3F00
3000
3000
3000
3000
3000
FC00
ENDCHAR
STARTCHAR Q
ENCODING 81
SWIDTH 778 0
DWIDTH 15 0
BBX 15 18 0 -4
BITMAP
0FC0
3870
6018
6018
C00C
C00C
C00C
C00C
C00C
CF0C
7198
6098
38F0
0FE0
0060
0072
003E
001C
ENDCHAR
STARTCHAR R
ENCODING 82
SWIDTH 722 0
DWIDTH 14 0
BBX 14 14 0 0
BITMAP
FF80
30C0
3060
3060
3060
30C0
3F00
3180
30C0
30C0
30E0
3060
3074
F838
ENDCHAR
STARTCHAR S
ENCODING 83
SWIDTH 630 0
DWIDTH 11 0
BBX 10 14 0 0
BITMAP
3E80
6180
C080
C080
C000
F000
7E00
1F80
03C0
80C0
80C0
C0C0
E180
BF00
ENDCHAR
STARTCHAR T
ENCODING 84
SWIDTH 667 0
DWIDTH 13 0
BBX 12 14 0 0
BITMAP
FFF0
C630
8610
8610
8610
0600
0600
0600
0600
0600
0600
0600
0600
1F80
ENDCHAR
STARTCHAR U
ENCODING 85
SWIDTH 815 0
DWIDTH 15 0
BBX 14 14 0 0
BITMAP
FC7C
3010
3010
3010
3010
3010
3010
3010
3010
3010
3010
3010
1820
0FC0
ENDCHAR
STARTCHAR V
ENCODING 86
SWIDTH 722 0
DWIDTH 13 0
BBX 14 14 -1 0
BITMAP
FC7C
3010
3010
1820
1820
1820
0C40
0C40
0C40
0680
0680
0680
0300
0300
ENDCHAR
STARTCHAR W
ENCODING 87
SWIDTH 981 0
DWIDTH 19 0
BBX 20 14 -1 0
BITMAP
FDF9F0
306040
306040
187080
187080
187080
0C9900
0C9900
0C9900
050900
070E00
070E00
030600
030600
ENDCHAR
STARTCHAR X
ENCODING 88
SWIDTH 704 0
DWIDTH 14 0
BBX 13 14 1 0
BITMAP
F8F0
3040
38C0
1880
0D80
0F00
0600
0700
0F80
0980
10C0
30E0
2060
F9F8
ENDCHAR
STARTCHAR Y
ENCODING 89
SWIDTH 704 0
DWIDTH 13 0
BBX 14 14 -1 0
BITMAP
FC7C
3010
1820
1820
0C40
0C40
0680
0780
0300
0300
0300
0300
0300
0FC0
ENDCHAR
STARTCHAR Z
ENCODING 90
SWIDTH 611 0
DWIDTH 11 0
BBX 10 14 0 0
BITMAP
FFC0
C0C0
8180
8380
8300
0600
0E00
1C00
1800
3040
7040
6040
C0C0
FFC0
ENDCHAR
STARTCHAR bracketleft
ENCODING 91
SWIDTH 333 0
DWIDTH 6 0
BBX 4 17 1 -3
BITMAP
F0
C0
C0
C0
C0
C0
C0
C0
C0
C0
C0
C0
C0
C0
C0
C0
F0
ENDCHAR
STARTCHAR backslash
ENCODING 92
SWIDTH 606 0
DWIDTH 10 0
BBX 7 14 1 0
BITMAP
80
80
C0
40
60
20
30
10
18
08
0C
04
06
02
ENDCHAR
STARTCHAR bracketright
ENCODING 93
SWIDTH 333 0
DWIDTH 6 0
BBX 4 17 0 -3
BITMAP
F0
30
30
30
30
30
30
30
30
30
30
30
30
30
30
30
F0
ENDCHAR
STARTCHAR asciicircum
ENCODING 94
SWIDTH 606 0
DWIDTH 10 0
BBX 9 9 0 5
BITMAP
0800
0800
1C00
1400
3600
2200
6300
4100
C180
ENDCHAR
STARTCHAR underscore
ENCODING 95
SWIDTH 500 0
DWIDTH 9 0
BBX 9 1 0 -2
BITMAP
FF80
ENDCHAR
STARTCHAR grave
ENCODING 96
SWIDTH 333 0
DWIDTH 6 0
BBX 4 3 1 10
BITMAP
C0
60
10
ENDCHAR
STARTCHAR a
ENCODING 97
SWIDTH 556 0
DWIDTH 10 0
BBX 9 9 0 0
BITMAP
1C00
6200
6300
0300
1F00
6300
C300
C700
7980
ENDCHAR
STARTCHAR b
ENCODING 98
SWIDTH 556 0
DWIDTH 10 0
BBX 10 14 -1 0
BITMAP
E000
6000
6000
6000
6000
6F00
7180
60C0
60C0
60C0
60C0
60C0
7180
4F00
ENDCHAR
STARTCHAR c
ENCODING 99
SWIDTH 444 0
DWIDTH 9 0
BBX 8 9 0 0
BITMAP
3C
63
C3
C0
C0
C0
C1
63
3E
ENDCHAR
STARTCHAR d
ENCODING 100
SWIDTH 574 0
DWIDTH 11 0
BBX 10 14 0 0
BITMAP
0380
0180
0180
0180
0180
3D80
6380
C180
C180
C180
C180
C180
6380
3DC0
ENDCHAR
STARTCHAR e
ENCODING 101
SWIDTH 500 0
DWIDTH 9 0
BBX 8 9 0 0
BITMAP
3C
66
C3
C3
FF
C0
C1
63
3E
ENDCHAR
STARTCHAR f
ENCODING 102
SWIDTH 333 0
DWIDTH 7 0
BBX 8 14 0 0
BITMAP
0E
1B
33
30
30
FC
30
30
30
30
30
30
30
78
ENDCHAR
STARTCHAR g
ENCODING 103
SWIDTH 537 0
DWIDTH 11 0
BBX 10 14 0 -4
BITMAP
00C0
1FC0
3300
6180
6180
3300
3E00
4000
7F00
3F80
41C0
80C0
C180
7F00
ENDCHAR
STARTCHAR h
ENCODING 104
SWIDTH 611 0
DWIDTH 11 0
BBX 10 14 0 0
BITMAP
E000
6000
6000
6000
6000
6F00
7380
6180
6180
6180
6180
6180
6180
F3C0
ENDCHAR
STARTCHAR i
ENCODING 105
SWIDTH 315 0
DWIDTH 5 0
BBX 4 13 0 0
BITMAP
60
60
00
00
E0
60
60
60
60
60
60
60
F0
ENDCHAR
STARTCHAR j
ENCODING 106
SWIDTH 296 0
DWIDTH 5 0
BBX 6 17 -3 -4
BITMAP
0C
0C
00
00
1C
0C
0C
0C
0C
0C
0C
0C
0C
0C
CC
C8
70
ENDCHAR
STARTCHAR k
ENCODING 107
SWIDTH 593 0
DWIDTH 10 0
BBX 10 14 0 0
BITMAP
E000
6000
6000
6000
6000
6780
6200
6400
6800
7800
6C00
6600
6300
F7C0
ENDCHAR
STARTCHAR l
ENCODING 108
SWIDTH 315 0
DWIDTH 5 0
BBX 4 14 0 0
BITMAP
E0
60
60
60
60
60
60
60
60
60
60
60
60
F0
ENDCHAR
STARTCHAR m
ENCODING 109
SWIDTH 889 0
DWIDTH 17 0
BBX 16 9 0 0
BITMAP
EF3C
73CE
6186
6186
6186
6186
6186
6186
F3CF
ENDCHAR
STARTCHAR n
ENCODING 110
SWIDTH 611 0
DWIDTH 11 0
BBX 10 9 0 0
BITMAP
EF00
7380
6180
6180
6180
6180
6180
6180
F3C0
ENDCHAR
STARTCHAR o
ENCODING 111
SWIDTH 500 0
DWIDTH 10 0
BBX 9 9 0 0
BITMAP
3E00
6300
C180
C180
C180
C180
C180
6300
3E00
ENDCHAR
STARTCHAR p
ENCODING 112
SWIDTH 574 0
DWIDTH 11 0
BBX 10 13 0 -4
BITMAP
EF00
7180
60C0
60C0
60C0
60C0
60C0
7180
6F00
6000
6000
6000
F000
ENDCHAR
STARTCHAR q
ENCODING 113
SWIDTH 556 0
DWIDTH 10 0
BBX 10 13 0 -4
BITMAP
3C80
6380
C180
C180
C180
C180
C180
6380
3D80
0180
0180
0180
03C0
ENDCHAR
STARTCHAR r
ENCODING 114
SWIDTH 444 0
DWIDTH 8 0
BBX 7 9 0 0
BITMAP
E6
6E
72
60
60
60
60
60
F0
ENDCHAR
STARTCHAR s
ENCODING 115
SWIDTH 463 0
DWIDTH 8 0
BBX 7 9 0 0
BITMAP
7A
C6
82
E0
7C
0E
82
C6
BC
ENDCHAR
STARTCHAR t
ENCODING 116
SWIDTH 389 0
DWIDTH 6 0
BBX 6 12 0 0
BITMAP
60
60
60
F8
60
60
60
60
60
60
64
38
ENDCHAR
STARTCHAR u
ENCODING 117
SWIDTH 611 0
DWIDTH 11 0
BBX 10 9 0 0
BITMAP
E380
6180
6180
6180
6180
6180
6180
7380
3DC0
ENDCHAR
STARTCHAR v
ENCODING 118
SWIDTH 537 0
DWIDTH 11 0
BBX 10 9 0 0
BITMAP
F1C0
6080
6080
3100
3100
1A00
1E00
0C00
0C00
ENDCHAR
STARTCHAR w
ENCODING 119
SWIDTH 778 0
DWIDTH 16 0
BBX 15 9 0 0
BITMAP
F7DE
6184
6184
32C8
32C8
34D0
1C70
1C70
0820
ENDCHAR
STARTCHAR x
ENCODING 120
SWIDTH 537 0
DWIDTH 10 0
BBX 9 9 0 0
BITMAP
F380
6100
3200
1C00
0800
1C00
2600
4300
E780
ENDCHAR
STARTCHAR y
ENCODING 121
SWIDTH 537 0
DWIDTH 11 0
BBX 10 13 0 -4
BITMAP
F1C0
6080
3100
3100
1A00
1A00
0C00
0C00
0800
0800
1000
D000
E000
ENDCHAR
STARTCHAR z
ENCODING 122
SWIDTH 481 0
DWIDTH 8 0
BBX 7 9 0 0
BITMAP
FE
86
8C
18
18
30
62
C6
FE
ENDCHAR
STARTCHAR braceleft
ENCODING 123
SWIDTH 333 0
DWIDTH 6 0
BBX 5 17 0 -3
BITMAP
18
20
60
60
60
60
60
40
80
40
60
60
60
60
60
20
18
ENDCHAR
STARTCHAR bar
ENCODING 124
SWIDTH 606 0
DWIDTH 11 0
BBX 2 14 4 0
BITMAP
C0
C0
C0
C0
C0
C0
C0
C0
C0
C0
C0
C0
C0
C0
ENDCHAR
STARTCHAR braceright
ENCODING 125
SWIDTH 333 0
DWIDTH 6 0
BBX 5 17 0 -3
BITMAP
C0
20
30
30
30
30
30
10
08
10
30
30
30
30
30
20
C0
ENDCHAR
STARTCHAR asciitilde
ENCODING 126
SWIDTH 606 0
DWIDTH 11 0
BBX 10 3 0 4
BITMAP
38C0
6D80
C700
ENDCHAR
STARTCHAR space
ENCODING 160
SWIDTH 278 0
DWIDTH 5 0
BBX 1 1 0 0
BITMAP
00
ENDCHAR
STARTCHAR exclamdown
ENCODING 161
SWIDTH 296 0
DWIDTH 5 0
BBX 2 14 1 -4
BITMAP
C0
C0
00
00
40
40
40
C0
C0
C0
C0
C0
C0
C0
ENDCHAR
STARTCHAR cent
ENCODING 162
SWIDTH 556 0
DWIDTH 10 0
BBX 8 13 1 -2
BITMAP
02
02
1E
67
CB
C8
C8
D0
D0
73
3E
20
20
ENDCHAR
STARTCHAR sterling
ENCODING 163
SWIDTH 556 0
DWIDTH 11 0
BBX 10 14 0 0
BITMAP
0F00
1980
3180
3000
3000
1800
FF80
0C00
0C00
0C00
0C00
7840
9E40
F780
ENDCHAR
STARTCHAR currency
ENCODING 164
SWIDTH 606 0
DWIDTH 12 0
BBX 9 9 1 3
BITMAP
9C80
FF80
6300
C180
C180
C180
6300
FF80
9C80
ENDCHAR
STARTCHAR yen
ENCODING 165
SWIDTH 704 0
DWIDTH 15 0
BBX 14 14 0 0
BITMAP
FC7C
3010
1820
1820
0C40
0C40
0680
1FE0
0300
0300
1FE0
0300
0300
0FC0
ENDCHAR
STARTCHAR brokenbar
ENCODING 166
SWIDTH 606 0
DWIDTH 10 0
BBX 2 14 4 0
BITMAP
C0
C0
C0
C0
C0
00
00
00
C0
C0
C0
C0
C0
C0
ENDCHAR
STARTCHAR section
ENCODING 167
SWIDTH 500 0
DWIDTH 9 0
BBX 8 17 0 -3
BITMAP
3C
66
46
40
60
78
3E
4F
C3
E3
7A
3C
0E
06
62
66
3C
ENDCHAR
STARTCHAR dieresis
ENCODING 168
SWIDTH 333 0
DWIDTH 7 0
BBX 6 2 0 10
BITMAP
CC
CC
ENDCHAR
STARTCHAR copyright
ENCODING 169
SWIDTH 737 0
DWIDTH 15 0
BBX 14 14 0 0
BITMAP
0780
1860
2010
4788
48C8
9044
9004
9004
9004
4848
4788
2010
1860
0780
ENDCHAR
STARTCHAR ordfeminine
ENCODING 170
SWIDTH 334 0
DWIDTH 7 0
BBX 6 8 0 6
BITMAP
70
88
38
C8
98
6C
00
FC
ENDCHAR
STARTCHAR guillemotleft
ENCODING 171
SWIDTH 426 0
DWIDTH 9 0
BBX 8 7 0 2
BITMAP
11
33
66
CC
66
33
11
ENDCHAR
STARTCHAR logicalnot
ENCODING 172
SWIDTH 606 0
DWIDTH 10 0
BBX 9 5 0 3
BITMAP
FF80
0080
0080
0080
0080
ENDCHAR
STARTCHAR hyphen
ENCODING 173
SWIDTH 333 0
DWIDTH 6 0
BBX 5 1 0 5
BITMAP
F8
ENDCHAR
STARTCHAR registered
ENCODING 174
SWIDTH 737 0
DWIDTH 15 0
BBX 14 14 0 0
BITMAP
0780
1860
2010
4F88
44C8
8444
84C4
8784
8484
4448
4E68
2010
1860
0780
ENDCHAR
STARTCHAR macron
ENCODING 175
SWIDTH 333 0
DWIDTH 7 0
BBX 6 1 0 10
BITMAP
FC
ENDCHAR
STARTCHAR degree
ENCODING 176
SWIDTH 400 0
DWIDTH 7 0
BBX 6 6 0 8
BITMAP
78
CC
84
84
CC
78
ENDCHAR
STARTCHAR plusminus
ENCODING 177
SWIDTH 606 0
DWIDTH 10 0
BBX 9 9 0 1
BITMAP
0800
0800
0800
FF80
0800
0800
0800
0000
FF80
ENDCHAR
STARTCHAR twosuperior
ENCODING 178
SWIDTH 333 0
DWIDTH 6 0
BBX 6 8 0 6
BITMAP
78
CC
8C
18
30
60
C4
FC
ENDCHAR
STARTCHAR threesuperior
ENCODING 179
SWIDTH 333 0
DWIDTH 6 0
BBX 6 8 0 6
BITMAP
78
CC
8C
38
0C
8C
CC
78
ENDCHAR
STARTCHAR acute
ENCODING 180
SWIDTH 333 0
DWIDTH 6 0
BBX 4 3 1 11
BITMAP
30
60
80
ENDCHAR
STARTCHAR mu
ENCODING 181
SWIDTH 611 0
DWIDTH 11 0
BBX 10 13 0 -4
BITMAP
E3C0
6180
6180
6180
6180
6180
6180
7380
7DC0
4000
4000
6000
6000
ENDCHAR
STARTCHAR paragraph
ENCODING 182
SWIDTH 606 0
DWIDTH 11 0
BBX 10 17 0 -3
BITMAP
3FC0
E900
C900
C900
C900
C900
E900
3900
0900
0900
0900
0900
0900
0900
0900
0900
3FC0
ENDCHAR
STARTCHAR periodcentered
ENCODING 183
SWIDTH 278 0
DWIDTH 5 0
BBX 2 2 1 5
BITMAP
C0
C0
ENDCHAR
STARTCHAR cedilla
ENCODING 184
SWIDTH 333 0
DWIDTH 6 0
BBX 4 4 0 -4
BITMAP
40
70
10
E0
ENDCHAR
STARTCHAR onesuperior
ENCODING 185
SWIDTH 333 0
DWIDTH 6 0
BBX 6 8 0 6
BITMAP
30
F0
30
30
30
30
30
FC
ENDCHAR
STARTCHAR ordmasculine
ENCODING 186
SWIDTH 300 0
DWIDTH 6 0
BBX 5 8 0 6
BITMAP
70
D8
88
88
D8
70
00
F8
ENDCHAR
STARTCHAR guillemotright
ENCODING 187
SWIDTH 426 0
DWIDTH 9 0
BBX 8 7 0 2
BITMAP
88
CC
66
33
66
CC
88
ENDCHAR
STARTCHAR onequarter
ENCODING 188
SWIDTH 834 0
DWIDTH 15 0
BBX 15 14 0 0
BITMAP
3020
F020
3040
3040
3080
3080
3118
FD38
0228
0258
0498
04FE
0818
083C
ENDCHAR
STARTCHAR onehalf
ENCODING 189
SWIDTH 834 0
DWIDTH 15 0
BBX 14 14 0 0
BITMAP
3020
F020
3040
3040
3080
3080
3178
FDCC
028C
0218
0430
0460
08C4
08FC
ENDCHAR
STARTCHAR threequarters
ENCODING 190
SWIDTH 834 0
DWIDTH 15 0
BBX 15 14 0 0
BITMAP
7820
CC20
8C40
3840
0C80
8C80
CD18
7938
0228
0258
0498
04FE
0818
083C
ENDCHAR
STARTCHAR questiondown
ENCODING 191
SWIDTH 444 0
DWIDTH 8 0
BBX 7 14 0 -4
BITMAP
18
18
00
00
10
10
20
20
40
C0
C0
C6
E6
78
ENDCHAR
STARTCHAR Agrave
ENCODING 192
SWIDTH 722 0
DWIDTH 13 0
BBX 14 18 -1 0
BITMAP
0C00
0600
0100
0000
0300
0300
0300
0580
0580
0580
08C0
08C0
1FE0
1060
1060
2030
2030
F8FC
ENDCHAR
STARTCHAR Aacute
ENCODING 193
SWIDTH 722 0
DWIDTH 13 0
BBX 14 18 -1 0
BITMAP
00C0
0180
0200
0000
0300
0300
0300
0580
0580
0580
08C0
08C0
1FE0
1060
1060
2030
2030
F8FC
ENDCHAR
STARTCHAR Acircumflex
ENCODING 194
SWIDTH 722 0
DWIDTH 13 0
BBX 14 18 -1 0
BITMAP
0300
0780
0840
0000
0300
0300
0300
0580
0580
0580
08C0
08C0
1FE0
1060
1060
2030
2030
F8FC
ENDCHAR
STARTCHAR Atilde
ENCODING 195
SWIDTH 722 0
DWIDTH 13 0
BBX 14 17 -1 0
BITMAP
0740
0B80
0000
0300
0300
0300
0580
0580
0580
08C0
08C0
1FE0
1060
1060
2030
2030
F8FC
ENDCHAR
STARTCHAR Adieresis
ENCODING 196
SWIDTH 722 0
DWIDTH 13 0
BBX 14 17 -1 0
BITMAP
0CC0
0CC0
0000
0300
0300
0300
0580
0580
0580
08C0
08C0
1FE0
1060
1060
2030
2030
F8FC
ENDCHAR
STARTCHAR Aring
ENCODING 197
SWIDTH 722 0
DWIDTH 13 0
BBX 14 19 -1 0
BITMAP
0300
0480
0480
0300
0000
0300
0300
0300
0580
0580
0580
08C0
08C0
1FE0
1060
1060
2030
2030
F8FC
ENDCHAR
STARTCHAR AE
ENCODING 198
SWIDTH 1000 0
DWIDTH 18 0
BBX 18 14 -1 0
BITMAP
07FFC0
0160C0
026040
026040
046240
046200
087E00
086200
1FE200
106040
206040
206040
6060C0
F1FFC0
ENDCHAR
STARTCHAR Ccedilla
ENCODING 199
SWIDTH 722 0
DWIDTH 13 0
BBX 12 18 0 -4
BITMAP
0F90
3870
6030
6010
C010
C000
C000
C000
C000
C000
6010
6010
3860
0FC0
0400
0700
0100
0E00
ENDCHAR
STARTCHAR Egrave
ENCODING 200
SWIDTH 722 0
DWIDTH 12 0
BBX 11 18 0 0
BITMAP
1800
0C00
0200
0000
FFE0
3060
3020
3020
3120
3100
3F00
3100
3100
3020
3020
3020
3060
FFE0
ENDCHAR
STARTCHAR Eacute
ENCODING 201
SWIDTH 722 0
DWIDTH 12 0
BBX 11 18 0 0
BITMAP
0300
0600
0800
0000
FFE0
3060
3020
3020
3120
3100
3F00
3100
3100
3020
3020
3020
3060
FFE0
ENDCHAR
STARTCHAR Ecircumflex
ENCODING 202
SWIDTH 722 0
DWIDTH 12 0
BBX 11 18 0 0
BITMAP
0600
0F00
1080
0000
FFE0
3060
3020
3020
3120
3100
3F00
3100
3100
3020
3020
3020
3060
FFE0
ENDCHAR
STARTCHAR Edieresis
ENCODING 203
SWIDTH 722 0
DWIDTH 12 0
BBX 11 17 0 0
BITMAP
1980
1980
0000
FFE0
3060
3020
3020
3120
3100
3F00
3100
3100
3020
3020
3020
3060
FFE0
ENDCHAR
STARTCHAR Igrave
ENCODING 204
SWIDTH 407 0
DWIDTH 7 0
BBX 6 18 0 0
BITMAP
C0
60
10
00
FC
30
30
30
30
30
30
30
30
30
30
30
30
FC
ENDCHAR
STARTCHAR Iacute
ENCODING 205
SWIDTH 407 0
DWIDTH 7 0
BBX 6 18 0 0
BITMAP
0C
18
20
00
FC
30
30
30
30
30
30
30
30
30
30
30
30
FC
ENDCHAR
STARTCHAR Icircumflex
ENCODING 206
SWIDTH 407 0
DWIDTH 7 0
BBX 6 18 0 0
BITMAP
30
78
84
00
FC
30
30
30
30
30
30
30
30
30
30
30
30
FC
ENDCHAR
STARTCHAR Idieresis
ENCODING 207
SWIDTH 407 0
DWIDTH 7 0
BBX 6 17 0 0
BITMAP
CC
CC
00
FC
30
30
30
30
30
30
30
30
30
30
30
30
FC
ENDCHAR
STARTCHAR Eth
ENCODING 208
SWIDTH 778 0
DWIDTH 15 0
BBX 14 14 0 0
BITMAP
FFC0
3070
3018
3018
300C
300C
FE0C
300C
300C
300C
3018
3018
3070
FFC0
ENDCHAR
STARTCHAR Ntilde
ENCODING 209
SWIDTH 815 0
DWIDTH 15 0
BBX 14 17 0 0
BITMAP
0740
0B80
0000
F07C
3010
3810
3C10
2E10
2610
2310
2390
2190
20D0
20F0
2070
2030
F810
ENDCHAR
STARTCHAR Ograve
ENCODING 210
SWIDTH 778 0
DWIDTH 15 0
BBX 14 18 0 0
BITMAP
0C00
0600
0100
0000
0FC0
3870
6018
6018
C00C
C00C
C00C
C00C
C00C
C00C
6018
6018
3870
0FC0
ENDCHAR
STARTCHAR Oacute
ENCODING 211
SWIDTH 778 0
DWIDTH 15 0
BBX 14 18 0 0
BITMAP
00C0
0180
0200
0000
0FC0
3870
6018
6018
C00C
C00C
C00C
C00C
C00C
C00C
6018
6018
3870
0FC0
ENDCHAR
STARTCHAR Ocircumflex
ENCODING 212
SWIDTH 778 0
DWIDTH 15 0
BBX 14 18 0 0
BITMAP
0300
0780
0840
0000
0FC0
3870
6018
6018
C00C
C00C
C00C
C00C
C00C
C00C
6018
6018
3870
0FC0
ENDCHAR
STARTCHAR Otilde
ENCODING 213
SWIDTH 778 0
DWIDTH 15 0
BBX 14 17 0 0
BITMAP
0740
0B80
0000
0FC0
3870
6018
6018
C00C
C00C
C00C
C00C
C00C
C00C
6018
6018
3870
0FC0
ENDCHAR
STARTCHAR Odieresis
ENCODING 214
SWIDTH 778 0
DWIDTH 15 0
BBX 14 17 0 0
BITMAP
0CC0
0CC0
0000
0FC0
3870
6018
6018
C00C
C00C
C00C
C00C
C00C
C00C
6018
6018
3870
0FC0
ENDCHAR
STARTCHAR multiply
ENCODING 215
SWIDTH 606 0
DWIDTH 10 0
BBX 10 9 0 1
BITMAP
C0C0
6180
3300
1E00
0C00
1E00
3300
6180
C0C0
ENDCHAR
STARTCHAR Oslash
ENCODING 216
SWIDTH 778 0
DWIDTH 15 0
BBX 15 14 -1 0
BITMAP
07E4
1C38
301C
302C
6046
6086
6106
6206
6406
6806
300C
300C
5C38
87E0
ENDCHAR
STARTCHAR Ugrave
ENCODING 217
SWIDTH 815 0
DWIDTH 15 0
BBX 14 18 0 0
BITMAP
0600
0300
0080
0000
FC7C
3010
3010
3010
3010
3010
3010
3010
3010
3010
3010
3010
1820
0FC0
ENDCHAR
STARTCHAR Uacute
ENCODING 218
SWIDTH 815 0
DWIDTH 15 0
BBX 14 18 0 0
BITMAP
00C0
0180
0200
0000
FC7C
3010
3010
3010
3010
3010
3010
3010
3010
3010
3010
3010
1820
0FC0
ENDCHAR
STARTCHAR Ucircumflex
ENCODING 219
SWIDTH 815 0
DWIDTH 15 0
BBX 14 18 0 0
BITMAP
0300
0780
0840
0000
FC7C
3010
3010
3010
3010
3010
3010
3010
3010
3010
3010
3010
1820
0FC0
ENDCHAR
STARTCHAR Udieresis
ENCODING 220
SWIDTH 815 0
DWIDTH 15 0
BBX 14 17 0 0
BITMAP
0C60
0C60
0000
FC7C
3010
3010
3010
3010
3010
3010
3010
3010
3010
3010
3010
1820
0FC0
ENDCHAR
STARTCHAR Yacute
ENCODING 221
SWIDTH 704 0
DWIDTH 13 0
BBX 14 18 -1 0
BITMAP
0060
00C0
0100
0000
FC7C
3010
1820
1820
0C40
0C40
0680
0780
0300
0300
0300
0300
0300
0FC0
ENDCHAR
STARTCHAR Thorn
ENCODING 222
SWIDTH 667 0
DWIDTH 12 0
BBX 11 14 0 0
BITMAP
FC00
3000
3000
3F80
30C0
3060
3060
3060
3060
30C0
3F00
3000
3000
FC00
ENDCHAR
STARTCHAR germandbls
ENCODING 223
SWIDTH 574 0
DWIDTH 10 0
BBX 9 14 0 0
BITMAP
1E00
2300
6100
6100
6300
6E00
6300
6180
6180
6180
6180
6D80
6D00
E600
ENDCHAR
STARTCHAR agrave
ENCODING 224
SWIDTH 556 0
DWIDTH 10 0
BBX 9 13 0 0
BITMAP
3000
1800
0400
0000
1C00
6200
6300
0300
1F00
6300
C300
C700
7980
ENDCHAR
STARTCHAR aacute
ENCODING 225
SWIDTH 556 0
DWIDTH 10 0
BBX 9 13 0 0
BITMAP
0600
0C00
1000
0000
1C00
6200
6300
0300
1F00
6300
C300
C700
7980
ENDCHAR
STARTCHAR acircumflex
ENCODING 226
SWIDTH 556 0
DWIDTH 10 0
BBX 9 13 0 0
BITMAP
1800
3C00
4200
0000
1C00
6200
6300
0300
1F00
6300
C300
C700
7980
ENDCHAR
STARTCHAR atilde
ENCODING 227
SWIDTH 556 0
DWIDTH 10 0
BBX 9 12 0 0
BITMAP
3A00
5C00
0000
1C00
6200
6300
0300
1F00
6300
C300
C700
7980
ENDCHAR
STARTCHAR adieresis
ENCODING 228
SWIDTH 556 0
DWIDTH 10 0
BBX 9 12 0 0
BITMAP
6600
6600
0000
1C00
6200
6300
0300
1F00
6300
C300
C700
7980
ENDCHAR
STARTCHAR aring
ENCODING 229
SWIDTH 556 0
DWIDTH 10 0
BBX 9 14 0 0
BITMAP
1800
2400
2400
1800
0000
1C00
6200
6300
0300
1F00
6300
C300
C700
7980
ENDCHAR
STARTCHAR ae
ENCODING 230
SWIDTH 796 0
DWIDTH 16 0
BBX 15 9 0 0
BITMAP
1CF8
638C
6306
0306
1FFE
6300
C300
C586
78FC
ENDCHAR
STARTCHAR ccedilla
ENCODING 231
SWIDTH 444 0
DWIDTH 9 0
BBX 8 13 0 -4
BITMAP
3C
63
C3
C0
C0
C0
C1
63
3E
10
1C
04
38
ENDCHAR
STARTCHAR egrave
ENCODING 232
SWIDTH 500 0
DWIDTH 9 0
BBX 8 13 0 0
BITMAP
60
30
08
00
3C
66
C3
C3
FF
C0
C1
63
3E
ENDCHAR
STARTCHAR eacute
ENCODING 233
SWIDTH 500 0
DWIDTH 9 0
BBX 8 13 0 0
BITMAP
06
0C
10
00
3C
66
C3
C3
FF
C0
C1
63
3E
ENDCHAR
STARTCHAR ecircumflex
ENCODING 234
SWIDTH 500 0
DWIDTH 9 0
BBX 8 13 0 0
BITMAP
18
3C
42
00
3C
66
C3
C3
FF
C0
C1
63
3E
ENDCHAR
STARTCHAR edieresis
ENCODING 235
SWIDTH 500 0
DWIDTH 9 0
BBX 8 12 0 0
BITMAP
66
66
00
3C
66
C3
C3
FF
C0
C1
63
3E
ENDCHAR
STARTCHAR igrave
ENCODING 236
SWIDTH 315 0
DWIDTH 5 0
BBX 5 13 -1 0
BITMAP
C0
60
10
00
70
30
30
30
30
30
30
30
78
ENDCHAR
STARTCHAR iacute
ENCODING 237
SWIDTH 315 0
DWIDTH 5 0
BBX 5 13 0 0
BITMAP
18
30
40
00
E0
60
60
60
60
60
60
60
F0
ENDCHAR
STARTCHAR icircumflex
ENCODING 238
SWIDTH 315 0
DWIDTH 5 0
BBX 6 13 -1 0
BITMAP
30
78
84
00
70
30
30
30
30
30
30
30
78
ENDCHAR
STARTCHAR idieresis
ENCODING 239
SWIDTH 315 0
DWIDTH 5 0
BBX 6 12 -1 0
BITMAP
CC
CC
00
70
30
30
30
30
30
30
30
78
ENDCHAR
STARTCHAR eth
ENCODING 240
SWIDTH 500 0
DWIDTH 10 0
BBX 9 14 0 0
BITMAP
C000
3600
3800
CC00
0600
3F00
6300
C180
C180
C180
C180
C180
6300
3E00
ENDCHAR
STARTCHAR ntilde
ENCODING 241
SWIDTH 611 0
DWIDTH 11 0
BBX 10 12 0 0
BITMAP
3C80
4F00
0000
EF00
7380
6180
6180
6180
6180
6180
6180
F3C0
ENDCHAR
STARTCHAR ograve
ENCODING 242
SWIDTH 500 0
DWIDTH 10 0
BBX 9 13 0 0
BITMAP
6000
3000
0800
0000
3E00
6300
C180
C180
C180
C180
C180
6300
3E00
ENDCHAR
STARTCHAR oacute
ENCODING 243
SWIDTH 500 0
DWIDTH 10 0
BBX 9 13 0 0
BITMAP
0300
0600
0800
0000
3E00
6300
C180
C180
C180
C180
C180
6300
3E00
ENDCHAR
STARTCHAR ocircumflex
ENCODING 244
SWIDTH 500 0
DWIDTH 10 0
BBX 9 13 0 0
BITMAP
1800
3C00
4200
0000
3E00
6300
C180
C180
C180
C180
C180
6300
3E00
ENDCHAR
STARTCHAR otilde
ENCODING 245
SWIDTH 500 0
DWIDTH 10 0
BBX 9 12 0 0
BITMAP
3A00
5C00
0000
3E00
6300
C180
C180
C180
C180
C180
6300
3E00
ENDCHAR
STARTCHAR odieresis
ENCODING 246
SWIDTH 500 0
DWIDTH 10 0
BBX 9 12 0 0
BITMAP
6300
6300
0000
3E00
6300
C180
C180
C180
C180
C180
6300
3E00
ENDCHAR
STARTCHAR divide
ENCODING 247
SWIDTH 606 0
DWIDTH 10 0
BBX 10 7 0 2
BITMAP
0C00
0C00
0000
FFC0
0000
0C00
0C00
ENDCHAR
STARTCHAR oslash
ENCODING 248
SWIDTH 500 0
DWIDTH 10 0
BBX 9 12 0 -2
BITMAP
0080
3E80
6300
C580
C580
C980
C980
D180
7300
3E00
4000
4000
ENDCHAR
STARTCHAR ugrave
ENCODING 249
SWIDTH 611 0
DWIDTH 11 0
BBX 10 13 0 0
BITMAP
3000
1800
0400
0000
E3C0
6180
6180
6180
6180
6180
6180
7380
3DC0
ENDCHAR
STARTCHAR uacute
ENCODING 250
SWIDTH 611 0
DWIDTH 11 0
BBX 10 13 0 0
BITMAP
0300
0600
0800
0000
E3C0
6180
6180
6180
6180
6180
6180
7380
3DC0
ENDCHAR
STARTCHAR ucircumflex
ENCODING 251
SWIDTH 611 0
DWIDTH 11 0
BBX 10 13 0 0
BITMAP
0C00
1E00
2100
0000
E3C0
6180
6180
6180
6180
6180
6180
7380
3DC0
ENDCHAR
STARTCHAR udieresis
ENCODING 252
SWIDTH 611 0
DWIDTH 11 0
BBX 10 12 0 0
BITMAP
3300
3300
0000
E3C0
6180
6180
6180
6180
6180
6180
7380
3DC0
ENDCHAR
STARTCHAR yacute
ENCODING 253
SWIDTH 537 0
DWIDTH 11 0
BBX 10 17 0 -4
BITMAP
0300
0600
0800
0000
F1C0
6080
3100
3100
1A00
1A00
0C00
0C00
0800
0800
1000
D000
E000
ENDCHAR
STARTCHAR thorn
ENCODING 254
SWIDTH 574 0
DWIDTH 11 0
BBX 10 18 0 -4
BITMAP
E000
6000
6000
6000
6000
6F00
7180
60C0
60C0
60C0
60C0
60C0
7180
6F00
6000
6000
6000
F000
ENDCHAR
STARTCHAR ydieresis
ENCODING 255
SWIDTH 537 0
DWIDTH 11 0
BBX 10 16 0 -4
BITMAP
3300
3300
0000
F1C0
6080
3100
3100
1A00
1A00
0C00
0C00
0800
0800
1000
D000
E000
ENDCHAR
STARTCHAR Amacron
ENCODING 256
SWIDTH 722 0
DWIDTH 13 0
BBX 14 16 -1 0
BITMAP
0FC0
0000
0300
0300
0300
0580
0580
0580
08C0
08C0
1FE0
1060
1060
2030
2030
F8FC
ENDCHAR
STARTCHAR amacron
ENCODING 257
SWIDTH 556 0
DWIDTH 10 0
BBX 9 11 0 0
BITMAP
7E00
0000
1C00
6200
6300
0300
1F00
6300
C300
C700
7980
ENDCHAR
STARTCHAR Abreve
ENCODING 258
SWIDTH 722 0
DWIDTH 13 0
BBX 14 17 -1 0
BITMAP
0440
0380
0000
0300
0300
0300
0580
0580
0580
08C0
08C0
1FE0
1060
1060
2030
2030
F8FC
ENDCHAR
STARTCHAR abreve
ENCODING 259
SWIDTH 556 0
DWIDTH 10 0
BBX 9 12 0 0
BITMAP
2200
1C00
0000
1C00
6200
6300
0300
1F00
6300
C300
C700
7980
ENDCHAR
STARTCHAR Aogonek
ENCODING 260
SWIDTH 722 0
DWIDTH 13 0
BBX 14 17 -1 -3
BITMAP
0300
0300
0300
0580
0580
0580
08C0
08C0
1FE0
1060
1060
2030
2030
F9FC
0200
0340
0180
ENDCHAR
STARTCHAR aogonek
ENCODING 261
SWIDTH 556 0
DWIDTH 10 0
BBX 9 12 0 -3
BITMAP
1C00
6200
6300
0300
1F00
6300
C300
C700
7980
1000
1A00
0C00
ENDCHAR
STARTCHAR Cacute
ENCODING 262
SWIDTH 722 0
DWIDTH 13 0
BBX 12 18 0 0
BITMAP
0180
0300
0400
0000
0F90
3870
6030
6010
C010
C000
C000
C000
C000
C000
6010
6010
3860
0FC0
ENDCHAR
STARTCHAR cacute
ENCODING 263
SWIDTH 444 0
DWIDTH 9 0
BBX 8 13 0 0
BITMAP
06
0C
10
00
3C
63
C3
C0
C0
C0
C1
63
3E
ENDCHAR
STARTCHAR Ccircumflex
ENCODING 264
SWIDTH 722 0
DWIDTH 13 0
BBX 12 18 0 0
BITMAP
0600
0F00
1080
0000
0F90
3870
6030
6010
C010
C000
C000
C000
C000
C000
6010
6010
3860
0FC0
ENDCHAR
STARTCHAR ccircumflex
ENCODING 265
SWIDTH 444 0
DWIDTH 9 0
BBX 8 13 0 0
BITMAP
18
3C
42
00
3C
63
C3
C0
C0
C0
C1
63
3E
ENDCHAR
STARTCHAR Cdotaccent
ENCODING 266
SWIDTH 722 0
DWIDTH 13 0
BBX 12 17 0 0
BITMAP
0600
0600
0000
0F90
3870
6030
6010
C010
C000
C000
C000
C000
C000
6010
6010
3860
0FC0
ENDCHAR
STARTCHAR cdotaccent
ENCODING 267
SWIDTH 444 0
DWIDTH 9 0
BBX 8 12 0 0
BITMAP
18
18
00
3C
63
C3
C0
C0
C0
C1
63
3E
ENDCHAR
STARTCHAR Ccaron
ENCODING 268
SWIDTH 722 0
DWIDTH 13 0
BBX 12 19 0 0
BITMAP
1040
0880
0700
0200
0000
0F90
3870
6030
6010
C010
C000
C000
C000
C000
C000
6010
6010
3860
0FC0
ENDCHAR
STARTCHAR ccaron
ENCODING 269
SWIDTH 444 0
DWIDTH 9 0
BBX 8 14 0 0
BITMAP
41
22
1C
08
00
3C
63
C3
C0
C0
C0
C1
63
3E
ENDCHAR
STARTCHAR Dcaron
ENCODING 270
SWIDTH 778 0
DWIDTH 15 0
BBX 14 19 0 0
BITMAP
1040
0880
0700
0200
0000
FFC0
3070
3018
3018
300C
300C
300C
300C
300C
300C
3018
3018
3070
FFC0
ENDCHAR
STARTCHAR dcaron
ENCODING 271
SWIDTH 749 0
DWIDTH 14 0
BBX 13 14 0 0
BITMAP
0398
0198
0188
0190
01A0
3D80
6380
C180
C180
C180
C180
C180
6380
3DC0
ENDCHAR
STARTCHAR Dcroat
ENCODING 272
SWIDTH 778 0
DWIDTH 15 0
BBX 14 14 0 0
BITMAP
FFC0
3070
3018
3018
300C
300C
FE0C
300C
300C
300C
3018
3018
3070
FFC0
ENDCHAR
STARTCHAR dcroat
ENCODING 273
SWIDTH 574 0
DWIDTH 11 0
BBX 10 14 0 0
BITMAP
0380
0180
0180
0FC0
0180
3D80
6380
C180
C180
C180
C180
C180
6380
3DC0
ENDCHAR
STARTCHAR Emacron
ENCODING 274
SWIDTH 722 0
DWIDTH 12 0
BBX 11 16 0 0
BITMAP
1F80
0000
FFE0
3060
3020
3020
3120
3100
3F00
3100
3100
3020
3020
3020
3060
FFE0
ENDCHAR
STARTCHAR emacron
ENCODING 275
SWIDTH 500 0
DWIDTH 9 0
BBX 8 11 0 0
BITMAP
7E
00
3C
66
C3
C3
FF
C0
C1
63
3E
ENDCHAR
STARTCHAR Ebreve
ENCODING 276
SWIDTH 722 0
DWIDTH 12 0
BBX 11 17 0 0
BITMAP
1100
0E00
0000
FFE0
3060
3020
3020
3120
3100
3F00
3100
3100
3020
3020
3020
3060
FFE0
ENDCHAR
STARTCHAR ebreve
ENCODING 277
SWIDTH 500 0
DWIDTH 9 0
BBX 8 12 0 0
BITMAP
22
1C
00
3C
66
C3
C3
FF
C0
C1
63
3E
ENDCHAR
STARTCHAR Edotaccent
ENCODING 278
SWIDTH 722 0
DWIDTH 12 0
BBX 11 17 0 0
BITMAP
0600
0600
0000
FFE0
3060
3020
3020
3120
3100
3F00
3100
3100
3020
3020
3020
3060
FFE0
ENDCHAR
STARTCHAR edotaccent
ENCODING 279
SWIDTH 500 0
DWIDTH 9 0
BBX 8 12 0 0
BITMAP
18
18
00
3C
66
C3
C3
FF
C0
C1
63
3E
ENDCHAR
STARTCHAR Eogonek
ENCODING 280
SWIDTH 722 0
DWIDTH 12 0
BBX 11 17 0 -3
BITMAP
FFE0
3060
3020
3020
3120
3100
3F00
3100
3100
3020
3020
3020
3060
FFE0
0800
0D00
0600
ENDCHAR
STARTCHAR eogonek
ENCODING 281
SWIDTH 500 0
DWIDTH 9 0
BBX 8 12 0 -3
BITMAP
3C
66
C3
C3
FF
C0
C1
63
3E
10
1A
0C
ENDCHAR
STARTCHAR Ecaron
ENCODING 282
SWIDTH 722 0
DWIDTH 12 0
BBX 11 19 0 0
BITMAP
2080
1100
0E00
0400
0000
FFE0
3060
3020
3020
3120
3100
3F00
3100
3100
3020
3020
3020
3060
FFE0
ENDCHAR
STARTCHAR ecaron
ENCODING 283
SWIDTH 500 0
DWIDTH 9 0
BBX 8 14 0 0
BITMAP
41
22
1C
08
00
3C
66
C3
C3
FF
C0
C1
63
3E
ENDCHAR
STARTCHAR Gcircumflex
ENCODING 284
SWIDTH 778 0
DWIDTH 15 0
BBX 14 18 0 0
BITMAP
0300
0780
0840
0000
0FC8
3878
6018
6008
C008
C000
C000
C000
C07C
C018
6018
6018
3878
0FC8
ENDCHAR
STARTCHAR gcircumflex
ENCODING 285
SWIDTH 537 0
DWIDTH 11 0
BBX 10 18 0 -4
BITMAP
0600
0F00
1080
0000
00C0
1FC0
3300
6180
6180
3300
3E00
4000
7F00
3F80
41C0
80C0
C180
7F00
ENDCHAR
STARTCHAR Gbreve
ENCODING 286
SWIDTH 778 0
DWIDTH 15 0
BBX 14 17 0 0
BITMAP
0440
0380
0000
0FC8
3878
6018
6008
C008
C000
C000
C000
C07C
C018
6018
6018
3878
0FC8
ENDCHAR
STARTCHAR gbreve
ENCODING 287
SWIDTH 537 0
DWIDTH 11 0
BBX 10 17 0 -4
BITMAP
1100
0E00
0000
00C0
1FC0
3300
6180
6180
3300
3E00
4000
7F00
3F80
41C0
80C0
C180
7F00
ENDCHAR
STARTCHAR Gdotaccent
ENCODING 288
SWIDTH 778 0
DWIDTH 15 0
BBX 14 17 0 0
BITMAP
0300
0300
0000
0FC8
3878
6018
6008
C008
C000
C000
C000
C07C
C018
6018
6018
3878
0FC8
ENDCHAR
STARTCHAR gdotaccent
ENCODING 289
SWIDTH 537 0
DWIDTH 11 0
BBX 10 17 0 -4
BITMAP
0600
0600
0000
00C0
1FC0
3300
6180
6180
3300
3E00
4000
7F00
3F80
41C0
80C0
C180
7F00
ENDCHAR
STARTCHAR Gcommaaccent
ENCODING 290
SWIDTH 778 0
DWIDTH 15 0
BBX 14 20 0 -6
BITMAP
0FC8
3878
6018
6008
C008
C000
C000
C000
C07C
C018
6018
6018
3878
0FC8
0000
0180
0180
0080
0100
0200
ENDCHAR
STARTCHAR gcommaaccent
ENCODING 291
SWIDTH 537 0
DWIDTH 11 0
BBX 10 20 0 -4
BITMAP
0100
0200
0400
0600
0600
0000
00C0
1FC0
3300
6180
6180
3300
3E00
4000
7F00
3F80
41C0
80C0
C180
7F00
ENDCHAR
STARTCHAR Hcircumflex
ENCODING 292
SWIDTH 833 0
DWIDTH 16 0
BBX 15 18 0 0
BITMAP
0180
03C0
0420
0000
FC7E
3018
3018
3018
3018
3018
3FF8
3018
3018
3018
3018
3018
3018
FC7E
ENDCHAR
STARTCHAR hcircumflex
ENCODING 293
SWIDTH 611 0
DWIDTH 11 0
BBX 10 18 0 0
BITMAP
3000
7800
8400
0000
E000
6000
6000
6000
6000
6F00
7380
6180
6180
6180
6180
6180
6180
F3C0
ENDCHAR
STARTCHAR Hbar
ENCODING 294
SWIDTH 833 0
DWIDTH 16 0
BBX 15 14 0 0
BITMAP
FC7E
3018
3018
3018
FFFE
3018
3FF8
3018
3018
3018
3018
3018
3018
FC7E
ENDCHAR
STARTCHAR hbar
ENCODING 295
SWIDTH 611 0
DWIDTH 11 0
BBX 10 14 0 0
BITMAP
E000
6000
6000
FC00
6000
6F00
7380
6180
6180
6180
6180
6180
6180
F3C0
ENDCHAR
STARTCHAR Itilde
ENCODING 296
SWIDTH 407 0
DWIDTH 7 0
BBX 6 17 0 0
BITMAP
74
B8
00
FC
30
30
30
30
30
30
30
30
30
30
30
30
FC
ENDCHAR
STARTCHAR itilde
ENCODING 297
SWIDTH 315 0
DWIDTH 5 0
BBX 6 12 -1 0
BITMAP
74
B8
00
70
30
30
30
30
30
30
30
78
ENDCHAR
STARTCHAR Imacron
ENCODING 298
SWIDTH 407 0
DWIDTH 7 0
BBX 6 16 0 0
BITMAP
FC
00
FC
30
30
30
30
30
30
30
30
30
30
30
30
FC
ENDCHAR
STARTCHAR imacron
ENCODING 299
SWIDTH 315 0
DWIDTH 5 0
BBX 6 11 -1 0
BITMAP
FC
00
70
30
30
30
30
30
30
30
78
ENDCHAR
STARTCHAR Ibreve
ENCODING 300
SWIDTH 407 0
DWIDTH 7 0
BBX 6 17 0 0
BITMAP
44
38
00
FC
30
30
30
30
30
30
30
30
30
30
30
30
FC
ENDCHAR
STARTCHAR ibreve
ENCODING 301
SWIDTH 315 0
DWIDTH 5 0
BBX 5 12 -1 0
BITMAP
88
70
00
70
30
30
30
30
30
30
30
78
ENDCHAR
STARTCHAR Iogonek
ENCODING 302
SWIDTH 407 0
DWIDTH 7 0
BBX 6 17 0 -3
BITMAP
FC
30
30
30
30
30
30
30
30
30
30
30
30
FC
20
34
18
ENDCHAR
STARTCHAR iogonek
ENCODING 303
SWIDTH 315 0
DWIDTH 5 0
BBX 5 16 0 -3
BITMAP
60
60
00
00
E0
60
60
60
60
60
60
60
F0
40
68
30
ENDCHAR
STARTCHAR Idotaccent
ENCODING 304
SWIDTH 407 0
DWIDTH 7 0
BBX 6 17 0 0
BITMAP
30
30
00
FC
30
30
30
30
30
30
30
30
30
30
30
30
FC
ENDCHAR
STARTCHAR dotlessi
ENCODING 305
SWIDTH 315 0
DWIDTH 5 0
BBX 4 9 0 0
BITMAP
E0
60
60
60
60
60
60
60
F0
ENDCHAR
STARTCHAR IJ
ENCODING 306
SWIDTH 943 0
DWIDTH 17 0
BBX 16 14 0 0
BITMAP
FC3F
300C
300C
300C
300C
300C
300C
300C
300C
300C
318C
318C
3108
FCF0
ENDCHAR
STARTCHAR ij
ENCODING 307
SWIDTH 595 0
DWIDTH 10 0
BBX 8 17 0 -4
BITMAP
63
63
00
00
E7
63
63
63
63
63
63
63
F3
03
33
32
1C
ENDCHAR
STARTCHAR Jcircumflex
ENCODING 308
SWIDTH 556 0
DWIDTH 10 0
BBX 9 18 0 0
BITMAP
0600
0F00
1080
0000
1F80
0600
0600
0600
0600
0600
0600
0600
0600
0600
C600
C600
8400
7800
ENDCHAR
STARTCHAR jcircumflex
ENCODING 309
SWIDTH 296 0
DWIDTH 5 0
BBX 7 17 -3 -4
BITMAP
18
3C
42
00
1C
0C
0C
0C
0C
0C
0C
0C
0C
0C
CC
C8
70
ENDCHAR
STARTCHAR Kcommaaccent
ENCODING 310
SWIDTH 778 0
DWIDTH 15 0
BBX 15 20 0 -6
BITMAP
FCF8
3060
3040
3080
3100
3200
3600
3F00
3380
31C0
30E0
3070
3038
FCFE
0000
0180
0180
0080
0100
0200
ENDCHAR
STARTCHAR kcommaaccent
ENCODING 311
SWIDTH 593 0
DWIDTH 10 0
BBX 10 20 0 -6
BITMAP
E000
6000
6000
6000
6000
6780
6200
6400
6800
7800
6C00
6600
6300
F7C0
0000
0C00
0C00
0400
0800
1000
ENDCHAR
STARTCHAR kgreenlandic
ENCODING 312
SWIDTH 593 0
DWIDTH 10 0
BBX 10 9 0 0
BITMAP
6780
6200
6400
6800
7800
6C00
6600
6300
F7C0
ENDCHAR
STARTCHAR Lacute
ENCODING 313
SWIDTH 667 0
DWIDTH 12 0
BBX 11 18 0 0
BITMAP
0600
0C00
1000
0000
FC00
3000
3000
3000
3000
3000
3000
3000
3000
3020
3020
3020
3060
FFE0
ENDCHAR
STARTCHAR lacute
ENCODING 314
SWIDTH 315 0
DWIDTH 5 0
BBX 5 18 0 0
BITMAP
18
30
40
00
E0
60
60
60
60
60
60
60
60
60
60
60
60
F0
ENDCHAR
STARTCHAR Lcommaaccent
ENCODING 315
SWIDTH 667 0
DWIDTH 12 0
BBX 11 20 0 -6
BITMAP
FC00
3000
3000
3000
3000
3000
3000
3000
3000
3020
3020
3020
3060
FFE0
0000
0600
0600
0200
0400
0800
ENDCHAR
STARTCHAR lcommaaccent
ENCODING 316
SWIDTH 315 0
DWIDTH 5 0
BBX 4 20 0 -6
BITMAP
E0
60
60
60
60
60
60
60
60
60
60
60
60
F0
00
60
60
20
40
80
ENDCHAR
STARTCHAR Lcaron
ENCODING 317
SWIDTH 838 0
DWIDTH 15 0
BBX 14 14 0 0
BITMAP
FC0C
300C
3004
3008
3010
3000
3000
3000
3000
3020
3020
3020
3060
FFE0
ENDCHAR
STARTCHAR lcaron
ENCODING 318
SWIDTH 503 0
DWIDTH 9 0
BBX 8 14 0 0
BITMAP
E3
63
61
62
64
60
60
60
60
60
60
60
60
F0
ENDCHAR
STARTCHAR Ldot
ENCODING 319
SWIDTH 912 0
DWIDTH 16 0
BBX 14 14 0 0
BITMAP
FC00
3000
3000
3000
3000
3000
3000
300C
300C
3020
3020
3020
3060
FFE0
ENDCHAR
STARTCHAR ldot
ENCODING 320
SWIDTH 577 0
DWIDTH 10 0
BBX 8 14 0 0
BITMAP
E0
60
60
60
60
60
60
63
63
60
60
60
60
F0
ENDCHAR
STARTCHAR Lslash
ENCODING 321
SWIDTH 667 0
DWIDTH 12 0
BBX 11 14 0 0
BITMAP
FC00
3000
3000
3000
3000
3400
3800
3000
7000
B020
3020
3020
3060
FFE0
ENDCHAR
STARTCHAR lslash
ENCODING 322
SWIDTH 315 0
DWIDTH 5 0
BBX 4 14 0 0
BITMAP
E0
60
60
60
60
70
60
E0
60
60
60
60
60
F0
ENDCHAR
STARTCHAR Nacute
ENCODING 323
SWIDTH 815 0
DWIDTH 15 0
BBX 14 18 0 0
BITMAP
00C0
0180
0200
0000
F07C
3010
3810
3C10
2E10
2610
2310
2390
2190
20D0
20F0
2070
2030
F810
ENDCHAR
STARTCHAR nacute
ENCODING 324
SWIDTH 611 0
DWIDTH 11 0
BBX 10 13 0 0
BITMAP
0300
0600
0800
0000
EF00
7380
6180
6180
6180
6180
6180
6180
F3C0
ENDCHAR
STARTCHAR Ncommaaccent
ENCODING 325
SWIDTH 815 0
DWIDTH 15 0
BBX 14 20 0 -6
BITMAP
F07C
3010
3810
3C10
2E10
2610
2310
2390
2190
20D0
20F0
2070
2030
F810
0000
0300
0300
0100
0200
0400
ENDCHAR
STARTCHAR ncommaaccent
ENCODING 326
SWIDTH 611 0
DWIDTH 11 0
BBX 10 15 0 -6
BITMAP
EF00
7380
6180
6180
6180
6180
6180
6180
F3C0
0000
0C00
0C00
0400
0800
1000
ENDCHAR
STARTCHAR Ncaron
ENCODING 327
SWIDTH 815 0
DWIDTH 15 0
BBX 14 19 0 0
BITMAP
1040
0880
0700
0200
0000
F07C
3010
3810
3C10
2E10
2610
2310
2390
2190
20D0
20F0
2070
2030
F810
ENDCHAR
STARTCHAR ncaron
ENCODING 328
SWIDTH 611 0
DWIDTH 11 0
BBX 10 14 0 0
BITMAP
4100
2200
1C00
0800
0000
EF00
7380
6180
6180
6180
6180
6180
6180
F3C0
ENDCHAR
STARTCHAR napostrophe
ENCODING 329
SWIDTH 805 0
DWIDTH 15 0
BBX 14 14 0 0
BITMAP
6000
6000
2000
4000
8000
0EF0
0738
0618
0618
0618
0618
0618
0618
0F3C
ENDCHAR
STARTCHAR Eng
ENCODING 330
SWIDTH 815 0
DWIDTH 15 0
BBX 14 18 0 -4
BITMAP
F07C
3010
3810
3C10
2E10
2610
2310
2390
2190
20D0
20F0
2070
2030
F830
0030
0330
0320
01C0
ENDCHAR
STARTCHAR eng
ENCODING 331
SWIDTH 611 0
DWIDTH 11 0
BBX 9 13 0 -4
BITMAP
EF00
7380
6180
6180
6180
6180
6180
6180
F180
0180
1980
1900
0E00
ENDCHAR
STARTCHAR Omacron
ENCODING 332
SWIDTH 778 0
DWIDTH 15 0
BBX 14 16 0 0
BITMAP
0FC0
0000
0FC0
3870
6018
6018
C00C
C00C
C00C
C00C
C00C
C00C
6018
6018
3870
0FC0
ENDCHAR
STARTCHAR omacron
ENCODING 333
SWIDTH 500 0
DWIDTH 10 0
BBX 9 11 0 0
BITMAP
3F00
0000
3E00
6300
C180
C180
C180
C180
C180
6300
3E00
ENDCHAR
STARTCHAR Obreve
ENCODING 334
SWIDTH 778 0
DWIDTH 15 0
BBX 14 17 0 0
BITMAP
0440
0380
0000
0FC0
3870
6018
6018
C00C
C00C
C00C
C00C
C00C
C00C
6018
6018
3870
0FC0
ENDCHAR
STARTCHAR obreve
ENCODING 335
SWIDTH 500 0
DWIDTH 10 0
BBX 9 12 0 0
BITMAP
2200
1C00
0000
3E00
6300
C180
C180
C180
C180
C180
6300
3E00
ENDCHAR
STARTCHAR Ohungarumlaut
ENCODING 336
SWIDTH 778 0
DWIDTH 15 0
BBX 14 19 0 0
BITMAP
0198
0330
0440
0880
0000
0FC0
3870
6018
6018
C00C
C00C
C00C
C00C
C00C
C00C
6018
6018
3870
0FC0
ENDCHAR
STARTCHAR ohungarumlaut
ENCODING 337
SWIDTH 500 0
DWIDTH 10 0
BBX 10 14 0 0
BITMAP
0CC0
1980
2200
4400
0000
3E00
6300
C180
C180
C180
C180
C180
6300
3E00
ENDCHAR
STARTCHAR OE
ENCODING 338
SWIDTH 1000 0
DWIDTH 20 0
BBX 19 14 0 0
BITMAP
0FFFE0
387060
603020
603120
C03120
C03300
C03F00
C03300
C03100
C03120
603020
603020
387060
0FFFE0
ENDCHAR
STARTCHAR oe
ENCODING 339
SWIDTH 833 0
DWIDTH 17 0
BBX 16 9 0 0
BITMAP
3E7C
63C6
C183
C183
C1FF
C180
C180
63C3
3E7E
ENDCHAR
STARTCHAR Racute
ENCODING 340
SWIDTH 722 0
DWIDTH 14 0
BBX 14 18 0 0
BITMAP
0180
0300
0400
0000
FF80
30C0
3060
3060
3060
30C0
3F00
3180
30C0
30C0
30E0
3060
3074
F838
ENDCHAR
STARTCHAR racute
ENCODING 341
SWIDTH 444 0
DWIDTH 8 0
BBX 7 13 0 0
BITMAP
06
0C
10
00
E6
6E
72
60
60
60
60
60
F0
ENDCHAR
STARTCHAR Rcommaaccent
ENCODING 342
SWIDTH 722 0
DWIDTH 14 0
BBX 14 20 0 -6
BITMAP
FF80
30C0
3060
3060
3060
30C0
3F00
3180
30C0
30C0
30E0
3060
3074
F838
0000
0300
0300
0100
0200
0400
ENDCHAR
STARTCHAR rcommaaccent
ENCODING 343
SWIDTH 444 0
DWIDTH 8 0
BBX 7 15 0 -6
BITMAP
E6
6E
72
60
60
60
60
60
F0
00
30
30
10
20
40
ENDCHAR
STARTCHAR Rcaron
ENCODING 344
SWIDTH 722 0
DWIDTH 14 0
BBX 14 19 0 0
BITMAP
1040
0880
0700
0200
0000
FF80
30C0
3060
3060
3060
30C0
3F00
3180
30C0
30C0
30E0
3060
3074
F838
ENDCHAR
STARTCHAR rcaron
ENCODING 345
SWIDTH 444 0
DWIDTH 8 0
BBX 7 14 0 0
BITMAP
82
44
38
10
00
E6
6E
72
60
60
60
60
60
F0
ENDCHAR
STARTCHAR Sacute
ENCODING 346
SWIDTH 630 0
DWIDTH 11 0
BBX 10 18 0 0
BITMAP
0300
0600
0800
0000
3E80
6180
C080
C080
C000
F000
7E00
1F80
03C0
80C0
80C0
C0C0
E180
BF00
ENDCHAR
STARTCHAR sacute
ENCODING 347
SWIDTH 463 0
DWIDTH 8 0
BBX 7 13 0 0
BITMAP
06
0C
10
00
7A
C6
82
E0
7C
0E
82
C6
BC
ENDCHAR
STARTCHAR Scircumflex
ENCODING 348
SWIDTH 630 0
DWIDTH 11 0
BBX 10 18 0 0
BITMAP
0C00
1E00
2100
0000
3E80
6180
C080
C080
C000
F000
7E00
1F80
03C0
80C0
80C0
C0C0
E180
BF00
ENDCHAR
STARTCHAR scircumflex
ENCODING 349
SWIDTH 463 0
DWIDTH 8 0
BBX 7 13 0 0
BITMAP
18
3C
42
00
7A
C6
82
E0
7C
0E
82
C6
BC
ENDCHAR
STARTCHAR Scedilla
ENCODING 350
SWIDTH 630 0
DWIDTH 11 0
BBX 10 18 0 -4
BITMAP
3E80
6180
C080
C080
C000
F000
7E00
1F80
03C0
80C0
80C0
C0C0
E180
BF00
0800
0E00
0200
1C00
ENDCHAR
STARTCHAR scedilla
ENCODING 351
SWIDTH 463 0
DWIDTH 8 0
BBX 7 13 0 -4
BITMAP
7A
C6
82
E0
7C
0E
82
C6
BC
20
38
08
70
ENDCHAR
STARTCHAR Scaron
ENCODING 352
SWIDTH 630 0
DWIDTH 11 0
BBX 10 18 0 0
BITMAP
2100
1E00
0C00
0000
3E80
6180
C080
C080
C000
F000
7E00
1F80
03C0
80C0
80C0
C0C0
E180
BF00
ENDCHAR
STARTCHAR scaron
ENCODING 353
SWIDTH 463 0
DWIDTH 8 0
BBX 7 14 0 0
BITMAP
82
44
38
10
00
7A
C6
82
E0
7C
0E
82
C6
BC
ENDCHAR
STARTCHAR Tcommaaccent
ENCODING 354
SWIDTH 667 0
DWIDTH 13 0
BBX 12 18 0 -4
BITMAP
FFF0
C630
8610
8610
8610
0600
0600
0600
0600
0600
0600
0600
0600
1F80
0400
0700
0100
0E00
ENDCHAR
STARTCHAR tcommaaccent
ENCODING 355
SWIDTH 389 0
DWIDTH 6 0
BBX 6 16 0 -4
BITMAP
60
60
60
F8
60
60
60
60
60
60
64
38
20
38
08
70
ENDCHAR
STARTCHAR Tcaron
ENCODING 356
SWIDTH 667 0
DWIDTH 13 0
BBX 12 19 0 0
BITMAP
1040
0880
0700
0200
0000
FFF0
C630
8610
8610
8610
0600
0600
0600
0600
0600
0600
0600
0600
1F80
ENDCHAR
STARTCHAR tcaron
ENCODING 357
SWIDTH 574 0
DWIDTH 10 0
BBX 9 14 0 0
BITMAP
0180
0180
6080
6100
6200
F800
6000
6000
6000
6000
6000
6000
6400
3800
ENDCHAR
STARTCHAR Tbar
ENCODING 358
SWIDTH 667 0
DWIDTH 13 0
BBX 12 14 0 0
BITMAP
FFF0
C630
8610
8610
8610
0600
1F80
0600
0600
0600
0600
0600
0600
1F80
ENDCHAR
STARTCHAR tbar
ENCODING 359
SWIDTH 389 0
DWIDTH 6 0
BBX 6 12 0 0
BITMAP
60
60
60
F8
60
60
60
FC
60
60
64
38
ENDCHAR
STARTCHAR Utilde
ENCODING 360
SWIDTH 815 0
DWIDTH 15 0
BBX 14 17 0 0
BITMAP
0740
0B80
0000
FC7C
3010
3010
3010
3010
3010
3010
3010
3010
3010
3010
3010
1820
0FC0
ENDCHAR
STARTCHAR utilde
ENCODING 361
SWIDTH 611 0
DWIDTH 11 0
BBX 10 12 0 0
BITMAP
1D00
2E00
0000
E380
6180
6180
6180
6180
6180
6180
7380
3DC0
ENDCHAR
STARTCHAR Umacron
ENCODING 362
SWIDTH 815 0
DWIDTH 15 0
BBX 14 16 0 0
BITMAP
0FC0
0000
FC7C
3010
3010
3010
3010
3010
3010
3010
3010
3010
3010
3010
1820
0FC0
ENDCHAR
STARTCHAR umacron
ENCODING 363
SWIDTH 611 0
DWIDTH 11 0
BBX 10 11 0 0
BITMAP
3F00
0000
E380
6180
6180
6180
6180
6180
6180
7380
3DC0
ENDCHAR
STARTCHAR Ubreve
ENCODING 364
SWIDTH 815 0
DWIDTH 15 0
BBX 14 17 0 0
BITMAP
0880
0700
0000
FC7C
3010
3010
3010
3010
3010
3010
3010
3010
3010
3010
3010
1820
0FC0
ENDCHAR
STARTCHAR ubreve
ENCODING 365
SWIDTH 611 0
DWIDTH 11 0
BBX 10 12 0 0
BITMAP
2200
1C00
0000
E380
6180
6180
6180
6180
6180
6180
7380
3DC0
ENDCHAR
STARTCHAR Uring
ENCODING 366
SWIDTH 815 0
DWIDTH 15 0
BBX 14 19 0 0
BITMAP
0300
0480
0480
0300
0000
FC7C
3010
3010
3010
3010
3010
3010
3010
3010
3010
3010
3010
1820
0FC0
ENDCHAR
STARTCHAR uring
ENCODING 367
SWIDTH 611 0
DWIDTH 11 0
BBX 10 14 0 0
BITMAP
0C00
1200
1200
0C00
0000
E380
6180
6180
6180
6180
6180
6180
7380
3DC0
ENDCHAR
STARTCHAR Uhungarumlaut
ENCODING 368
SWIDTH 815 0
DWIDTH 15 0
BBX 14 19 0 0
BITMAP
0330
0660
0880
1100
0000
FC7C
3010
3010
3010
3010
3010
3010
3010
3010
3010
3010
3010
1820
0FC0
ENDCHAR
STARTCHAR uhungarumlaut
ENCODING 369
SWIDTH 611 0
DWIDTH 11 0
BBX 10 14 0 0
BITMAP
0CC0
1980
2200
4400
0000
E380
6180
6180
6180
6180
6180
6180
7380
3DC0
ENDCHAR
STARTCHAR Uogonek
ENCODING 370
SWIDTH 815 0
DWIDTH 15 0
BBX 14 17 0 -3
BITMAP
FC7C
3010
3010
3010
3010
3010
3010
3010
3010
3010
3010
3010
1820
0FC0
0400
0680
0300
ENDCHAR
STARTCHAR uogonek
ENCODING 371
SWIDTH 611 0
DWIDTH 11 0
BBX 10 12 0 -3
BITMAP
E380
6180
6180
6180
6180
6180
6180
7380
3DC0
0800
0D00
0600
ENDCHAR
STARTCHAR Wcircumflex
ENCODING 372
SWIDTH 981 0
DWIDTH 19 0
BBX 20 18 -1 0
BITMAP
006000
00F000
010800
000000
FDF9F0
306040
306040
187080
187080
187080
0C9900
0C9900
0C9900
050900
070E00
070E00
030600
030600
ENDCHAR
STARTCHAR wcircumflex
ENCODING 373
SWIDTH 778 0
DWIDTH 16 0
BBX 15 13 0 0
BITMAP
0300
0780
0840
0000
F7DE
6184
6184
32C8
32C8
34D0
1C70
1C70
0820
ENDCHAR
STARTCHAR Ycircumflex
ENCODING 374
SWIDTH 704 0
DWIDTH 13 0
BBX 14 18 -1 0
BITMAP
0300
0780
0840
0000
FC7C
3010
1820
1820
0C40
0C40
0680
0780
0300
0300
0300
0300
0300
0FC0
ENDCHAR
STARTCHAR ycircumflex
ENCODING 375
SWIDTH 537 0
DWIDTH 11 0
BBX 10 17 0 -4
BITMAP
0C00
1E00
2100
0000
F1C0
6080
3100
3100
1A00
1A00
0C00
0C00
0800
0800
1000
D000
E000
ENDCHAR
STARTCHAR Ydieresis
ENCODING 376
SWIDTH 704 0
DWIDTH 13 0
BBX 14 17 -1 0
BITMAP
0CC0
0CC0
0000
FC7C
3010
1820
1820
0C40
0C40
0680
0780
0300
0300
0300
0300
0300
0FC0
ENDCHAR
STARTCHAR Zacute
ENCODING 377
SWIDTH 611 0
DWIDTH 11 0
BBX 10 18 0 0
BITMAP
0300
0600
0800
0000
FFC0
C0C0
8180
8380
8300
0600
0E00
1C00
1800
3040
7040
6040
C0C0
FFC0
ENDCHAR
STARTCHAR zacute
ENCODING 378
SWIDTH 481 0
DWIDTH 8 0
BBX 7 13 0 0
BITMAP
06
0C
10
00
FE
86
8C
18
18
30
62
C6
FE
ENDCHAR
STARTCHAR Zdotaccent
ENCODING 379
SWIDTH 611 0
DWIDTH 11 0
BBX 10 17 0 0
BITMAP
0C00
0C00
0000
FFC0
C0C0
8180
8380
8300
0600
0E00
1C00
1800
3040
7040
6040
C0C0
FFC0
ENDCHAR
STARTCHAR zdotaccent
ENCODING 380
SWIDTH 481 0
DWIDTH 8 0
BBX 7 12 0 0
BITMAP
18
18
00
FE
86
8C
18
18
30
62
C6
FE
ENDCHAR
STARTCHAR Zcaron
ENCODING 381
SWIDTH 611 0
DWIDTH 11 0
BBX 10 18 0 0
BITMAP
2100
1E00
0C00
0000
FFC0
C0C0
8180
8380
8300
0600
0E00
1C00
1800
3040
7040
6040
C0C0
FFC0
ENDCHAR
STARTCHAR zcaron
ENCODING 382
SWIDTH 481 0
DWIDTH 8 0
BBX 7 14 0 0
BITMAP
82
44
38
10
00
FE
86
8E
1C
38
70
E2
C2
FE
ENDCHAR
STARTCHAR uni0186
ENCODING 390
SWIDTH 722 0
DWIDTH 13 0
BBX 12 14 0 0
BITMAP
3F00
61C0
8060
8060
0030
0030
0030
0030
0030
8030
8060
C060
E1C0
9F00
ENDCHAR
STARTCHAR uni0189
ENCODING 393
SWIDTH 778 0
DWIDTH 15 0
BBX 14 14 0 0
BITMAP
FFC0
3070
3018
3018
300C
300C
FE0C
300C
300C
300C
3018
3018
3070
FFC0
ENDCHAR
STARTCHAR uni018E
ENCODING 398
SWIDTH 722 0
DWIDTH 12 0
BBX 11 14 0 0
BITMAP
FFE0
C180
8180
8180
8180
1180
1180
1F80
1180
9180
8180
8180
C180
FFE0
ENDCHAR
STARTCHAR florin
ENCODING 402
SWIDTH 556 0
DWIDTH 9 0
BBX 11 18 -2 -4
BITMAP
01C0
0260
0660
0600
0600
0600
1FC0
0600
0600
0600
0600
0C00
0C00
0C00
0C00
CC00
C800
7000
ENDCHAR
STARTCHAR uni0197
ENCODING 407
SWIDTH 407 0
DWIDTH 7 0
BBX 6 14 0 0
BITMAP
FC
30
30
30
30
30
FC
30
30
30
30
30
30
FC
ENDCHAR
STARTCHAR uni019A
ENCODING 410
SWIDTH 315 0
DWIDTH 5 0
BBX 6 14 -1 0
BITMAP
70
30
30
30
30
30
FC
30
30
30
30
30
30
78
ENDCHAR
STARTCHAR uni019D
ENCODING 413
SWIDTH 815 0
DWIDTH 15 0
BBX 16 18 -2 -4
BITMAP
3C1F
0C04
0E04
0F04
0B84
0984
08C4
08E4
0864
0834
0C3C
0C1C
0C0C
0C04
0C00
CC00
C800
7000
ENDCHAR
STARTCHAR uni019F
ENCODING 415
SWIDTH 778 0
DWIDTH 15 0
BBX 14 14 0 0
BITMAP
0FC0
3870
6018
6018
C00C
C00C
FFFC
C00C
C00C
C00C
6018
6018
3870
0FC0
ENDCHAR
STARTCHAR Ohorn
ENCODING 416
SWIDTH 778 0
DWIDTH 15 0
BBX 16 14 0 0
BITMAP
0FC3
3873
6019
601A
C00C
C00C
C00C
C00C
C00C
C00C
6018
6018
3870
0FC0
ENDCHAR
STARTCHAR ohorn
ENCODING 417
SWIDTH 500 0
DWIDTH 10 0
BBX 11 9 0 0
BITMAP
3E60
6360
C1A0
C1C0
C180
C180
C180
6300
3E00
ENDCHAR
STARTCHAR uni01A7
ENCODING 423
SWIDTH 630 0
DWIDTH 11 0
BBX 10 14 0 0
BITMAP
5F00
6180
40C0
40C0
00C0
03C0
1F80
7E00
F000
C040
C040
C0C0
61C0
3F40
ENDCHAR
STARTCHAR uni01A8
ENCODING 424
SWIDTH 463 0
DWIDTH 8 0
BBX 7 9 0 0
BITMAP
BC
C6
82
0E
7C
E0
82
C6
7A
ENDCHAR
STARTCHAR uni01AE
ENCODING 430
SWIDTH 667 0
DWIDTH 13 0
BBX 12 18 0 -4
BITMAP
FFF0
C630
8610
8610
8610
0600
0600
0600
0600
0600
0600
0600
0600
0600
0600
0660
0260
01C0
ENDCHAR
STARTCHAR Uhorn
ENCODING 431
SWIDTH 815 0
DWIDTH 15 0
BBX 16 14 0 0
BITMAP
FC7F
3013
3011
3012
3014
3010
3010
3010
3010
3010
3010
3010
1820
0FC0
ENDCHAR
STARTCHAR uhorn
ENCODING 432
SWIDTH 611 0
DWIDTH 11 0
BBX 12 9 0 0
BITMAP
E3B0
61B0
6190
61A0
61C0
6180
6180
7380
3DC0
ENDCHAR
STARTCHAR uni01B5
ENCODING 437
SWIDTH 611 0
DWIDTH 11 0
BBX 10 14 0 0
BITMAP
FFC0
C0C0
8180
8380
8300
0600
3F00
1C00
1800
3040
7040
6040
C0C0
FFC0
ENDCHAR
STARTCHAR uni01B6
ENCODING 438
SWIDTH 481 0
DWIDTH 8 0
BBX 7 9 0 0
BITMAP
FE
86
8C
18
7E
30
62
C6
FE
ENDCHAR
STARTCHAR uni01BB
ENCODING 443
SWIDTH 556 0
DWIDTH 10 0
BBX 9 14 0 0
BITMAP
1E00
6300
C180
C180
0180
0180
FF80
0600
0C00
1800
3080
6080
FF80
FF80
ENDCHAR
STARTCHAR uni01BC
ENCODING 444
SWIDTH 556 0
DWIDTH 10 0
BBX 9 14 0 0
BITMAP
7F80
7F00
4000
4000
4000
5E00
6300
4180
0180
0180
0180
C180
C300
7E00
ENDCHAR
STARTCHAR uni01C0
ENCODING 448
SWIDTH 606 0
DWIDTH 11 0
BBX 2 14 4 0
BITMAP
C0
C0
C0
C0
C0
C0
C0
C0
C0
C0
C0
C0
C0
C0
ENDCHAR
STARTCHAR uni01C2
ENCODING 450
SWIDTH 606 0
DWIDTH 10 0
BBX 9 14 0 -1
BITMAP
0C00
0C00
0C00
0C00
0C00
FF80
0C00
0C00
FF80
0C00
0C00
0C00
0C00
0C00
ENDCHAR
STARTCHAR uni01C3
ENCODING 451
SWIDTH 296 0
DWIDTH 5 0
BBX 2 14 1 0
BITMAP
C0
C0
C0
C0
C0
C0
C0
80
80
80
00
00
C0
C0
ENDCHAR
STARTCHAR uni01CD
ENCODING 461
SWIDTH 722 0
DWIDTH 13 0
BBX 14 19 -1 0
BITMAP
0820
0440
0380
0100
0000
0300
0300
0300
0580
0580
0580
08C0
08C0
1FE0
1060
1060
2030
2030
F8FC
ENDCHAR
STARTCHAR uni01CE
ENCODING 462
SWIDTH 556 0
DWIDTH 10 0
BBX 9 14 0 0
BITMAP
4100
2200
1C00
0800
0000
1C00
6200
6300
0300
1F00
6300
C300
C700
7980
ENDCHAR
STARTCHAR uni01CF
ENCODING 463
SWIDTH 407 0
DWIDTH 7 0
BBX 7 19 0 0
BITMAP
82
44
38
10
00
FC
30
30
30
30
30
30
30
30
30
30
30
30
FC
ENDCHAR
STARTCHAR uni01D0
ENCODING 464
SWIDTH 315 0
DWIDTH 5 0
BBX 7 14 -2 0
BITMAP
82
44
38
10
00
38
18
18
18
18
18
18
18
3C
ENDCHAR
STARTCHAR uni01D1
ENCODING 465
SWIDTH 778 0
DWIDTH 15 0
BBX 14 19 0 0
BITMAP
0820
0440
0380
0100
0000
0FC0
3870
6018
6018
C00C
C00C
C00C
C00C
C00C
C00C
6018
6018
3870
0FC0
ENDCHAR
STARTCHAR uni01D2
ENCODING 466
SWIDTH 500 0
DWIDTH 10 0
BBX 9 14 0 0
BITMAP
4100
2200
1C00
0800
0000
3E00
6300
C180
C180
C180
C180
C180
6300
3E00
ENDCHAR
STARTCHAR uni01D3
ENCODING 467
SWIDTH 815 0
DWIDTH 15 0
BBX 14 19 0 0
BITMAP
1040
0880
0700
0200
0000
FC7C
3010
3010
3010
3010
3010
3010
3010
3010
3010
3010
3010
1820
0FC0
ENDCHAR
STARTCHAR uni01D4
ENCODING 468
SWIDTH 611 0
DWIDTH 11 0
BBX 10 14 0 0
BITMAP
4100
2200
1C00
0800
0000
E380
6180
6180
6180
6180
6180
6180
7380
3DC0
ENDCHAR
STARTCHAR uni01D5
ENCODING 469
SWIDTH 815 0
DWIDTH 15 0
BBX 14 19 0 0
BITMAP
0FC0
0000
0C60
0C60
0000
FC7C
3010
3010
3010
3010
3010
3010
3010
3010
3010
3010
3010
1820
0FC0
ENDCHAR
STARTCHAR uni01D6
ENCODING 470
SWIDTH 611 0
DWIDTH 11 0
BBX 10 14 0 0
BITMAP
3F00
0000
3300
3300
0000
E3C0
6180
6180
6180
6180
6180
6180
7380
3DC0
ENDCHAR
STARTCHAR uni01D7
ENCODING 471
SWIDTH 815 0
DWIDTH 15 0
BBX 14 21 0 0
BITMAP
00C0
0180
0200
0000
0C60
0C60
0000
FC7C
3010
3010
3010
3010
3010
3010
3010
3010
3010
3010
3010
1820
0FC0
ENDCHAR
STARTCHAR uni01D8
ENCODING 472
SWIDTH 611 0
DWIDTH 11 0
BBX 10 16 0 0
BITMAP
0300
0600
0800
0000
3300
3300
0000
E3C0
6180
6180
6180
6180
6180
6180
7380
3DC0
ENDCHAR
STARTCHAR uni01D9
ENCODING 473
SWIDTH 815 0
DWIDTH 15 0
BBX 14 22 0 0
BITMAP
1040
0880
0700
0200
0000
0C60
0C60
0000
FC7C
3010
3010
3010
3010
3010
3010
3010
3010
3010
3010
3010
1820
0FC0
ENDCHAR
STARTCHAR uni01DA
ENCODING 474
SWIDTH 611 0
DWIDTH 11 0
BBX 10 17 0 0
BITMAP
2080
1100
0E00
0400
0000
3300
3300
0000
E3C0
6180
6180
6180
6180
6180
6180
7380
3DC0
ENDCHAR
STARTCHAR uni01DB
ENCODING 475
SWIDTH 815 0
DWIDTH 15 0
BBX 14 21 0 0
BITMAP
0C00
0600
0100
0000
0C60
0C60
0000
FC7C
3010
3010
3010
3010
3010
3010
3010
3010
3010
3010
3010
1820
0FC0
ENDCHAR
STARTCHAR uni01DC
ENCODING 476
SWIDTH 611 0
DWIDTH 11 0
BBX 10 16 0 0
BITMAP
3000
1800
0400
0000
3300
3300
0000
E3C0
6180
6180
6180
6180
6180
6180
7380
3DC0
ENDCHAR
STARTCHAR uni01DD
ENCODING 477
SWIDTH 500 0
DWIDTH 9 0
BBX 8 9 0 0
BITMAP
7C
C6
83
03
FF
C3
C3
66
3C
ENDCHAR
STARTCHAR uni01DE
ENCODING 478
SWIDTH 722 0
DWIDTH 13 0
BBX 14 19 -1 0
BITMAP
0FC0
0000
0CC0
0CC0
0000
0300
0300
0300
0580
0580
0580
08C0
08C0
1FE0
1060
1060
2030
2030
F8FC
ENDCHAR
STARTCHAR uni01DF
ENCODING 479
SWIDTH 556 0
DWIDTH 10 0
BBX 9 14 0 0
BITMAP
7E00
0000
6600
6600
0000
1C00
6200
6300
0300
1F00
6300
C300
C700
7980
ENDCHAR
STARTCHAR uni01E0
ENCODING 480
SWIDTH 722 0
DWIDTH 13 0
BBX 14 19 -1 0
BITMAP
0FC0
0000
0300
0300
0000
0300
0300
0300
0580
0580
0580
08C0
08C0
1FE0
1060
1060
2030
2030
F8FC
ENDCHAR
STARTCHAR uni01E1
ENCODING 481
SWIDTH 556 0
DWIDTH 10 0
BBX 9 14 0 0
BITMAP
7E00
0000
1800
1800
0000
1C00
6200
6300
0300
1F00
6300
C300
C700
7980
ENDCHAR
STARTCHAR uni01E2
ENCODING 482
SWIDTH 1000 0
DWIDTH 18 0
BBX 18 16 -1 0
BITMAP
00FC00
000000
07FFC0
0160C0
026040
026040
046240
046200
087E00
086200
1FE200
106040
206040
206040
6060C0
F1FFC0
ENDCHAR
STARTCHAR uni01E3
ENCODING 483
SWIDTH 796 0
DWIDTH 16 0
BBX 15 11 0 0
BITMAP
07E0
0000
1CF8
638C
6306
0306
1FFE
6300
C300
C586
78FC
ENDCHAR
STARTCHAR uni01E4
ENCODING 484
SWIDTH 778 0
DWIDTH 15 0
BBX 15 14 0 0
BITMAP
0FC8
3878
6018
6008
C008
C000
C000
C000
C07C
C018
6018
607E
3878
0FC8
ENDCHAR
STARTCHAR uni01E5
ENCODING 485
SWIDTH 537 0
DWIDTH 11 0
BBX 10 14 0 -4
BITMAP
00C0
1FC0
3300
6180
6180
3300
3E00
4000
7F00
3F80
FFC0
80C0
C180
7F00
ENDCHAR
STARTCHAR Gcaron
ENCODING 486
SWIDTH 778 0
DWIDTH 15 0
BBX 14 19 0 0
BITMAP
0820
0440
0380
0100
0000
0FC8
3878
6018
6008
C008
C000
C000
C000
C07C
C018
6018
6018
3878
0FC8
ENDCHAR
STARTCHAR gcaron
ENCODING 487
SWIDTH 537 0
DWIDTH 11 0
BBX 10 19 0 -4
BITMAP
2080
1100
0E00
0400
0000
00C0
1FC0
3300
6180
6180
3300
3E00
4000
7F00
3F80
41C0
80C0
C180
7F00
ENDCHAR
STARTCHAR uni01E8
ENCODING 488
SWIDTH 778 0
DWIDTH 15 0
BBX 15 19 0 0
BITMAP
1040
0880
0700
0200
0000
FCF8
3060
3040
3080
3100
3200
3600
3F00
3380
31C0
30E0
3070
3038
FCFE
ENDCHAR
STARTCHAR uni01E9
ENCODING 489
SWIDTH 593 0
DWIDTH 10 0
BBX 11 19 -1 0
BITMAP
8200
4400
3800
1000
0000
7000
3000
3000
3000
3000
33C0
3100
3200
3400
3C00
3600
3300
3180
7BE0
ENDCHAR
STARTCHAR uni01EA
ENCODING 490
SWIDTH 778 0
DWIDTH 15 0
BBX 14 17 0 -3
BITMAP
0FC0
3870
6018
6018
C00C
C00C
C00C
C00C
C00C
C00C
6018
6018
3870
0FC0
0200
0340
0180
ENDCHAR
STARTCHAR uni01EB
ENCODING 491
SWIDTH 500 0
DWIDTH 10 0
BBX 9 12 0 -3
BITMAP
3E00
6300
C180
C180
C180
C180
C180
6300
3E00
1000
1A00
0C00
ENDCHAR
STARTCHAR uni01EC
ENCODING 492
SWIDTH 778 0
DWIDTH 15 0
BBX 14 19 0 -3
BITMAP
0FC0
0000
0FC0
3870
6018
6018
C00C
C00C
C00C
C00C
C00C
C00C
6018
6018
3870
0FC0
0200
0340
0180
ENDCHAR
STARTCHAR uni01ED
ENCODING 493
SWIDTH 500 0
DWIDTH 10 0
BBX 9 14 0 -3
BITMAP
3F00
0000
3E00
6300
C180
C180
C180
C180
C180
6300
3E00
1000
1A00
0C00
ENDCHAR
STARTCHAR uni01F0
ENCODING 496
SWIDTH 296 0
DWIDTH 5 0
BBX 8 18 -3 -4
BITMAP
41
22
1C
08
00
1C
0C
0C
0C
0C
0C
0C
0C
0C
0C
CC
C8
70
ENDCHAR
STARTCHAR uni01F4
ENCODING 500
SWIDTH 778 0
DWIDTH 15 0
BBX 14 18 0 0
BITMAP
00C0
0180
0200
0000
0FC8
3878
6018
6008
C008
C000
C000
C000
C07C
C018
6018
6018
3878
0FC8
ENDCHAR
STARTCHAR uni01F5
ENCODING 501
SWIDTH 537 0
DWIDTH 11 0
BBX 10 18 0 -4
BITMAP
0180
0300
0400
0000
00C0
1FC0
3300
6180
6180
3300
3E00
4000
7F00
3F80
41C0
80C0
C180
7F00
ENDCHAR
STARTCHAR uni01F8
ENCODING 504
SWIDTH 815 0
DWIDTH 15 0
BBX 14 18 0 0
BITMAP
0C00
0600
0100
0000
F07C
3010
3810
3C10
2E10
2610
2310
2390
2190
20D0
20F0
2070
2030
F810
ENDCHAR
STARTCHAR uni01F9
ENCODING 505
SWIDTH 611 0
DWIDTH 11 0
BBX 10 13 0 0
BITMAP
3000
1800
0400
0000
EF00
7380
6180
6180
6180
6180
6180
6180
F3C0
ENDCHAR
STARTCHAR Aringacute
ENCODING 506
SWIDTH 722 0
DWIDTH 13 0
BBX 14 23 -1 0
BITMAP
00C0
0180
0200
0000
0300
0480
0480
0300
0000
0300
0300
0300
0580
0580
0580
08C0
08C0
1FE0
1060
1060
2030
2030
F8FC
ENDCHAR
STARTCHAR aringacute
ENCODING 507
SWIDTH 556 0
DWIDTH 10 0
BBX 9 18 0 0
BITMAP
0600
0C00
1000
0000
1800
2400
2400
1800
0000
1C00
6200
6300
0300
1F00
6300
C300
C700
7980
ENDCHAR
STARTCHAR AEacute
ENCODING 508
SWIDTH 1000 0
DWIDTH 18 0
BBX 18 18 -1 0
BITMAP
000C00
001800
002000
000000
07FFC0
0160C0
026040
026040
046240
046200
087E00
086200
1FE200
106040
206040
206040
6060C0
F1FFC0
ENDCHAR
STARTCHAR aeacute
ENCODING 509
SWIDTH 796 0
DWIDTH 16 0
BBX 15 13 0 0
BITMAP
0060
00C0
0100
0000
1CF8
638C
6306
0306
1FFE
6300
C300
C586
78FC
ENDCHAR
STARTCHAR Oslashacute
ENCODING 510
SWIDTH 778 0
DWIDTH 15 0
BBX 15 18 -1 0
BITMAP
0060
00C0
0100
0000
07E4
1C38
301C
302C
6046
6086
6106
6206
6406
6806
300C
300C
5C38
87E0
ENDCHAR
STARTCHAR oslashacute
ENCODING 511
SWIDTH 500 0
DWIDTH 10 0
BBX 9 16 0 -2
BITMAP
0300
0600
0800
0000
0080
3E80
6300
C580
C580
C980
C980
D180
7300
3E00
4000
4000
ENDCHAR
STARTCHAR uni0200
ENCODING 512
SWIDTH 722 0
DWIDTH 13 0
BBX 14 19 -1 0
BITMAP
3300
1980
0440
0220
0000
0300
0300
0300
0580
0580
0580
08C0
08C0
1FE0
1060
1060
2030
2030
F8FC
ENDCHAR
STARTCHAR uni0201
ENCODING 513
SWIDTH 556 0
DWIDTH 10 0
BBX 10 14 -1 0
BITMAP
CC00
6600
1100
0880
0000
0E00
3100
3180
0180
0F80
3180
6180
6380
3CC0
ENDCHAR
STARTCHAR uni0202
ENCODING 514
SWIDTH 722 0
DWIDTH 13 0
BBX 14 17 -1 0
BITMAP
0380
0440
0000
0300
0300
0300
0580
0580
0580
08C0
08C0
1FE0
1060
1060
2030
2030
F8FC
ENDCHAR
STARTCHAR uni0203
ENCODING 515
SWIDTH 556 0
DWIDTH 10 0
BBX 9 12 0 0
BITMAP
1C00
2200
0000
1C00
6200
6300
0300
1F00
6300
C300
C700
7980
ENDCHAR
STARTCHAR uni0204
ENCODING 516
SWIDTH 722 0
DWIDTH 12 0
BBX 11 19 0 0
BITMAP
CC00
6600
1100
0880
0000
FFE0
3060
3020
3020
3120
3100
3F00
3100
3100
3020
3020
3020
3060
FFE0
ENDCHAR
STARTCHAR uni0205
ENCODING 517
SWIDTH 500 0
DWIDTH 9 0
BBX 9 14 -1 0
BITMAP
CC00
6600
1100
0880
0000
1E00
3300
6180
6180
7F80
6000
6080
3180
1F00
ENDCHAR
STARTCHAR uni0206
ENCODING 518
SWIDTH 722 0
DWIDTH 12 0
BBX 11 17 0 0
BITMAP
0E00
1100
0000
FFE0
3060
3020
3020
3120
3100
3F00
3100
3100
3020
3020
3020
3060
FFE0
ENDCHAR
STARTCHAR uni0207
ENCODING 519
SWIDTH 500 0
DWIDTH 9 0
BBX 8 12 0 0
BITMAP
1C
22
00
3C
66
C3
C3
FF
C0
C1
63
3E
ENDCHAR
STARTCHAR uni0208
ENCODING 520
SWIDTH 407 0
DWIDTH 7 0
BBX 9 19 -2 0
BITMAP
CC00
6600
1100
0880
0000
3F00
0C00
0C00
0C00
0C00
0C00
0C00
0C00
0C00
0C00
0C00
0C00
0C00
3F00
ENDCHAR
STARTCHAR uni0209
ENCODING 521
SWIDTH 315 0
DWIDTH 5 0
BBX 9 14 -4 0
BITMAP
CC00
6600
1100
0880
0000
0E00
0600
0600
0600
0600
0600
0600
0600
0F00
ENDCHAR
STARTCHAR uni020A
ENCODING 522
SWIDTH 407 0
DWIDTH 7 0
BBX 6 17 0 0
BITMAP
38
44
00
FC
30
30
30
30
30
30
30
30
30
30
30
30
FC
ENDCHAR
STARTCHAR uni020B
ENCODING 523
SWIDTH 315 0
DWIDTH 5 0
BBX 5 12 -1 0
BITMAP
70
88
00
70
30
30
30
30
30
30
30
78
ENDCHAR
STARTCHAR uni020C
ENCODING 524
SWIDTH 778 0
DWIDTH 15 0
BBX 14 19 0 0
BITMAP
3300
1980
0440
0220
0000
0FC0
3870
6018
6018
C00C
C00C
C00C
C00C
C00C
C00C
6018
6018
3870
0FC0
ENDCHAR
STARTCHAR uni020D
ENCODING 525
SWIDTH 500 0
DWIDTH 10 0
BBX 10 14 -1 0
BITMAP
CC00
6600
1100
0880
0000
1F00
3180
60C0
60C0
60C0
60C0
60C0
3180
1F00
ENDCHAR
STARTCHAR uni020E
ENCODING 526
SWIDTH 778 0
DWIDTH 15 0
BBX 14 17 0 0
BITMAP
0380
0440
0000
0FC0
3870
6018
6018
C00C
C00C
C00C
C00C
C00C
C00C
6018
6018
3870
0FC0
ENDCHAR
STARTCHAR uni020F
ENCODING 527
SWIDTH 500 0
DWIDTH 10 0
BBX 9 12 0 0
BITMAP
1C00
2200
0000
3E00
6300
C180
C180
C180
C180
C180
6300
3E00
ENDCHAR
STARTCHAR uni0210
ENCODING 528
SWIDTH 722 0
DWIDTH 14 0
BBX 14 19 0 0
BITMAP
6600
3300
0880
0440
0000
FF80
30C0
3060
3060
3060
30C0
3F00
3180
30C0
30C0
30E0
3060
3074
F838
ENDCHAR
STARTCHAR uni0211
ENCODING 529
SWIDTH 444 0
DWIDTH 8 0
BBX 9 14 -2 0
BITMAP
CC00
6600
1100
0880
0000
3980
1B80
1C80
1800
1800
1800
1800
1800
3C00
ENDCHAR
STARTCHAR uni0212
ENCODING 530
SWIDTH 722 0
DWIDTH 14 0
BBX 14 17 0 0
BITMAP
0700
0880
0000
FF80
30C0
3060
3060
3060
30C0
3F00
3180
30C0
30C0
30E0
3060
3074
F838
ENDCHAR
STARTCHAR uni0213
ENCODING 531
SWIDTH 444 0
DWIDTH 8 0
BBX 7 12 0 0
BITMAP
38
44
00
E6
6E
72
60
60
60
60
60
F0
ENDCHAR
STARTCHAR uni0214
ENCODING 532
SWIDTH 815 0
DWIDTH 15 0
BBX 14 19 0 0
BITMAP
6600
3300
0880
0440
0000
FC7C
3010
3010
3010
3010
3010
3010
3010
3010
3010
3010
3010
1820
0FC0
ENDCHAR
STARTCHAR uni0215
ENCODING 533
SWIDTH 611 0
DWIDTH 11 0
BBX 11 14 -1 0
BITMAP
CC00
6600
1100
0880
0000
71C0
30C0
30C0
30C0
30C0
30C0
30C0
39C0
1EE0
ENDCHAR
STARTCHAR uni0216
ENCODING 534
SWIDTH 815 0
DWIDTH 15 0
BBX 14 17 0 0
BITMAP
0700
0880
0000
FC7C
3010
3010
3010
3010
3010
3010
3010
3010
3010
3010
3010
1820
0FC0
ENDCHAR
STARTCHAR uni0217
ENCODING 535
SWIDTH 611 0
DWIDTH 11 0
BBX 10 12 0 0
BITMAP
1C00
2200
0000
E380
6180
6180
6180
6180
6180
6180
7380
3DC0
ENDCHAR
STARTCHAR Scommaaccent
ENCODING 536
SWIDTH 630 0
DWIDTH 11 0
BBX 10 20 0 -6
BITMAP
3E80
6180
C080
C080
C000
F000
7E00
1F80
03C0
80C0
80C0
C0C0
E180
BF00
0000
0C00
0C00
0400
0800
1000
ENDCHAR
STARTCHAR scommaaccent
ENCODING 537
SWIDTH 463 0
DWIDTH 8 0
BBX 7 15 0 -6
BITMAP
7A
C6
82
E0
7C
0E
82
C6
BC
00
18
18
08
10
20
ENDCHAR
STARTCHAR Tcommaaccent
ENCODING 538
SWIDTH 667 0
DWIDTH 13 0
BBX 12 20 0 -6
BITMAP
FFF0
C630
8610
8610
8610
0600
0600
0600
0600
0600
0600
0600
0600
1F80
0000
0600
0600
0200
0400
0800
ENDCHAR
STARTCHAR tcommaaccent
ENCODING 539
SWIDTH 389 0
DWIDTH 6 0
BBX 6 18 0 -6
BITMAP
60
60
60
F8
60
60
60
60
60
60
64
38
00
30
30
10
20
40
ENDCHAR
STARTCHAR uni021E
ENCODING 542
SWIDTH 833 0
DWIDTH 16 0
BBX 15 19 0 0
BITMAP
0820
0440
0380
0100
0000
FC7E
3018
3018
3018
3018
3018
3FF8
3018
3018
3018
3018
3018
3018
FC7E
ENDCHAR
STARTCHAR uni021F
ENCODING 543
SWIDTH 611 0
DWIDTH 11 0
BBX 11 19 -1 0
BITMAP
8200
4400
3800
1000
0000
7000
3000
3000
3000
3000
3780
39C0
30C0
30C0
30C0
30C0
30C0
30C0
79E0
ENDCHAR
STARTCHAR uni0226
ENCODING 550
SWIDTH 722 0
DWIDTH 13 0
BBX 14 17 -1 0
BITMAP
0300
0300
0000
0300
0300
0300
0580
0580
0580
08C0
08C0
1FE0
1060
1060
2030
2030
F8FC
ENDCHAR
STARTCHAR uni0227
ENCODING 551
SWIDTH 556 0
DWIDTH 10 0
BBX 9 12 0 0
BITMAP
1800
1800
0000
1C00
6200
6300
0300
1F00
6300
C300
C700
7980
ENDCHAR
STARTCHAR uni0228
ENCODING 552
SWIDTH 722 0
DWIDTH 12 0
BBX 11 18 0 -4
BITMAP
FFE0
3060
3020
3020
3120
3100
3F00
3100
3100
3020
3020
3020
3060
FFE0
0800
0E00
0200
1C00
ENDCHAR
STARTCHAR uni0229
ENCODING 553
SWIDTH 500 0
DWIDTH 9 0
BBX 8 13 0 -4
BITMAP
3C
66
C3
C3
FF
C0
C1
63
3E
10
1C
04
38
ENDCHAR
STARTCHAR uni022A
ENCODING 554
SWIDTH 778 0
DWIDTH 15 0
BBX 14 19 0 0
BITMAP
0FC0
0000
0CC0
0CC0
0000
0FC0
3870
6018
6018
C00C
C00C
C00C
C00C
C00C
C00C
6018
6018
3870
0FC0
ENDCHAR
STARTCHAR uni022B
ENCODING 555
SWIDTH 500 0
DWIDTH 10 0
BBX 9 14 0 0
BITMAP
3F00
0000
6300
6300
0000
3E00
6300
C180
C180
C180
C180
C180
6300
3E00
ENDCHAR
STARTCHAR uni022C
ENCODING 556
SWIDTH 778 0
DWIDTH 15 0
BBX 14 19 0 0
BITMAP
0FC0
0000
0740
0B80
0000
0FC0
3870
6018
6018
C00C
C00C
C00C
C00C
C00C
C00C
6018
6018
3870
0FC0
ENDCHAR
STARTCHAR uni022D
ENCODING 557
SWIDTH 500 0
DWIDTH 10 0
BBX 9 14 0 0
BITMAP
7E00
0000
3A00
5C00
0000
3E00
6300
C180
C180
C180
C180
C180
6300
3E00
ENDCHAR
STARTCHAR uni022E
ENCODING 558
SWIDTH 778 0
DWIDTH 15 0
BBX 14 17 0 0
BITMAP
0300
0300
0000
0FC0
3870
6018
6018
C00C
C00C
C00C
C00C
C00C
C00C
6018
6018
3870
0FC0
ENDCHAR
STARTCHAR uni022F
ENCODING 559
SWIDTH 500 0
DWIDTH 10 0
BBX 9 12 0 0
BITMAP
0C00
0C00
0000
3E00
6300
C180
C180
C180
C180
C180
6300
3E00
ENDCHAR
STARTCHAR uni0230
ENCODING 560
SWIDTH 778 0
DWIDTH 15 0
BBX 14 19 0 0
BITMAP
0FC0
0000
0300
0300
0000
0FC0
3870
6018
6018
C00C
C00C
C00C
C00C
C00C
C00C
6018
6018
3870
0FC0
ENDCHAR
STARTCHAR uni0231
ENCODING 561
SWIDTH 500 0
DWIDTH 10 0
BBX 9 14 0 0
BITMAP
3F00
0000
0C00
0C00
0000
3E00
6300
C180
C180
C180
C180
C180
6300
3E00
ENDCHAR
STARTCHAR uni0232
ENCODING 562
SWIDTH 704 0
DWIDTH 13 0
BBX 14 16 -1 0
BITMAP
0FC0
0000
FC7C
3010
1820
1820
0C40
0C40
0680
0780
0300
0300
0300
0300
0300
0FC0
ENDCHAR
STARTCHAR uni0233
ENCODING 563
SWIDTH 537 0
DWIDTH 11 0
BBX 10 15 0 -4
BITMAP
3F00
0000
F1C0
6080
3100
3100
1A00
1A00
0C00
0C00
0800
0800
1000
D000
E000
ENDCHAR
STARTCHAR uni0250
ENCODING 592
SWIDTH 556 0
DWIDTH 10 0
BBX 9 9 0 0
BITMAP
CF00
7180
6180
6300
7C00
6000
6300
2300
1C00
ENDCHAR
STARTCHAR uni0254
ENCODING 596
SWIDTH 444 0
DWIDTH 9 0
BBX 8 9 0 0
BITMAP
3C
C6
C3
03
03
03
83
C6
7C
ENDCHAR
STARTCHAR uni0258
ENCODING 600
SWIDTH 500 0
DWIDTH 9 0
BBX 8 9 0 0
BITMAP
3C
66
C3
C3
FF
03
83
C6
7C
ENDCHAR
STARTCHAR uni0259
ENCODING 601
SWIDTH 500 0
DWIDTH 9 0
BBX 8 9 0 0
BITMAP
7C
C6
83
03
FF
C3
C3
66
3C
ENDCHAR
STARTCHAR uni025F
ENCODING 607
SWIDTH 333 0
DWIDTH 7 0
BBX 8 14 0 -5
BITMAP
1E
0C
0C
0C
0C
0C
0C
0C
3F
0C
0C
CC
D8
70
ENDCHAR
STARTCHAR uni0265
ENCODING 613
SWIDTH 611 0
DWIDTH 11 0
BBX 10 14 0 -5
BITMAP
F3C0
6180
6180
6180
6180
6180
6180
7380
3D80
0180
0180
0180
0180
01C0
ENDCHAR
STARTCHAR uni0275
ENCODING 629
SWIDTH 500 0
DWIDTH 10 0
BBX 9 9 0 0
BITMAP
3E00
6300
C180
C180
FF80
C180
C180
6300
3E00
ENDCHAR
STARTCHAR uni0279
ENCODING 633
SWIDTH 444 0
DWIDTH 8 0
BBX 7 9 0 0
BITMAP
1E
0C
0C
0C
0C
0C
9C
EC
CE
ENDCHAR
STARTCHAR uni0287
ENCODING 647
SWIDTH 389 0
DWIDTH 6 0
BBX 6 12 0 0
BITMAP
70
98
18
18
18
18
18
18
7C
18
18
18
ENDCHAR
STARTCHAR uni0288
ENCODING 648
SWIDTH 389 0
DWIDTH 6 0
BBX 7 16 0 -4
BITMAP
60
60
60
F8
60
60
60
60
60
60
60
60
60
66
26
1C
ENDCHAR
STARTCHAR uni0289
ENCODING 649
SWIDTH 611 0
DWIDTH 11 0
BBX 10 9 0 0
BITMAP
E380
6180
6180
6180
FFC0
6180
6180
7380
3DC0
ENDCHAR
STARTCHAR uni028C
ENCODING 652
SWIDTH 537 0
DWIDTH 11 0
BBX 10 9 0 0
BITMAP
0C00
0C00
1E00
1600
2300
2300
4180
4180
E3C0
ENDCHAR
STARTCHAR uni028D
ENCODING 653
SWIDTH 778 0
DWIDTH 16 0
BBX 15 9 0 0
BITMAP
0820
1C70
1C70
1658
2698
2698
430C
430C
F7DE
ENDCHAR
STARTCHAR uni028E
ENCODING 654
SWIDTH 537 0
DWIDTH 11 0
BBX 10 13 0 0
BITMAP
01C0
02C0
0200
0400
0400
0C00
0C00
1600
1600
2300
2300
4180
E3C0
ENDCHAR
STARTCHAR uni029E
ENCODING 670
SWIDTH 593 0
DWIDTH 10 0
BBX 10 14 0 -5
BITMAP
FBC0
3180
1980
0D80
0780
0580
0980
1180
7980
0180
0180
0180
0180
01C0
ENDCHAR
STARTCHAR uni02BB
ENCODING 699
SWIDTH 204 0
DWIDTH 4 0
BBX 3 5 0 9
BITMAP
20
40
80
C0
C0
ENDCHAR
STARTCHAR afii57929
ENCODING 700
SWIDTH 204 0
DWIDTH 4 0
BBX 3 5 0 9
BITMAP
60
60
20
40
80
ENDCHAR
STARTCHAR afii64937
ENCODING 701
SWIDTH 204 0
DWIDTH 4 0
BBX 3 5 0 9
BITMAP
C0
C0
80
40
20
ENDCHAR
STARTCHAR circumflex
ENCODING 710
SWIDTH 333 0
DWIDTH 8 0
BBX 6 3 1 11
BITMAP
30
78
84
ENDCHAR
STARTCHAR caron
ENCODING 711
SWIDTH 333 0
DWIDTH 8 0
BBX 7 4 0 10
BITMAP
82
44
38
10
ENDCHAR
STARTCHAR uni02C8
ENCODING 712
SWIDTH 204 0
DWIDTH 4 0
BBX 1 5 1 9
BITMAP
80
80
80
80
80
ENDCHAR
STARTCHAR macron
ENCODING 713
SWIDTH 333 0
DWIDTH 7 0
BBX 6 1 0 10
BITMAP
FC
ENDCHAR
STARTCHAR uni02CA
ENCODING 714
SWIDTH 333 0
DWIDTH 6 0
BBX 4 3 1 11
BITMAP
30
60
80
ENDCHAR
STARTCHAR uni02CB
ENCODING 715
SWIDTH 333 0
DWIDTH 6 0
BBX 4 3 1 10
BITMAP
C0
60
10
ENDCHAR
STARTCHAR uni02CD
ENCODING 717
SWIDTH 333 0
DWIDTH 7 0
BBX 6 1 0 -2
BITMAP
FC
ENDCHAR
STARTCHAR uni02CE
ENCODING 718
SWIDTH 333 0
DWIDTH 6 0
BBX 4 3 1 -4
BITMAP
C0
60
10
ENDCHAR
STARTCHAR uni02CF
ENCODING 719
SWIDTH 333 0
DWIDTH 6 0
BBX 4 3 1 -4
BITMAP
30
60
80
ENDCHAR
STARTCHAR breve
ENCODING 728
SWIDTH 333 0
DWIDTH 6 0
BBX 5 2 0 10
BITMAP
88
70
ENDCHAR
STARTCHAR dotaccent
ENCODING 729
SWIDTH 333 0
DWIDTH 7 0
BBX 2 2 2 10
BITMAP
C0
C0
ENDCHAR
STARTCHAR ring
ENCODING 730
SWIDTH 333 0
DWIDTH 6 0
BBX 4 4 1 10
BITMAP
60
90
90
60
ENDCHAR
STARTCHAR ogonek
ENCODING 731
SWIDTH 333 0
DWIDTH 6 0
BBX 4 4 1 -3
BITMAP
40
80
D0
60
ENDCHAR
STARTCHAR tilde
ENCODING 732
SWIDTH 333 0
DWIDTH 7 0
BBX 6 2 0 10
BITMAP
74
B8
ENDCHAR
STARTCHAR hungarumlaut
ENCODING 733
SWIDTH 333 0
DWIDTH 10 0
BBX 9 4 0 10
BITMAP
1980
3300
4400
8800
ENDCHAR
STARTCHAR uni02EE
ENCODING 750
SWIDTH 389 0
DWIDTH 8 0
BBX 7 5 0 9
BITMAP
66
66
22
44
88
ENDCHAR
STARTCHAR uni037E
ENCODING 894
SWIDTH 278 0
DWIDTH 5 0
BBX 3 12 0 -3
BITMAP
60
60
00
00
00
00
00
60
60
20
40
80
ENDCHAR
STARTCHAR tonos
ENCODING 900
SWIDTH 333 0
DWIDTH 6 0
BBX 4 3 1 11
BITMAP
30
60
80
ENDCHAR
STARTCHAR dieresistonos
ENCODING 901
SWIDTH 333 0
DWIDTH 7 0
BBX 6 6 0 10
BITMAP
0C
18
20
00
CC
CC
ENDCHAR
STARTCHAR anoteleia
ENCODING 903
SWIDTH 278 0
DWIDTH 5 0
BBX 2 2 1 5
BITMAP
C0
C0
ENDCHAR
STARTCHAR mu
ENCODING 956
SWIDTH 611 0
DWIDTH 11 0
BBX 10 13 0 -4
BITMAP
E3C0
6180
6180
6180
6180
6180
6180
7380
7DC0
4000
4000
6000
6000
ENDCHAR
STARTCHAR uni1E00
ENCODING 7680
SWIDTH 722 0
DWIDTH 13 0
BBX 14 19 -1 -5
BITMAP
0300
0300
0300
0580
0580
0580
08C0
08C0
1FE0
1060
1060
2030
2030
F8FC
0000
0300
0480
0480
0300
ENDCHAR
STARTCHAR uni1E01
ENCODING 7681
SWIDTH 556 0
DWIDTH 10 0
BBX 9 14 0 -5
BITMAP
1C00
6200
6300
0300
1F00
6300
C300
C700
7980
0000
1800
2400
2400
1800
ENDCHAR
STARTCHAR uni1E02
ENCODING 7682
SWIDTH 722 0
DWIDTH 13 0
BBX 12 17 0 0
BITMAP
0600
0600
0000
FF80
30C0
3060
3060
3060
30C0
3F80
3060
3030
3030
3030
3030
3060
FFC0
ENDCHAR
STARTCHAR uni1E03
ENCODING 7683
SWIDTH 556 0
DWIDTH 10 0
BBX 10 17 -1 0
BITMAP
3000
3000
0000
E000
6000
6000
6000
6000
6F00
7180
60C0
60C0
60C0
60C0
60C0
7180
4F00
ENDCHAR
STARTCHAR uni1E04
ENCODING 7684
SWIDTH 722 0
DWIDTH 13 0
BBX 12 17 0 -3
BITMAP
FF80
30C0
3060
3060
3060
30C0
3F80
3060
3030
3030
3030
3030
3060
FFC0
0000
0600
0600
ENDCHAR
STARTCHAR uni1E05
ENCODING 7685
SWIDTH 556 0
DWIDTH 10 0
BBX 10 17 -1 -3
BITMAP
E000
6000
6000
6000
6000
6F00
7180
60C0
60C0
60C0
60C0
60C0
7180
4F00
0000
0C00
0C00
ENDCHAR
STARTCHAR uni1E06
ENCODING 7686
SWIDTH 722 0
DWIDTH 13 0
BBX 12 16 0 -2
BITMAP
FF80
30C0
3060
3060
3060
30C0
3F80
3060
3030
3030
3030
3030
3060
FFC0
0000
1F80
ENDCHAR
STARTCHAR uni1E07
ENCODING 7687
SWIDTH 556 0
DWIDTH 10 0
BBX 10 16 -1 -2
BITMAP
E000
6000
6000
6000
6000
6F00
7180
60C0
60C0
60C0
60C0
60C0
7180
4F00
0000
3F00
ENDCHAR
STARTCHAR uni1E08
ENCODING 7688
SWIDTH 722 0
DWIDTH 13 0
BBX 12 22 0 -4
BITMAP
0180
0300
0400
0000
0F90
3870
6030
6010
C010
C000
C000
C000
C000
C000
6010
6010
3860
0FC0
0400
0700
0100
0E00
ENDCHAR
STARTCHAR uni1E09
ENCODING 7689
SWIDTH 444 0
DWIDTH 9 0
BBX 8 17 0 -4
BITMAP
06
0C
10
00
3C
63
C3
C0
C0
C0
C1
63
3E
10
1C
04
38
ENDCHAR
STARTCHAR uni1E0A
ENCODING 7690
SWIDTH 778 0
DWIDTH 15 0
BBX 14 17 0 0
BITMAP
0300
0300
0000
FFC0
3070
3018
3018
300C
300C
300C
300C
300C
300C
3018
3018
3070
FFC0
ENDCHAR
STARTCHAR uni1E0B
ENCODING 7691
SWIDTH 574 0
DWIDTH 11 0
BBX 10 17 0 0
BITMAP
0300
0300
0000
0380
0180
0180
0180
0180
3D80
6380
C180
C180
C180
C180
C180
6380
3DC0
ENDCHAR
STARTCHAR uni1E0C
ENCODING 7692
SWIDTH 778 0
DWIDTH 15 0
BBX 14 17 0 -3
BITMAP
FFC0
3070
3018
3018
300C
300C
300C
300C
300C
300C
3018
3018
3070
FFC0
0000
0300
0300
ENDCHAR
STARTCHAR uni1E0D
ENCODING 7693
SWIDTH 574 0
DWIDTH 11 0
BBX 10 17 0 -3
BITMAP
0380
0180
0180
0180
0180
3D80
6380
C180
C180
C180
C180
C180
6380
3DC0
0000
0C00
0C00
ENDCHAR
STARTCHAR uni1E0E
ENCODING 7694
SWIDTH 778 0
DWIDTH 15 0
BBX 14 16 0 -2
BITMAP
FFC0
3070
3018
3018
300C
300C
300C
300C
300C
300C
3018
3018
3070
FFC0
0000
0FC0
ENDCHAR
STARTCHAR uni1E0F
ENCODING 7695
SWIDTH 574 0
DWIDTH 11 0
BBX 10 16 0 -2
BITMAP
0380
0180
0180
0180
0180
3D80
6380
C180
C180
C180
C180
C180
6380
3DC0
0000
3F00
ENDCHAR
STARTCHAR uni1E10
ENCODING 7696
SWIDTH 778 0
DWIDTH 15 0
BBX 14 18 0 -4
BITMAP
FFC0
3070
3018
3018
300C
300C
300C
300C
300C
300C
3018
3018
3070
FFC0
0400
0700
0100
0E00
ENDCHAR
STARTCHAR uni1E11
ENCODING 7697
SWIDTH 574 0
DWIDTH 11 0
BBX 10 18 0 -4
BITMAP
0380
0180
0180
0180
0180
3D80
6380
C180
C180
C180
C180
C180
6380
3DC0
0800
0E00
0200
1C00
ENDCHAR
STARTCHAR uni1E12
ENCODING 7698
SWIDTH 778 0
DWIDTH 15 0
BBX 14 18 0 -4
BITMAP
FFC0
3070
3018
3018
300C
300C
300C
300C
300C
300C
3018
3018
3070
FFC0
0000
0300
0780
0840
ENDCHAR
STARTCHAR uni1E13
ENCODING 7699
SWIDTH 574 0
DWIDTH 11 0
BBX 10 18 0 -4
BITMAP
0380
0180
0180
0180
0180
3D80
6380
C180
C180
C180
C180
C180
6380
3DC0
0000
0C00
1E00
2100
ENDCHAR
STARTCHAR uni1E14
ENCODING 7700
SWIDTH 722 0
DWIDTH 12 0
BBX 11 20 0 0
BITMAP
1800
0C00
0200
0000
1F80
0000
FFE0
3060
3020
3020
3120
3100
3F00
3100
3100
3020
3020
3020
3060
FFE0
ENDCHAR
STARTCHAR uni1E15
ENCODING 7701
SWIDTH 500 0
DWIDTH 9 0
BBX 8 15 0 0
BITMAP
60
30
08
00
7E
00
3C
66
C3
C3
FF
C0
C1
63
3E
ENDCHAR
STARTCHAR uni1E16
ENCODING 7702
SWIDTH 722 0
DWIDTH 12 0
BBX 11 20 0 0
BITMAP
0180
0300
0400
0000
1F80
0000
FFE0
3060
3020
3020
3120
3100
3F00
3100
3100
3020
3020
3020
3060
FFE0
ENDCHAR
STARTCHAR uni1E17
ENCODING 7703
SWIDTH 500 0
DWIDTH 9 0
BBX 8 15 0 0
BITMAP
06
0C
10
00
7E
00
3C
66
C3
C3
FF
C0
C1
63
3E
ENDCHAR
STARTCHAR uni1E18
ENCODING 7704
SWIDTH 722 0
DWIDTH 12 0
BBX 11 18 0 -4
BITMAP
FFE0
3060
3020
3020
3120
3100
3F00
3100
3100
3020
3020
3020
3060
FFE0
0000
0600
0F00
1080
ENDCHAR
STARTCHAR uni1E19
ENCODING 7705
SWIDTH 500 0
DWIDTH 9 0
BBX 8 13 0 -4
BITMAP
3C
66
C3
C3
FF
C0
C1
63
3E
00
18
3C
42
ENDCHAR
STARTCHAR uni1E1A
ENCODING 7706
SWIDTH 722 0
DWIDTH 12 0
BBX 11 17 0 -3
BITMAP
FFE0
3060
3020
3020
3120
3100
3F00
3100
3100
3020
3020
3020
3060
FFE0
0000
1D00
2E00
ENDCHAR
STARTCHAR uni1E1B
ENCODING 7707
SWIDTH 500 0
DWIDTH 9 0
BBX 8 12 0 -3
BITMAP
3C
66
C3
C3
FF
C0
C1
63
3E
00
3A
5C
ENDCHAR
STARTCHAR uni1E1C
ENCODING 7708
SWIDTH 722 0
DWIDTH 12 0
BBX 11 21 0 -4
BITMAP
1100
0E00
0000
FFE0
3060
3020
3020
3120
3100
3F00
3100
3100
3020
3020
3020
3060
FFE0
0800
0E00
0200
1C00
ENDCHAR
STARTCHAR uni1E1D
ENCODING 7709
SWIDTH 500 0
DWIDTH 9 0
BBX 8 16 0 -4
BITMAP
22
1C
00
3C
66
C3
C3
FF
C0
C1
63
3E
10
1C
04
38
ENDCHAR
STARTCHAR uni1E1E
ENCODING 7710
SWIDTH 667 0
DWIDTH 12 0
BBX 11 17 0 0
BITMAP
0600
0600
0000
FFE0
3060
3020
3020
3120
3100
3F00
3100
3100
3000
3000
3000
3000
FC00
ENDCHAR
STARTCHAR uni1E1F
ENCODING 7711
SWIDTH 333 0
DWIDTH 7 0
BBX 8 17 0 0
BITMAP
0C
0C
00
0E
1B
33
30
30
FC
30
30
30
30
30
30
30
78
ENDCHAR
STARTCHAR uni1E20
ENCODING 7712
SWIDTH 778 0
DWIDTH 15 0
BBX 14 16 0 0
BITMAP
0FC0
0000
0FC8
3878
6018
6008
C008
C000
C000
C000
C07C
C018
6018
6018
3878
0FC8
ENDCHAR
STARTCHAR uni1E21
ENCODING 7713
SWIDTH 537 0
DWIDTH 11 0
BBX 10 16 0 -4
BITMAP
1F80
0000
00C0
1FC0
3300
6180
6180
3300
3E00
4000
7F00
3F80
41C0
80C0
C180
7F00
ENDCHAR
STARTCHAR uni1E22
ENCODING 7714
SWIDTH 833 0
DWIDTH 16 0
BBX 15 17 0 0
BITMAP
0180
0180
0000
FC7E
3018
3018
3018
3018
3018
3FF8
3018
3018
3018
3018
3018
3018
FC7E
ENDCHAR
STARTCHAR uni1E23
ENCODING 7715
SWIDTH 611 0
DWIDTH 11 0
BBX 10 17 0 0
BITMAP
3000
3000
0000
E000
6000
6000
6000
6000
6F00
7380
6180
6180
6180
6180
6180
6180
F3C0
ENDCHAR
STARTCHAR uni1E24
ENCODING 7716
SWIDTH 833 0
DWIDTH 16 0
BBX 15 17 0 -3
BITMAP
FC7E
3018
3018
3018
3018
3018
3FF8
3018
3018
3018
3018
3018
3018
FC7E
0000
0180
0180
ENDCHAR
STARTCHAR uni1E25
ENCODING 7717
SWIDTH 611 0
DWIDTH 11 0
BBX 10 17 0 -3
BITMAP
E000
6000
6000
6000
6000
6F00
7380
6180
6180
6180
6180
6180
6180
F3C0
0000
0C00
0C00
ENDCHAR
STARTCHAR uni1E26
ENCODING 7718
SWIDTH 833 0
DWIDTH 16 0
BBX 15 17 0 0
BITMAP
0660
0660
0000
FC7E
3018
3018
3018
3018
3018
3FF8
3018
3018
3018
3018
3018
3018
FC7E
ENDCHAR
STARTCHAR uni1E27
ENCODING 7719
SWIDTH 611 0
DWIDTH 11 0
BBX 10 17 0 0
BITMAP
CC00
CC00
0000
E000
6000
6000
6000
6000
6F00
7380
6180
6180
6180
6180
6180
6180
F3C0
ENDCHAR
STARTCHAR uni1E28
ENCODING 7720
SWIDTH 833 0
DWIDTH 16 0
BBX 15 18 0 -4
BITMAP
FC7E
3018
3018
3018
3018
3018
3FF8
3018
3018
3018
3018
3018
3018
FC7E
0200
0380
0080
0700
ENDCHAR
STARTCHAR uni1E29
ENCODING 7721
SWIDTH 611 0
DWIDTH 11 0
BBX 10 18 0 -4
BITMAP
E000
6000
6000
6000
6000
6F00
7380
6180
6180
6180
6180
6180
6180
F3C0
0800
0E00
0200
1C00
ENDCHAR
STARTCHAR uni1E2A
ENCODING 7722
SWIDTH 833 0
DWIDTH 16 0
BBX 15 17 0 -3
BITMAP
FC7E
3018
3018
3018
3018
3018
3FF8
3018
3018
3018
3018
3018
3018
FC7E
0000
0440
0380
ENDCHAR
STARTCHAR uni1E2B
ENCODING 7723
SWIDTH 611 0
DWIDTH 11 0
BBX 10 17 0 -3
BITMAP
E000
6000
6000
6000
6000
6F00
7380
6180
6180
6180
6180
6180
6180
F3C0
0000
1100
0E00
ENDCHAR
STARTCHAR uni1E2C
ENCODING 7724
SWIDTH 407 0
DWIDTH 7 0
BBX 6 17 0 -3
BITMAP
FC
30
30
30
30
30
30
30
30
30
30
30
30
FC
00
74
B8
ENDCHAR
STARTCHAR uni1E2D
ENCODING 7725
SWIDTH 315 0
DWIDTH 5 0
BBX 6 16 -1 -3
BITMAP
30
30
00
00
70
30
30
30
30
30
30
30
78
00
74
B8
ENDCHAR
STARTCHAR uni1E2E
ENCODING 7726
SWIDTH 407 0
DWIDTH 7 0
BBX 6 21 0 0
BITMAP
0C
18
20
00
CC
CC
00
FC
30
30
30
30
30
30
30
30
30
30
30
30
FC
ENDCHAR
STARTCHAR uni1E2F
ENCODING 7727
SWIDTH 315 0
DWIDTH 5 0
BBX 6 16 -1 0
BITMAP
0C
18
20
00
CC
CC
00
70
30
30
30
30
30
30
30
78
ENDCHAR
STARTCHAR uni1E30
ENCODING 7728
SWIDTH 778 0
DWIDTH 15 0
BBX 15 18 0 0
BITMAP
00C0
0180
0200
0000
FCF8
3060
3040
3080
3100
3200
3600
3F00
3380
31C0
30E0
3070
3038
FCFE
ENDCHAR
STARTCHAR uni1E31
ENCODING 7729
SWIDTH 593 0
DWIDTH 10 0
BBX 10 18 0 0
BITMAP
0C00
1800
2000
0000
E000
6000
6000
6000
6000
6780
6200
6400
6800
7800
6C00
6600
6300
F7C0
ENDCHAR
STARTCHAR uni1E32
ENCODING 7730
SWIDTH 778 0
DWIDTH 15 0
BBX 15 17 0 -3
BITMAP
FCF8
3060
3040
3080
3100
3200
3600
3F00
3380
31C0
30E0
3070
3038
FCFE
0000
0180
0180
ENDCHAR
STARTCHAR uni1E33
ENCODING 7731
SWIDTH 593 0
DWIDTH 10 0
BBX 10 17 0 -3
BITMAP
E000
6000
6000
6000
6000
6780
6200
6400
6800
7800
6C00
6600
6300
F7C0
0000
0C00
0C00
ENDCHAR
STARTCHAR uni1E34
ENCODING 7732
SWIDTH 778 0
DWIDTH 15 0
BBX 15 16 0 -2
BITMAP
FCF8
3060
3040
3080
3100
3200
3600
3F00
3380
31C0
30E0
3070
3038
FCFE
0000
07E0
ENDCHAR
STARTCHAR uni1E35
ENCODING 7733
SWIDTH 593 0
DWIDTH 10 0
BBX 10 16 0 -2
BITMAP
E000
6000
6000
6000
6000
6780
6200
6400
6800
7800
6C00
6600
6300
F7C0
0000
3F00
ENDCHAR
STARTCHAR uni1E36
ENCODING 7734
SWIDTH 667 0
DWIDTH 12 0
BBX 11 17 0 -3
BITMAP
FC00
3000
3000
3000
3000
3000
3000
3000
3000
3020
3020
3020
3060
FFE0
0000
0600
0600
ENDCHAR
STARTCHAR uni1E37
ENCODING 7735
SWIDTH 315 0
DWIDTH 5 0
BBX 4 17 0 -3
BITMAP
E0
60
60
60
60
60
60
60
60
60
60
60
60
F0
00
60
60
ENDCHAR
STARTCHAR uni1E38
ENCODING 7736
SWIDTH 667 0
DWIDTH 12 0
BBX 11 19 0 -3
BITMAP
7E00
0000
FC00
3000
3000
3000
3000
3000
3000
3000
3000
3020
3020
3020
3060
FFE0
0000
0600
0600
ENDCHAR
STARTCHAR uni1E39
ENCODING 7737
SWIDTH 315 0
DWIDTH 5 0
BBX 6 19 -1 -3
BITMAP
FC
00
70
30
30
30
30
30
30
30
30
30
30
30
30
78
00
30
30
ENDCHAR
STARTCHAR uni1E3A
ENCODING 7738
SWIDTH 667 0
DWIDTH 12 0
BBX 11 16 0 -2
BITMAP
FC00
3000
3000
3000
3000
3000
3000
3000
3000
3020
3020
3020
3060
FFE0
0000
1F80
ENDCHAR
STARTCHAR uni1E3B
ENCODING 7739
SWIDTH 315 0
DWIDTH 5 0
BBX 6 16 -1 -2
BITMAP
70
30
30
30
30
30
30
30
30
30
30
30
30
78
00
FC
ENDCHAR
STARTCHAR uni1E3C
ENCODING 7740
SWIDTH 667 0
DWIDTH 12 0
BBX 11 18 0 -4
BITMAP
FC00
3000
3000
3000
3000
3000
3000
3000
3000
3020
3020
3020
3060
FFE0
0000
0600
0F00
1080
ENDCHAR
STARTCHAR uni1E3D
ENCODING 7741
SWIDTH 315 0
DWIDTH 5 0
BBX 6 18 -1 -4
BITMAP
70
30
30
30
30
30
30
30
30
30
30
30
30
78
00
30
78
84
ENDCHAR
STARTCHAR uni1E3E
ENCODING 7742
SWIDTH 944 0
DWIDTH 18 0
BBX 17 18 0 0
BITMAP
003000
006000
008000
000000
F80F80
380E00
2C1600
2C1600
2C1600
262600
262600
262600
234600
234600
234600
218600
218600
F99F80
ENDCHAR
STARTCHAR uni1E3F
ENCODING 7743
SWIDTH 889 0
DWIDTH 17 0
BBX 16 13 0 0
BITMAP
0060
00C0
0100
0000
EF3C
73CE
6186
6186
6186
6186
6186
6186
F3CF
ENDCHAR
STARTCHAR uni1E40
ENCODING 7744
SWIDTH 944 0
DWIDTH 18 0
BBX 17 17 0 0
BITMAP
00C000
00C000
000000
F80F80
380E00
2C1600
2C1600
2C1600
262600
262600
262600
234600
234600
234600
218600
218600
F99F80
ENDCHAR
STARTCHAR uni1E41
ENCODING 7745
SWIDTH 889 0
DWIDTH 17 0
BBX 16 12 0 0
BITMAP
0180
0180
0000
EF3C
73CE
6186
6186
6186
6186
6186
6186
F3CF
ENDCHAR
STARTCHAR uni1E42
ENCODING 7746
SWIDTH 944 0
DWIDTH 18 0
BBX 17 17 0 -3
BITMAP
F80F80
380E00
2C1600
2C1600
2C1600
262600
262600
262600
234600
234600
234600
218600
218600
F99F80
000000
00C000
00C000
ENDCHAR
STARTCHAR uni1E43
ENCODING 7747
SWIDTH 889 0
DWIDTH 17 0
BBX 16 12 0 -3
BITMAP
EF3C
73CE
6186
6186
6186
6186
6186
6186
F3CF
0000
0180
0180
ENDCHAR
STARTCHAR uni1E44
ENCODING 7748
SWIDTH 815 0
DWIDTH 15 0
BBX 14 17 0 0
BITMAP
0300
0300
0000
F07C
3010
3810
3C10
2E10
2610
2310
2390
2190
20D0
20F0
2070
2030
F810
ENDCHAR
STARTCHAR uni1E45
ENCODING 7749
SWIDTH 611 0
DWIDTH 11 0
BBX 10 12 0 0
BITMAP
0C00
0C00
0000
EF00
7380
6180
6180
6180
6180
6180
6180
F3C0
ENDCHAR
STARTCHAR uni1E46
ENCODING 7750
SWIDTH 815 0
DWIDTH 15 0
BBX 14 17 0 -3
BITMAP
F07C
3010
3810
3C10
2E10
2610
2310
2390
2190
20D0
20F0
2070
2030
F810
0000
0300
0300
ENDCHAR
STARTCHAR uni1E47
ENCODING 7751
SWIDTH 611 0
DWIDTH 11 0
BBX 10 12 0 -3
BITMAP
EF00
7380
6180
6180
6180
6180
6180
6180
F3C0
0000
0C00
0C00
ENDCHAR
STARTCHAR uni1E48
ENCODING 7752
SWIDTH 815 0
DWIDTH 15 0
BBX 14 16 0 -2
BITMAP
F07C
3010
3810
3C10
2E10
2610
2310
2390
2190
20D0
20F0
2070
2030
F810
0000
0FC0
ENDCHAR
STARTCHAR uni1E49
ENCODING 7753
SWIDTH 611 0
DWIDTH 11 0
BBX 10 11 0 -2
BITMAP
EF00
7380
6180
6180
6180
6180
6180
6180
F3C0
0000
3F00
ENDCHAR
STARTCHAR uni1E4A
ENCODING 7754
SWIDTH 815 0
DWIDTH 15 0
BBX 14 18 0 -4
BITMAP
F07C
3010
3810
3C10
2E10
2610
2310
2390
2190
20D0
20F0
2070
2030
F810
0000
0300
0780
0840
ENDCHAR
STARTCHAR uni1E4B
ENCODING 7755
SWIDTH 611 0
DWIDTH 11 0
BBX 10 13 0 -4
BITMAP
EF00
7380
6180
6180
6180
6180
6180
6180
F3C0
0000
0C00
1E00
2100
ENDCHAR
STARTCHAR uni1E4C
ENCODING 7756
SWIDTH 778 0
DWIDTH 15 0
BBX 14 21 0 0
BITMAP
00C0
0180
0200
0000
0740
0B80
0000
0FC0
3870
6018
6018
C00C
C00C
C00C
C00C
C00C
C00C
6018
6018
3870
0FC0
ENDCHAR
STARTCHAR uni1E4D
ENCODING 7757
SWIDTH 500 0
DWIDTH 10 0
BBX 9 16 0 0
BITMAP
0600
0C00
1000
0000
3A00
5C00
0000
3E00
6300
C180
C180
C180
C180
C180
6300
3E00
ENDCHAR
STARTCHAR uni1E4E
ENCODING 7758
SWIDTH 778 0
DWIDTH 15 0
BBX 14 20 0 0
BITMAP
0CC0
0CC0
0000
0740
0B80
0000
0FC0
3870
6018
6018
C00C
C00C
C00C
C00C
C00C
C00C
6018
6018
3870
0FC0
ENDCHAR
STARTCHAR uni1E4F
ENCODING 7759
SWIDTH 500 0
DWIDTH 10 0
BBX 9 15 0 0
BITMAP
6600
6600
0000
3A00
5C00
0000
3E00
6300
C180
C180
C180
C180
C180
6300
3E00
ENDCHAR
STARTCHAR uni1E50
ENCODING 7760
SWIDTH 778 0
DWIDTH 15 0
BBX 14 20 0 0
BITMAP
0C00
0600
0100
0000
0FC0
0000
0FC0
3870
6018
6018
C00C
C00C
C00C
C00C
C00C
C00C
6018
6018
3870
0FC0
ENDCHAR
STARTCHAR uni1E51
ENCODING 7761
SWIDTH 500 0
DWIDTH 10 0
BBX 9 15 0 0
BITMAP
3000
1800
0400
0000
3F00
0000
3E00
6300
C180
C180
C180
C180
C180
6300
3E00
ENDCHAR
STARTCHAR uni1E52
ENCODING 7762
SWIDTH 778 0
DWIDTH 15 0
BBX 14 20 0 0
BITMAP
00C0
0180
0200
0000
0FC0
0000
0FC0
3870
6018
6018
C00C
C00C
C00C
C00C
C00C
C00C
6018
6018
3870
0FC0
ENDCHAR
STARTCHAR uni1E53
ENCODING 7763
SWIDTH 500 0
DWIDTH 10 0
BBX 9 15 0 0
BITMAP
0300
0600
0800
0000
3F00
0000
3E00
6300
C180
C180
C180
C180
C180
6300
3E00
ENDCHAR
STARTCHAR uni1E54
ENCODING 7764
SWIDTH 667 0
DWIDTH 12 0
BBX 11 18 0 0
BITMAP
0180
0300
0400
0000
FF80
30C0
3060
3060
3060
3060
30C0
3F00
3000
3000
3000
3000
3000
FC00
ENDCHAR
STARTCHAR uni1E55
ENCODING 7765
SWIDTH 574 0
DWIDTH 11 0
BBX 10 17 0 -4
BITMAP
0300
0600
0800
0000
EF00
7180
60C0
60C0
60C0
60C0
60C0
7180
6F00
6000
6000
6000
F000
ENDCHAR
STARTCHAR uni1E56
ENCODING 7766
SWIDTH 667 0
DWIDTH 12 0
BBX 11 17 0 0
BITMAP
0600
0600
0000
FF80
30C0
3060
3060
3060
3060
30C0
3F00
3000
3000
3000
3000
3000
FC00
ENDCHAR
STARTCHAR uni1E57
ENCODING 7767
SWIDTH 574 0
DWIDTH 11 0
BBX 10 16 0 -4
BITMAP
0C00
0C00
0000
EF00
7180
60C0
60C0
60C0
60C0
60C0
7180
6F00
6000
6000
6000
F000
ENDCHAR
STARTCHAR uni1E58
ENCODING 7768
SWIDTH 722 0
DWIDTH 14 0
BBX 14 17 0 0
BITMAP
0600
0600
0000
FF80
30C0
3060
3060
3060
30C0
3F00
3180
30C0
30C0
30E0
3060
3074
F838
ENDCHAR
STARTCHAR uni1E59
ENCODING 7769
SWIDTH 444 0
DWIDTH 8 0
BBX 7 12 0 0
BITMAP
18
18
00
E6
6E
72
60
60
60
60
60
F0
ENDCHAR
STARTCHAR uni1E5A
ENCODING 7770
SWIDTH 722 0
DWIDTH 14 0
BBX 14 17 0 -3
BITMAP
FF80
30C0
3060
3060
3060
30C0
3F00
3180
30C0
30C0
30E0
3060
3074
F838
0000
0300
0300
ENDCHAR
STARTCHAR uni1E5B
ENCODING 7771
SWIDTH 444 0
DWIDTH 8 0
BBX 7 12 0 -3
BITMAP
E6
6E
72
60
60
60
60
60
F0
00
30
30
ENDCHAR
STARTCHAR uni1E5C
ENCODING 7772
SWIDTH 722 0
DWIDTH 14 0
BBX 14 19 0 -3
BITMAP
1F80
0000
FF80
30C0
3060
3060
3060
30C0
3F00
3180
30C0
30C0
30E0
3060
3074
F838
0000
0300
0300
ENDCHAR
STARTCHAR uni1E5D
ENCODING 7773
SWIDTH 444 0
DWIDTH 8 0
BBX 7 14 0 -3
BITMAP
FC
00
E6
6E
72
60
60
60
60
60
F0
00
30
30
ENDCHAR
STARTCHAR uni1E5E
ENCODING 7774
SWIDTH 722 0
DWIDTH 14 0
BBX 14 16 0 -2
BITMAP
FF80
30C0
3060
3060
3060
30C0
3F00
3180
30C0
30C0
30E0
3060
3074
F838
0000
0FC0
ENDCHAR
STARTCHAR uni1E5F
ENCODING 7775
SWIDTH 444 0
DWIDTH 8 0
BBX 7 11 0 -2
BITMAP
E6
6E
72
60
60
60
60
60
F0
00
FC
ENDCHAR
STARTCHAR uni1E60
ENCODING 7776
SWIDTH 630 0
DWIDTH 11 0
BBX 10 17 0 0
BITMAP
0C00
0C00
0000
3E80
6180
C080
C080
C000
F000
7E00
1F80
03C0
80C0
80C0
C0C0
E180
BF00
ENDCHAR
STARTCHAR uni1E61
ENCODING 7777
SWIDTH 463 0
DWIDTH 8 0
BBX 7 12 0 0
BITMAP
18
18
00
7A
C6
82
E0
7C
0E
82
C6
BC
ENDCHAR
STARTCHAR uni1E62
ENCODING 7778
SWIDTH 630 0
DWIDTH 11 0
BBX 10 17 0 -3
BITMAP
3E80
6180
C080
C080
C000
F000
7E00
1F80
03C0
80C0
80C0
C0C0
E180
BF00
0000
0C00
0C00
ENDCHAR
STARTCHAR uni1E63
ENCODING 7779
SWIDTH 463 0
DWIDTH 8 0
BBX 7 12 0 -3
BITMAP
7A
C6
82
E0
7C
0E
82
C6
BC
00
30
30
ENDCHAR
STARTCHAR uni1E64
ENCODING 7780
SWIDTH 630 0
DWIDTH 11 0
BBX 10 21 0 0
BITMAP
0C00
0C00
0000
0300
0600
0800
0000
3E80
6180
C080
C080
C000
F000
7E00
1F80
03C0
80C0
80C0
C0C0
E180
BF00
ENDCHAR
STARTCHAR uni1E65
ENCODING 7781
SWIDTH 463 0
DWIDTH 8 0
BBX 7 16 0 0
BITMAP
0C
0C
00
06
0C
10
00
7A
C6
82
E0
7C
0E
82
C6
BC
ENDCHAR
STARTCHAR uni1E66
ENCODING 7782
SWIDTH 630 0
DWIDTH 11 0
BBX 10 21 0 0
BITMAP
0C00
0C00
0000
2100
1E00
0C00
0000
3E80
6180
C080
C080
C000
F000
7E00
1F80
03C0
80C0
80C0
C0C0
E180
BF00
ENDCHAR
STARTCHAR uni1E67
ENCODING 7783
SWIDTH 463 0
DWIDTH 8 0
BBX 7 17 0 0
BITMAP
18
18
00
82
44
38
10
00
7A
C6
82
E0
7C
0E
82
C6
BC
ENDCHAR
STARTCHAR uni1E68
ENCODING 7784
SWIDTH 630 0
DWIDTH 11 0
BBX 10 20 0 -3
BITMAP
1800
1800
0000
3E80
6180
C080
C080
C000
F000
7E00
1F80
03C0
80C0
80C0
C0C0
E180
BF00
0000
0C00
0C00
ENDCHAR
STARTCHAR uni1E69
ENCODING 7785
SWIDTH 463 0
DWIDTH 8 0
BBX 7 15 0 -3
BITMAP
30
30
00
7A
C6
82
E0
7C
0E
82
C6
BC
00
30
30
ENDCHAR
STARTCHAR uni1E6A
ENCODING 7786
SWIDTH 667 0
DWIDTH 13 0
BBX 12 17 0 0
BITMAP
0600
0600
0000
FFF0
C630
8610
8610
8610
0600
0600
0600
0600
0600
0600
0600
0600
1F80
ENDCHAR
STARTCHAR uni1E6B
ENCODING 7787
SWIDTH 389 0
DWIDTH 6 0
BBX 6 15 0 0
BITMAP
60
60
00
60
60
60
F8
60
60
60
60
60
60
64
38
ENDCHAR
STARTCHAR uni1E6C
ENCODING 7788
SWIDTH 667 0
DWIDTH 13 0
BBX 12 17 0 -3
BITMAP
FFF0
C630
8610
8610
8610
0600
0600
0600
0600
0600
0600
0600
0600
1F80
0000
0600
0600
ENDCHAR
STARTCHAR uni1E6D
ENCODING 7789
SWIDTH 389 0
DWIDTH 6 0
BBX 6 15 0 -3
BITMAP
60
60
60
F8
60
60
60
60
60
60
64
38
00
30
30
ENDCHAR
STARTCHAR uni1E6E
ENCODING 7790
SWIDTH 667 0
DWIDTH 13 0
BBX 12 16 0 -2
BITMAP
FFF0
C630
8610
8610
8610
0600
0600
0600
0600
0600
0600
0600
0600
1F80
0000
1F80
ENDCHAR
STARTCHAR uni1E6F
ENCODING 7791
SWIDTH 389 0
DWIDTH 6 0
BBX 6 14 0 -2
BITMAP
60
60
60
F8
60
60
60
60
60
60
64
38
00
FC
ENDCHAR
STARTCHAR uni1E70
ENCODING 7792
SWIDTH 667 0
DWIDTH 13 0
BBX 12 18 0 -4
BITMAP
FFF0
C630
8610
8610
8610
0600
0600
0600
0600
0600
0600
0600
0600
1F80
0000
0600
0F00
1080
ENDCHAR
STARTCHAR uni1E71
ENCODING 7793
SWIDTH 389 0
DWIDTH 6 0
BBX 6 16 0 -4
BITMAP
60
60
60
F8
60
60
60
60
60
60
64
38
00
30
78
84
ENDCHAR
STARTCHAR uni1E72
ENCODING 7794
SWIDTH 815 0
DWIDTH 15 0
BBX 14 17 0 -3
BITMAP
FC7C
3010
3010
3010
3010
3010
3010
3010
3010
3010
3010
3010
1820
0FC0
0000
0CC0
0CC0
ENDCHAR
STARTCHAR uni1E73
ENCODING 7795
SWIDTH 611 0
DWIDTH 11 0
BBX 10 12 0 -3
BITMAP
E380
6180
6180
6180
6180
6180
6180
7380
3DC0
0000
3300
3300
ENDCHAR
STARTCHAR uni1E74
ENCODING 7796
SWIDTH 815 0
DWIDTH 15 0
BBX 14 17 0 -3
BITMAP
FC7C
3010
3010
3010
3010
3010
3010
3010
3010
3010
3010
3010
1820
0FC0
0000
0E80
1700
ENDCHAR
STARTCHAR uni1E75
ENCODING 7797
SWIDTH 611 0
DWIDTH 11 0
BBX 10 12 0 -3
BITMAP
E380
6180
6180
6180
6180
6180
6180
7380
3DC0
0000
1D00
2E00
ENDCHAR
STARTCHAR uni1E76
ENCODING 7798
SWIDTH 815 0
DWIDTH 15 0
BBX 14 18 0 -4
BITMAP
FC7C
3010
3010
3010
3010
3010
3010
3010
3010
3010
3010
3010
1820
0FC0
0000
0300
0780
0840
ENDCHAR
STARTCHAR uni1E77
ENCODING 7799
SWIDTH 611 0
DWIDTH 11 0
BBX 10 13 0 -4
BITMAP
E380
6180
6180
6180
6180
6180
6180
7380
3DC0
0000
0C00
1E00
2100
ENDCHAR
STARTCHAR uni1E78
ENCODING 7800
SWIDTH 815 0
DWIDTH 15 0
BBX 14 21 0 0
BITMAP
00C0
0180
0200
0000
0740
0B80
0000
FC7C
3010
3010
3010
3010
3010
3010
3010
3010
3010
3010
3010
1820
0FC0
ENDCHAR
STARTCHAR uni1E79
ENCODING 7801
SWIDTH 611 0
DWIDTH 11 0
BBX 10 16 0 0
BITMAP
0300
0600
0800
0000
1D00
2E00
0000
E380
6180
6180
6180
6180
6180
6180
7380
3DC0
ENDCHAR
STARTCHAR uni1E7A
ENCODING 7802
SWIDTH 815 0
DWIDTH 15 0
BBX 14 19 0 0
BITMAP
0CC0
0CC0
0000
0FC0
0000
FC7C
3010
3010
3010
3010
3010
3010
3010
3010
3010
3010
3010
1820
0FC0
ENDCHAR
STARTCHAR uni1E7B
ENCODING 7803
SWIDTH 611 0
DWIDTH 11 0
BBX 10 14 0 0
BITMAP
3300
3300
0000
3F00
0000
E380
6180
6180
6180
6180
6180
6180
7380
3DC0
ENDCHAR
STARTCHAR uni1E7C
ENCODING 7804
SWIDTH 722 0
DWIDTH 13 0
BBX 14 17 -1 0
BITMAP
0740
0B80
0000
FC7C
3010
3010
1820
1820
1820
0C40
0C40
0C40
0680
0680
0680
0300
0300
ENDCHAR
STARTCHAR uni1E7D
ENCODING 7805
SWIDTH 537 0
DWIDTH 11 0
BBX 10 12 0 0
BITMAP
1D00
2E00
0000
F1C0
6080
6080
3100
3100
1A00
1E00
0C00
0C00
ENDCHAR
STARTCHAR uni1E7E
ENCODING 7806
SWIDTH 722 0
DWIDTH 13 0
BBX 14 17 -1 -3
BITMAP
FC7C
3010
3010
1820
1820
1820
0C40
0C40
0C40
0680
0680
0680
0300
0300
0000
0300
0300
ENDCHAR
STARTCHAR uni1E7F
ENCODING 7807
SWIDTH 537 0
DWIDTH 11 0
BBX 10 12 0 -3
BITMAP
F1C0
6080
6080
3100
3100
1A00
1E00
0C00
0C00
0000
0C00
0C00
ENDCHAR
STARTCHAR Wgrave
ENCODING 7808
SWIDTH 981 0
DWIDTH 19 0
BBX 20 18 -1 0
BITMAP
018000
00C000
002000
000000
FDF9F0
306040
306040
187080
187080
187080
0C9900
0C9900
0C9900
050900
070E00
070E00
030600
030600
ENDCHAR
STARTCHAR wgrave
ENCODING 7809
SWIDTH 778 0
DWIDTH 16 0
BBX 15 13 0 0
BITMAP
0C00
0600
0100
0000
F7DE
6184
6184
32C8
32C8
34D0
1C70
1C70
0820
ENDCHAR
STARTCHAR Wacute
ENCODING 7810
SWIDTH 981 0
DWIDTH 19 0
BBX 20 18 -1 0
BITMAP
001800
003000
004000
000000
FDF9F0
306040
306040
187080
187080
187080
0C9900
0C9900
0C9900
050900
070E00
070E00
030600
030600
ENDCHAR
STARTCHAR wacute
ENCODING 7811
SWIDTH 778 0
DWIDTH 16 0
BBX 15 13 0 0
BITMAP
00C0
0180
0200
0000
F7DE
6184
6184
32C8
32C8
34D0
1C70
1C70
0820
ENDCHAR
STARTCHAR Wdieresis
ENCODING 7812
SWIDTH 981 0
DWIDTH 19 0
BBX 20 17 -1 0
BITMAP
019800
019800
000000
FDF9F0
306040
306040
187080
187080
187080
0C9900
0C9900
0C9900
050900
070E00
070E00
030600
030600
ENDCHAR
STARTCHAR wdieresis
ENCODING 7813
SWIDTH 778 0
DWIDTH 16 0
BBX 15 12 0 0
BITMAP
0CC0
0CC0
0000
F7DE
6184
6184
32C8
32C8
34D0
1C70
1C70
0820
ENDCHAR
STARTCHAR uni1E86
ENCODING 7814
SWIDTH 981 0
DWIDTH 19 0
BBX 20 17 -1 0
BITMAP
006000
006000
000000
FDF9F0
306040
306040
187080
187080
187080
0C9900
0C9900
0C9900
050900
070E00
070E00
030600
030600
ENDCHAR
STARTCHAR uni1E87
ENCODING 7815
SWIDTH 778 0
DWIDTH 16 0
BBX 15 12 0 0
BITMAP
0300
0300
0000
F7DE
6184
6184
32C8
32C8
34D0
1C70
1C70
0820
ENDCHAR
STARTCHAR uni1E88
ENCODING 7816
SWIDTH 981 0
DWIDTH 19 0
BBX 20 17 -1 -3
BITMAP
FDF9F0
306040
306040
187080
187080
187080
0C9900
0C9900
0C9900
050900
070E00
070E00
030600
030600
000000
006000
006000
ENDCHAR
STARTCHAR uni1E89
ENCODING 7817
SWIDTH 778 0
DWIDTH 16 0
BBX 15 12 0 -3
BITMAP
F7DE
6184
6184
32C8
32C8
34D0
1C70
1C70
0820
0000
0180
0180
ENDCHAR
STARTCHAR uni1E8A
ENCODING 7818
SWIDTH 704 0
DWIDTH 14 0
BBX 13 17 1 0
BITMAP
0600
0600
0000
F8F0
3040
38C0
1880
0D80
0F00
0600
0700
0F80
0980
10C0
30E0
2060
F9F8
ENDCHAR
STARTCHAR uni1E8B
ENCODING 7819
SWIDTH 537 0
DWIDTH 10 0
BBX 9 12 0 0
BITMAP
1800
1800
0000
F380
6100
3200
1C00
0800
1C00
2600
4300
E780
ENDCHAR
STARTCHAR uni1E8C
ENCODING 7820
SWIDTH 704 0
DWIDTH 14 0
BBX 13 17 1 0
BITMAP
1980
1980
0000
F8F0
3040
38C0
1880
0D80
0F00
0600
0700
0F80
0980
10C0
30E0
2060
F9F8
ENDCHAR
STARTCHAR uni1E8D
ENCODING 7821
SWIDTH 537 0
DWIDTH 10 0
BBX 9 12 0 0
BITMAP
6600
6600
0000
F380
6100
3200
1C00
0800
1C00
2600
4300
E780
ENDCHAR
STARTCHAR uni1E8E
ENCODING 7822
SWIDTH 704 0
DWIDTH 13 0
BBX 14 17 -1 0
BITMAP
0300
0300
0000
FC7C
3010
1820
1820
0C40
0C40
0680
0780
0300
0300
0300
0300
0300
0FC0
ENDCHAR
STARTCHAR uni1E8F
ENCODING 7823
SWIDTH 537 0
DWIDTH 11 0
BBX 10 16 0 -4
BITMAP
0C00
0C00
0000
F1C0
6080
3100
3100
1A00
1A00
0C00
0C00
0800
0800
1000
D000
E000
ENDCHAR
STARTCHAR uni1E90
ENCODING 7824
SWIDTH 611 0
DWIDTH 11 0
BBX 10 18 0 0
BITMAP
0C00
1E00
2100
0000
FFC0
C0C0
8180
8380
8300
0600
0E00
1C00
1800
3040
7040
6040
C0C0
FFC0
ENDCHAR
STARTCHAR uni1E91
ENCODING 7825
SWIDTH 481 0
DWIDTH 8 0
BBX 7 13 0 0
BITMAP
18
3C
42
00
FE
86
8C
18
18
30
62
C6
FE
ENDCHAR
STARTCHAR uni1E92
ENCODING 7826
SWIDTH 611 0
DWIDTH 11 0
BBX 10 17 0 -3
BITMAP
FFC0
C0C0
8180
8380
8300
0600
0E00
1C00
1800
3040
7040
6040
C0C0
FFC0
0000
0C00
0C00
ENDCHAR
STARTCHAR uni1E93
ENCODING 7827
SWIDTH 481 0
DWIDTH 8 0
BBX 7 12 0 -3
BITMAP
FE
86
8C
18
18
30
62
C6
FE
00
18
18
ENDCHAR
STARTCHAR uni1E94
ENCODING 7828
SWIDTH 611 0
DWIDTH 11 0
BBX 10 16 0 -2
BITMAP
FFC0
C0C0
8180
8380
8300
0600
0E00
1C00
1800
3040
7040
6040
C0C0
FFC0
0000
3F00
ENDCHAR
STARTCHAR uni1E95
ENCODING 7829
SWIDTH 481 0
DWIDTH 8 0
BBX 7 11 0 -2
BITMAP
FE
86
8C
18
18
30
62
C6
FE
00
7E
ENDCHAR
STARTCHAR uni1E96
ENCODING 7830
SWIDTH 611 0
DWIDTH 11 0
BBX 10 16 0 -2
BITMAP
E000
6000
6000
6000
6000
6F00
7380
6180
6180
6180
6180
6180
6180
F3C0
0000
3F00
ENDCHAR
STARTCHAR uni1E97
ENCODING 7831
SWIDTH 389 0
DWIDTH 6 0
BBX 7 15 -1 0
BITMAP
CC
CC
00
30
30
30
7C
30
30
30
30
30
30
32
1C
ENDCHAR
STARTCHAR uni1E98
ENCODING 7832
SWIDTH 778 0
DWIDTH 16 0
BBX 15 14 0 0
BITMAP
0300
0480
0480
0300
0000
F7DE
6184
6184
32C8
32C8
34D0
1C70
1C70
0820
ENDCHAR
STARTCHAR uni1E99
ENCODING 7833
SWIDTH 537 0
DWIDTH 11 0
BBX 10 18 0 -4
BITMAP
0C00
1200
1200
0C00
0000
F1C0
6080
3100
3100
1A00
1A00
0C00
0C00
0800
0800
1000
D000
E000
ENDCHAR
STARTCHAR uni1EA0
ENCODING 7840
SWIDTH 722 0
DWIDTH 13 0
BBX 14 17 -1 -3
BITMAP
0300
0300
0300
0580
0580
0580
08C0
08C0
1FE0
1060
1060
2030
2030
F8FC
0000
0300
0300
ENDCHAR
STARTCHAR uni1EA1
ENCODING 7841
SWIDTH 556 0
DWIDTH 10 0
BBX 9 12 0 -3
BITMAP
1C00
6200
6300
0300
1F00
6300
C300
C700
7980
0000
1800
1800
ENDCHAR
STARTCHAR uni1EA4
ENCODING 7844
SWIDTH 722 0
DWIDTH 13 0
BBX 14 22 -1 0
BITMAP
00C0
0180
0200
0000
0300
0780
0840
0000
0300
0300
0300
0580
0580
0580
08C0
08C0
1FE0
1060
1060
2030
2030
F8FC
ENDCHAR
STARTCHAR uni1EA5
ENCODING 7845
SWIDTH 556 0
DWIDTH 10 0
BBX 9 17 0 0
BITMAP
0600
0C00
1000
0000
1800
3C00
4200
0000
1C00
6200
6300
0300
1F00
6300
C300
C700
7980
ENDCHAR
STARTCHAR uni1EA6
ENCODING 7846
SWIDTH 722 0
DWIDTH 13 0
BBX 14 22 -1 0
BITMAP
0C00
0600
0100
0000
0300
0780
0840
0000
0300
0300
0300
0580
0580
0580
08C0
08C0
1FE0
1060
1060
2030
2030
F8FC
ENDCHAR
STARTCHAR uni1EA7
ENCODING 7847
SWIDTH 556 0
DWIDTH 10 0
BBX 9 17 0 0
BITMAP
6000
3000
0800
0000
1800
3C00
4200
0000
1C00
6200
6300
0300
1F00
6300
C300
C700
7980
ENDCHAR
STARTCHAR uni1EAA
ENCODING 7850
SWIDTH 722 0
DWIDTH 13 0
BBX 14 21 -1 0
BITMAP
0740
0B80
0000
0300
0780
0840
0000
0300
0300
0300
0580
0580
0580
08C0
08C0
1FE0
1060
1060
2030
2030
F8FC
ENDCHAR
STARTCHAR uni1EAB
ENCODING 7851
SWIDTH 556 0
DWIDTH 10 0
BBX 9 16 0 0
BITMAP
3A00
5C00
0000
1800
3C00
4200
0000
1C00
6200
6300
0300
1F00
6300
C300
C700
7980
ENDCHAR
STARTCHAR uni1EAC
ENCODING 7852
SWIDTH 722 0
DWIDTH 13 0
BBX 14 21 -1 -3
BITMAP
0300
0780
0840
0000
0300
0300
0300
0580
0580
0580
08C0
08C0
1FE0
1060
1060
2030
2030
F8FC
0000
0300
0300
ENDCHAR
STARTCHAR uni1EAD
ENCODING 7853
SWIDTH 556 0
DWIDTH 10 0
BBX 9 16 0 -3
BITMAP
0C00
1E00
2100
0000
1C00
6200
6300
0300
1F00
6300
C300
C700
7980
0000
1800
1800
ENDCHAR
STARTCHAR uni1EAE
ENCODING 7854
SWIDTH 722 0
DWIDTH 13 0
BBX 14 21 -1 0
BITMAP
00C0
0180
0200
0000
0440
0380
0000
0300
0300
0300
0580
0580
0580
08C0
08C0
1FE0
1060
1060
2030
2030
F8FC
ENDCHAR
STARTCHAR uni1EAF
ENCODING 7855
SWIDTH 556 0
DWIDTH 10 0
BBX 9 16 0 0
BITMAP
0300
0600
0800
0000
2200
1C00
0000
1C00
6200
6300
0300
1F00
6300
C300
C700
7980
ENDCHAR
STARTCHAR uni1EB0
ENCODING 7856
SWIDTH 722 0
DWIDTH 13 0
BBX 14 21 -1 0
BITMAP
0C00
0600
0100
0000
0440
0380
0000
0300
0300
0300
0580
0580
0580
08C0
08C0
1FE0
1060
1060
2030
2030
F8FC
ENDCHAR
STARTCHAR uni1EB1
ENCODING 7857
SWIDTH 556 0
DWIDTH 10 0
BBX 9 16 0 0
BITMAP
3000
1800
0400
0000
2200
1C00
0000
1C00
6200
6300
0300
1F00
6300
C300
C700
7980
ENDCHAR
STARTCHAR uni1EB4
ENCODING 7860
SWIDTH 722 0
DWIDTH 13 0
BBX 14 20 -1 0
BITMAP
0740
0B80
0000
0440
0380
0000
0300
0300
0300
0580
0580
0580
08C0
08C0
1FE0
1060
1060
2030
2030
F8FC
ENDCHAR
STARTCHAR uni1EB5
ENCODING 7861
SWIDTH 556 0
DWIDTH 10 0
BBX 9 15 0 0
BITMAP
1D00
2E00
0000
2200
1C00
0000
1C00
6200
6300
0300
1F00
6300
C300
C700
7980
ENDCHAR
STARTCHAR uni1EB6
ENCODING 7862
SWIDTH 722 0
DWIDTH 13 0
BBX 14 20 -1 -3
BITMAP
0440
0380
0000
0300
0300
0300
0580
0580
0580
08C0
08C0
1FE0
1060
1060
2030
2030
F8FC
0000
0300
0300
ENDCHAR
STARTCHAR uni1EB7
ENCODING 7863
SWIDTH 556 0
DWIDTH 10 0
BBX 9 15 0 -3
BITMAP
2200
1C00
0000
1C00
6200
6300
0300
1F00
6300
C300
C700
7980
0000
1800
1800
ENDCHAR
STARTCHAR uni1EB8
ENCODING 7864
SWIDTH 722 0
DWIDTH 12 0
BBX 11 17 0 -3
BITMAP
FFE0
3060
3020
3020
3120
3100
3F00
3100
3100
3020
3020
3020
3060
FFE0
0000
0600
0600
ENDCHAR
STARTCHAR uni1EB9
ENCODING 7865
SWIDTH 500 0
DWIDTH 9 0
BBX 8 12 0 -3
BITMAP
3C
66
C3
C3
FF
C0
C1
63
3E
00
18
18
ENDCHAR
STARTCHAR uni1EBC
ENCODING 7868
SWIDTH 722 0
DWIDTH 12 0
BBX 11 17 0 0
BITMAP
0E80
1700
0000
FFE0
3060
3020
3020
3120
3100
3F00
3100
3100
3020
3020
3020
3060
FFE0
ENDCHAR
STARTCHAR uni1EBD
ENCODING 7869
SWIDTH 500 0
DWIDTH 9 0
BBX 8 12 0 0
BITMAP
3A
5C
00
3C
66
C3
C3
FF
C0
C1
63
3E
ENDCHAR
STARTCHAR uni1EBE
ENCODING 7870
SWIDTH 722 0
DWIDTH 12 0
BBX 11 22 0 0
BITMAP
0180
0300
0400
0000
0600
0F00
1080
0000
FFE0
3060
3020
3020
3120
3100
3F00
3100
3100
3020
3020
3020
3060
FFE0
ENDCHAR
STARTCHAR uni1EBF
ENCODING 7871
SWIDTH 500 0
DWIDTH 9 0
BBX 8 17 0 0
BITMAP
06
0C
10
00
18
3C
42
00
3C
66
C3
C3
FF
C0
C1
63
3E
ENDCHAR
STARTCHAR uni1EC0
ENCODING 7872
SWIDTH 722 0
DWIDTH 12 0
BBX 11 22 0 0
BITMAP
1800
0C00
0200
0000
0600
0F00
1080
0000
FFE0
3060
3020
3020
3120
3100
3F00
3100
3100
3020
3020
3020
3060
FFE0
ENDCHAR
STARTCHAR uni1EC1
ENCODING 7873
SWIDTH 500 0
DWIDTH 9 0
BBX 8 17 0 0
BITMAP
60
30
08
00
18
3C
42
00
3C
66
C3
C3
FF
C0
C1
63
3E
ENDCHAR
STARTCHAR uni1EC4
ENCODING 7876
SWIDTH 722 0
DWIDTH 12 0
BBX 11 21 0 0
BITMAP
0E80
1700
0000
0600
0F00
1080
0000
FFE0
3060
3020
3020
3120
3100
3F00
3100
3100
3020
3020
3020
3060
FFE0
ENDCHAR
STARTCHAR uni1EC5
ENCODING 7877
SWIDTH 500 0
DWIDTH 9 0
BBX 8 16 0 0
BITMAP
3A
5C
00
18
3C
42
00
3C
66
C3
C3
FF
C0
C1
63
3E
ENDCHAR
STARTCHAR uni1EC6
ENCODING 7878
SWIDTH 722 0
DWIDTH 12 0
BBX 11 21 0 -3
BITMAP
0600
0F00
1080
0000
FFE0
3060
3020
3020
3120
3100
3F00
3100
3100
3020
3020
3020
3060
FFE0
0000
0600
0600
ENDCHAR
STARTCHAR uni1EC7
ENCODING 7879
SWIDTH 500 0
DWIDTH 9 0
BBX 8 16 0 -3
BITMAP
18
3C
42
00
3C
66
C3
C3
FF
C0
C1
63
3E
00
18
18
ENDCHAR
STARTCHAR uni1ECA
ENCODING 7882
SWIDTH 407 0
DWIDTH 7 0
BBX 6 17 0 -3
BITMAP
FC
30
30
30
30
30
30
30
30
30
30
30
30
FC
00
30
30
ENDCHAR
STARTCHAR uni1ECB
ENCODING 7883
SWIDTH 315 0
DWIDTH 5 0
BBX 4 16 0 -3
BITMAP
60
60
00
00
E0
60
60
60
60
60
60
60
F0
00
60
60
ENDCHAR
STARTCHAR uni1ECC
ENCODING 7884
SWIDTH 778 0
DWIDTH 15 0
BBX 14 17 0 -3
BITMAP
0FC0
3870
6018
6018
C00C
C00C
C00C
C00C
C00C
C00C
6018
6018
3870
0FC0
0000
0300
0300
ENDCHAR
STARTCHAR uni1ECD
ENCODING 7885
SWIDTH 500 0
DWIDTH 10 0
BBX 9 12 0 -3
BITMAP
3E00
6300
C180
C180
C180
C180
C180
6300
3E00
0000
0C00
0C00
ENDCHAR
STARTCHAR uni1ED0
ENCODING 7888
SWIDTH 778 0
DWIDTH 15 0
BBX 14 22 0 0
BITMAP
00C0
0180
0200
0000
0300
0780
0840
0000
0FC0
3870
6018
6018
C00C
C00C
C00C
C00C
C00C
C00C
6018
6018
3870
0FC0
ENDCHAR
STARTCHAR uni1ED1
ENCODING 7889
SWIDTH 500 0
DWIDTH 10 0
BBX 9 17 0 0
BITMAP
0600
0C00
1000
0000
1800
3C00
4200
0000
3E00
6300
C180
C180
C180
C180
C180
6300
3E00
ENDCHAR
STARTCHAR uni1ED2
ENCODING 7890
SWIDTH 778 0
DWIDTH 15 0
BBX 14 22 0 0
BITMAP
0C00
0600
0100
0000
0300
0780
0840
0000
0FC0
3870
6018
6018
C00C
C00C
C00C
C00C
C00C
C00C
6018
6018
3870
0FC0
ENDCHAR
STARTCHAR uni1ED3
ENCODING 7891
SWIDTH 500 0
DWIDTH 10 0
BBX 9 17 0 0
BITMAP
6000
3000
0800
0000
1800
3C00
4200
0000
3E00
6300
C180
C180
C180
C180
C180
6300
3E00
ENDCHAR
STARTCHAR uni1ED6
ENCODING 7894
SWIDTH 778 0
DWIDTH 15 0
BBX 14 21 0 0
BITMAP
0740
0B80
0000
0300
0780
0840
0000
0FC0
3870
6018
6018
C00C
C00C
C00C
C00C
C00C
C00C
6018
6018
3870
0FC0
ENDCHAR
STARTCHAR uni1ED7
ENCODING 7895
SWIDTH 500 0
DWIDTH 10 0
BBX 9 16 0 0
BITMAP
3A00
5C00
0000
1800
3C00
4200
0000
3E00
6300
C180
C180
C180
C180
C180
6300
3E00
ENDCHAR
STARTCHAR uni1ED8
ENCODING 7896
SWIDTH 778 0
DWIDTH 15 0
BBX 14 21 0 -3
BITMAP
0300
0780
0840
0000
0FC0
3870
6018
6018
C00C
C00C
C00C
C00C
C00C
C00C
6018
6018
3870
0FC0
0000
0300
0300
ENDCHAR
STARTCHAR uni1ED9
ENCODING 7897
SWIDTH 500 0
DWIDTH 10 0
BBX 9 16 0 -3
BITMAP
0C00
1E00
2100
0000
3E00
6300
C180
C180
C180
C180
C180
6300
3E00
0000
0C00
0C00
ENDCHAR
STARTCHAR uni1EDA
ENCODING 7898
SWIDTH 778 0
DWIDTH 15 0
BBX 16 18 0 0
BITMAP
0030
0060
0080
0000
0FC3
3873
6019
601A
C00C
C00C
C00C
C00C
C00C
C00C
6018
6018
3870
0FC0
ENDCHAR
STARTCHAR uni1EDB
ENCODING 7899
SWIDTH 500 0
DWIDTH 10 0
BBX 11 13 0 0
BITMAP
0180
0300
0400
0000
3E60
6360
C1A0
C1C0
C180
C180
C180
6300
3E00
ENDCHAR
STARTCHAR uni1EDC
ENCODING 7900
SWIDTH 778 0
DWIDTH 15 0
BBX 16 18 0 0
BITMAP
0300
0180
0040
0000
0FC3
3873
6019
601A
C00C
C00C
C00C
C00C
C00C
C00C
6018
6018
3870
0FC0
ENDCHAR
STARTCHAR uni1EDD
ENCODING 7901
SWIDTH 500 0
DWIDTH 10 0
BBX 11 13 0 0
BITMAP
1800
0C00
0200
0000
3E60
6360
C1A0
C1C0
C180
C180
C180
6300
3E00
ENDCHAR
STARTCHAR uni1EE0
ENCODING 7904
SWIDTH 778 0
DWIDTH 15 0
BBX 16 17 0 0
BITMAP
01D0
02E0
0000
0FC3
3873
6019
601A
C00C
C00C
C00C
C00C
C00C
C00C
6018
6018
3870
0FC0
ENDCHAR
STARTCHAR uni1EE1
ENCODING 7905
SWIDTH 500 0
DWIDTH 10 0
BBX 11 12 0 0
BITMAP
0E80
1700
0000
3E60
6360
C1A0
C1C0
C180
C180
C180
6300
3E00
ENDCHAR
STARTCHAR uni1EE2
ENCODING 7906
SWIDTH 778 0
DWIDTH 15 0
BBX 16 17 0 -3
BITMAP
0FC3
3873
6019
601A
C00C
C00C
C00C
C00C
C00C
C00C
6018
6018
3870
0FC0
0000
0300
0300
ENDCHAR
STARTCHAR uni1EE3
ENCODING 7907
SWIDTH 500 0
DWIDTH 10 0
BBX 11 12 0 -3
BITMAP
3E60
6360
C1A0
C1C0
C180
C180
C180
6300
3E00
0000
0C00
0C00
ENDCHAR
STARTCHAR uni1EE4
ENCODING 7908
SWIDTH 815 0
DWIDTH 15 0
BBX 14 17 0 -3
BITMAP
FC7C
3010
3010
3010
3010
3010
3010
3010
3010
3010
3010
3010
1820
0FC0
0000
0300
0300
ENDCHAR
STARTCHAR uni1EE5
ENCODING 7909
SWIDTH 611 0
DWIDTH 11 0
BBX 10 12 0 -3
BITMAP
E380
6180
6180
6180
6180
6180
6180
7380
3DC0
0000
0C00
0C00
ENDCHAR
STARTCHAR uni1EE8
ENCODING 7912
SWIDTH 815 0
DWIDTH 15 0
BBX 16 18 0 0
BITMAP
0060
00C0
0100
0000
FC7F
3013
3011
3012
3014
3010
3010
3010
3010
3010
3010
3010
1820
0FC0
ENDCHAR
STARTCHAR uni1EE9
ENCODING 7913
SWIDTH 611 0
DWIDTH 11 0
BBX 12 13 0 0
BITMAP
0180
0300
0400
0000
E3B0
61B0
6190
61A0
61C0
6180
6180
7380
3DC0
ENDCHAR
STARTCHAR uni1EEA
ENCODING 7914
SWIDTH 815 0
DWIDTH 15 0
BBX 16 18 0 0
BITMAP
0600
0300
0080
0000
FC7F
3013
3011
3012
3014
3010
3010
3010
3010
3010
3010
3010
1820
0FC0
ENDCHAR
STARTCHAR uni1EEB
ENCODING 7915
SWIDTH 611 0
DWIDTH 11 0
BBX 12 13 0 0
BITMAP
1800
0C00
0200
0000
E3B0
61B0
6190
61A0
61C0
6180
6180
7380
3DC0
ENDCHAR
STARTCHAR uni1EEE
ENCODING 7918
SWIDTH 815 0
DWIDTH 15 0
BBX 16 17 0 0
BITMAP
03A0
05C0
0000
FC7F
3013
3011
3012
3014
3010
3010
3010
3010
3010
3010
3010
1820
0FC0
ENDCHAR
STARTCHAR uni1EEF
ENCODING 7919
SWIDTH 611 0
DWIDTH 11 0
BBX 12 12 0 0
BITMAP
0E80
1700
0000
E3B0
61B0
6190
61A0
61C0
6180
6180
7380
3DC0
ENDCHAR
STARTCHAR uni1EF0
ENCODING 7920
SWIDTH 815 0
DWIDTH 15 0
BBX 16 17 0 -3
BITMAP
FC7F
3013
3011
3012
3014
3010
3010
3010
3010
3010
3010
3010
1820
0FC0
0000
0300
0300
ENDCHAR
STARTCHAR uni1EF1
ENCODING 7921
SWIDTH 611 0
DWIDTH 11 0
BBX 12 12 0 -3
BITMAP
E3B0
61B0
6190
61A0
61C0
6180
6180
7380
3DC0
0000
0600
0600
ENDCHAR
STARTCHAR Ygrave
ENCODING 7922
SWIDTH 704 0
DWIDTH 13 0
BBX 14 18 -1 0
BITMAP
0C00
0600
0100
0000
FC7C
3010
1820
1820
0C40
0C40
0680
0780
0300
0300
0300
0300
0300
0FC0
ENDCHAR
STARTCHAR ygrave
ENCODING 7923
SWIDTH 537 0
DWIDTH 11 0
BBX 10 17 0 -4
BITMAP
3000
1800
0400
0000
F1C0
6080
3100
3100
1A00
1A00
0C00
0C00
0800
0800
1000
D000
E000
ENDCHAR
STARTCHAR uni1EF4
ENCODING 7924
SWIDTH 704 0
DWIDTH 13 0
BBX 14 17 -1 -3
BITMAP
FC7C
3010
1820
1820
0C40
0C40
0680
0780
0300
0300
0300
0300
0300
0FC0
0000
0300
0300
ENDCHAR
STARTCHAR uni1EF5
ENCODING 7925
SWIDTH 537 0
DWIDTH 11 0
BBX 10 16 0 -7
BITMAP
F1C0
6080
3100
3100
1A00
1A00
0C00
0C00
0800
0800
1000
D000
E000
0000
3000
3000
ENDCHAR
STARTCHAR uni1EF8
ENCODING 7928
SWIDTH 704 0
DWIDTH 13 0
BBX 14 17 -1 0
BITMAP
0740
0B80
0000
FC7C
3010
1820
1820
0C40
0C40
0680
0780
0300
0300
0300
0300
0300
0FC0
ENDCHAR
STARTCHAR uni1EF9
ENCODING 7929
SWIDTH 537 0
DWIDTH 11 0
BBX 10 16 0 -4
BITMAP
1D00
2E00
0000
F1C0
6080
3100
3100
1A00
1A00
0C00
0C00
0800
0800
1000
D000
E000
ENDCHAR
STARTCHAR uni2000
ENCODING 8192
SWIDTH 500 0
DWIDTH 10 0
BBX 1 1 0 0
BITMAP
00
ENDCHAR
STARTCHAR uni2001
ENCODING 8193
SWIDTH 1000 0
DWIDTH 19 0
BBX 1 1 0 0
BITMAP
00
ENDCHAR
STARTCHAR uni2002
ENCODING 8194
SWIDTH 500 0
DWIDTH 10 0
BBX 1 1 0 0
BITMAP
00
ENDCHAR
STARTCHAR uni2003
ENCODING 8195
SWIDTH 1000 0
DWIDTH 19 0
BBX 1 1 0 0
BITMAP
00
ENDCHAR
STARTCHAR uni2004
ENCODING 8196
SWIDTH 333 0
DWIDTH 6 0
BBX 1 1 0 0
BITMAP
00
ENDCHAR
STARTCHAR uni2005
ENCODING 8197
SWIDTH 250 0
DWIDTH 5 0
BBX 1 1 0 0
BITMAP
00
ENDCHAR
STARTCHAR uni2006
ENCODING 8198
SWIDTH 167 0
DWIDTH 3 0
BBX 1 1 0 0
BITMAP
00
ENDCHAR
STARTCHAR uni2007
ENCODING 8199
SWIDTH 556 0
DWIDTH 10 0
BBX 1 1 0 0
BITMAP
00
ENDCHAR
STARTCHAR uni2008
ENCODING 8200
SWIDTH 278 0
DWIDTH 5 0
BBX 1 1 0 0
BITMAP
00
ENDCHAR
STARTCHAR uni2009
ENCODING 8201
SWIDTH 200 0
DWIDTH 4 0
BBX 1 1 0 0
BITMAP
00
ENDCHAR
STARTCHAR uni200A
ENCODING 8202
SWIDTH 100 0
DWIDTH 2 0
BBX 1 1 0 0
BITMAP
00
ENDCHAR
STARTCHAR uni200B
ENCODING 8203
SWIDTH 0 0
DWIDTH 0 0
BBX 1 1 0 0
BITMAP
00
ENDCHAR
STARTCHAR uni2010
ENCODING 8208
SWIDTH 333 0
DWIDTH 6 0
BBX 5 1 0 5
BITMAP
F8
ENDCHAR
STARTCHAR uni2011
ENCODING 8209
SWIDTH 333 0
DWIDTH 6 0
BBX 5 1 0 5
BITMAP
F8
ENDCHAR
STARTCHAR figuredash
ENCODING 8210
SWIDTH 556 0
DWIDTH 9 0
BBX 9 1 0 5
BITMAP
FF80
ENDCHAR
STARTCHAR endash
ENCODING 8211
SWIDTH 556 0
DWIDTH 9 0
BBX 9 1 0 5
BITMAP
FF80
ENDCHAR
STARTCHAR emdash
ENCODING 8212
SWIDTH 1000 0
DWIDTH 18 0
BBX 18 1 0 5
BITMAP
FFFFC0
ENDCHAR
STARTCHAR afii00208
ENCODING 8213
SWIDTH 1000 0
DWIDTH 18 0
BBX 18 1 0 5
BITMAP
FFFFC0
ENDCHAR
STARTCHAR quoteleft
ENCODING 8216
SWIDTH 204 0
DWIDTH 4 0
BBX 3 5 0 9
BITMAP
20
40
80
C0
C0
ENDCHAR
STARTCHAR quoteright
ENCODING 8217
SWIDTH 204 0
DWIDTH 4 0
BBX 3 5 0 9
BITMAP
60
60
20
40
80
ENDCHAR
STARTCHAR quotesinglbase
ENCODING 8218
SWIDTH 204 0
DWIDTH 4 0
BBX 3 5 0 -3
BITMAP
60
60
20
40
80
ENDCHAR
STARTCHAR quotereversed
ENCODING 8219
SWIDTH 204 0
DWIDTH 4 0
BBX 3 5 0 9
BITMAP
C0
C0
80
40
20
ENDCHAR
STARTCHAR quotedblleft
ENCODING 8220
SWIDTH 389 0
DWIDTH 8 0
BBX 7 5 0 9
BITMAP
22
44
88
CC
CC
ENDCHAR
STARTCHAR quotedblright
ENCODING 8221
SWIDTH 389 0
DWIDTH 8 0
BBX 7 5 0 9
BITMAP
66
66
22
44
88
ENDCHAR
STARTCHAR quotedblbase
ENCODING 8222
SWIDTH 389 0
DWIDTH 8 0
BBX 7 5 0 -3
BITMAP
66
66
22
44
88
ENDCHAR
STARTCHAR uni201F
ENCODING 8223
SWIDTH 389 0
DWIDTH 8 0
BBX 7 5 0 9
BITMAP
CC
CC
88
44
22
ENDCHAR
STARTCHAR dagger
ENCODING 8224
SWIDTH 500 0
DWIDTH 8 0
BBX 7 17 0 -3
BITMAP
38
38
10
10
10
FE
10
10
10
38
38
10
10
10
10
10
10
ENDCHAR
STARTCHAR daggerdbl
ENCODING 8225
SWIDTH 500 0
DWIDTH 8 0
BBX 7 17 0 -3
BITMAP
38
38
10
10
10
FE
10
10
38
38
10
10
FE
10
10
10
10
ENDCHAR
STARTCHAR bullet
ENCODING 8226
SWIDTH 606 0
DWIDTH 11 0
BBX 6 6 2 5
BITMAP
78
FC
FC
FC
FC
78
ENDCHAR
STARTCHAR ellipsis
ENCODING 8230
SWIDTH 1000 0
DWIDTH 18 0
BBX 14 2 1 0
BITMAP
C30C
C30C
ENDCHAR
STARTCHAR perthousand
ENCODING 8240
SWIDTH 1000 0
DWIDTH 24 0
BBX 23 14 0 0
BITMAP
1C2000
322000
63C000
624000
C48000
C48000
C91C1C
713232
026262
026262
04C4C4
04C4C4
08C8C8
087070
ENDCHAR
STARTCHAR guilsinglleft
ENCODING 8249
SWIDTH 259 0
DWIDTH 5 0
BBX 4 7 0 2
BITMAP
10
30
60
C0
60
30
10
ENDCHAR
STARTCHAR guilsinglright
ENCODING 8250
SWIDTH 259 0
DWIDTH 5 0
BBX 4 7 0 2
BITMAP
80
C0
60
30
60
C0
80
ENDCHAR
STARTCHAR fraction
ENCODING 8260
SWIDTH 167 0
DWIDTH 4 0
BBX 7 14 -2 0
BITMAP
02
02
04
04
08
08
10
10
20
20
40
40
80
80
ENDCHAR
STARTCHAR oneinferior
ENCODING 8321
SWIDTH 333 0
DWIDTH 6 0
BBX 6 8 0 -4
BITMAP
30
F0
30
30
30
30
30
FC
ENDCHAR
STARTCHAR twoinferior
ENCODING 8322
SWIDTH 333 0
DWIDTH 6 0
BBX 6 8 0 -4
BITMAP
78
CC
8C
18
30
60
C4
FC
ENDCHAR
STARTCHAR threeinferior
ENCODING 8323
SWIDTH 333 0
DWIDTH 6 0
BBX 6 8 0 -4
BITMAP
78
CC
8C
38
0C
8C
CC
78
ENDCHAR
STARTCHAR uni20A5
ENCODING 8357
SWIDTH 889 0
DWIDTH 17 0
BBX 16 14 0 -2
BITMAP
0020
0020
0020
EF7C
73CE
61C6
6186
6186
6186
6186
6186
F3CF
0200
0200
ENDCHAR
STARTCHAR uni20A6
ENCODING 8358
SWIDTH 815 0
DWIDTH 15 0
BBX 14 14 0 0
BITMAP
F07C
3010
3810
3C10
2E10
3FF0
2310
2390
3FF0
20D0
20F0
2070
2030
F810
ENDCHAR
STARTCHAR uni20A9
ENCODING 8361
SWIDTH 981 0
DWIDTH 19 0
BBX 20 14 -1 0
BITMAP
FDF9F0
306040
306040
187080
187080
1BFE80
0C9900
0C9900
0FFF00
050900
070E00
070E00
030600
030600
ENDCHAR
STARTCHAR Euro
ENCODING 8364
SWIDTH 722 0
DWIDTH 13 0
BBX 14 14 -2 0
BITMAP
03E4
0E1C
180C
1804
3004
FF80
3000
3000
FF80
3000
1804
1804
0E18
03F0
ENDCHAR
STARTCHAR uni20AD
ENCODING 8365
SWIDTH 778 0
DWIDTH 15 0
BBX 15 14 0 0
BITMAP
FCF8
3060
3040
3080
3100
3200
FFFE
3F00
3380
31C0
30E0
3070
3038
FCFE
ENDCHAR
STARTCHAR uni2103
ENCODING 8451
SWIDTH 1102 0
DWIDTH 20 0
BBX 19 14 0 0
BITMAP
781F20
CC70E0
84C060
84C020
CD8020
798000
018000
018000
018000
018000
00C020
00C020
0070C0
001F80
ENDCHAR
STARTCHAR uni2109
ENCODING 8457
SWIDTH 1047 0
DWIDTH 19 0
BBX 18 14 0 0
BITMAP
79FFC0
CC60C0
846040
846040
CC6240
786200
007E00
006200
006200
006000
006000
006000
006000
01F800
ENDCHAR
STARTCHAR trademark
ENCODING 8482
SWIDTH 1000 0
DWIDTH 20 0
BBX 17 8 1 6
BITMAP
FEE380
926300
105500
105500
105500
104900
104900
38EB80
ENDCHAR
STARTCHAR uni212A
ENCODING 8490
SWIDTH 778 0
DWIDTH 15 0
BBX 15 14 0 0
BITMAP
FCF8
3060
3040
3080
3100
3200
3600
3F00
3380
31C0
30E0
3070
3038
FCFE
ENDCHAR
STARTCHAR uni212B
ENCODING 8491
SWIDTH 722 0
DWIDTH 13 0
BBX 14 19 -1 0
BITMAP
0300
0480
0480
0300
0000
0300
0300
0300
0580
0580
0580
08C0
08C0
1FE0
1060
1060
2030
2030
F8FC
ENDCHAR
STARTCHAR uni2132
ENCODING 8498
SWIDTH 667 0
DWIDTH 12 0
BBX 11 14 0 0
BITMAP
07E0
0180
0180
0180
0180
1180
1180
1F80
1180
9180
8180
8180
C180
FFE0
ENDCHAR
STARTCHAR universal
ENCODING 8704
SWIDTH 722 0
DWIDTH 13 0
BBX 14 14 -1 0
BITMAP
F8FC
2030
2030
1060
1060
1FE0
08C0
08C0
0580
0580
0580
0300
0300
0300
ENDCHAR
STARTCHAR existential
ENCODING 8707
SWIDTH 722 0
DWIDTH 12 0
BBX 11 14 0 0
BITMAP
FFE0
C180
8180
8180
9180
1180
1F80
1180
1180
8180
8180
8180
C180
FFE0
ENDCHAR
STARTCHAR uni2204
ENCODING 8708
SWIDTH 722 0
DWIDTH 12 0
BBX 11 14 0 0
BITMAP
FFE0
C180
8180
8380
9380
1380
1F80
1580
1580
8980
8980
8980
D180
FFE0
ENDCHAR
STARTCHAR minus
ENCODING 8722
SWIDTH 606 0
DWIDTH 10 0
BBX 9 1 0 5
BITMAP
FF80
ENDCHAR
STARTCHAR fraction
ENCODING 8725
SWIDTH 167 0
DWIDTH 4 0
BBX 7 14 -2 0
BITMAP
02
02
04
04
08
08
10
10
20
20
40
40
80
80
ENDCHAR
STARTCHAR periodcentered
ENCODING 8729
SWIDTH 278 0
DWIDTH 5 0
BBX 2 2 1 5
BITMAP
C0
C0
ENDCHAR
STARTCHAR uni2236
ENCODING 8758
SWIDTH 278 0
DWIDTH 5 0
BBX 2 9 1 0
BITMAP
C0
C0
00
00
00
00
00
C0
C0
ENDCHAR
STARTCHAR uni2259
ENCODING 8793
SWIDTH 606 0
DWIDTH 10 0
BBX 9 8 0 4
BITMAP
0C00
1E00
2100
0000
FF80
0000
0000
FF80
ENDCHAR
STARTCHAR uni225A
ENCODING 8794
SWIDTH 606 0
DWIDTH 10 0
BBX 9 9 0 4
BITMAP
4100
2200
1C00
0800
0000
FF80
0000
0000
FF80
ENDCHAR
STARTCHAR notequal
ENCODING 8800
SWIDTH 606 0
DWIDTH 10 0
BBX 9 14 0 -1
BITMAP
0200
0200
0200
0400
0400
FF80
0800
0800
FF80
1000
1000
1000
2000
2000
ENDCHAR
STARTCHAR equivalence
ENCODING 8801
SWIDTH 606 0
DWIDTH 10 0
BBX 9 5 0 3
BITMAP
FF80
0000
FF80
0000
FF80
ENDCHAR
STARTCHAR uni2262
ENCODING 8802
SWIDTH 606 0
DWIDTH 10 0
BBX 9 14 0 -1
BITMAP
0200
0200
0200
0400
0400
FF80
0800
FF80
0800
FF80
1000
1000
2000
2000
ENDCHAR
STARTCHAR lessequal
ENCODING 8804
SWIDTH 606 0
DWIDTH 10 0
BBX 9 11 0 -1
BITMAP
0080
0380
0E00
3800
E000
3800
0E00
0380
0080
0000
FF80
ENDCHAR
STARTCHAR greaterequal
ENCODING 8805
SWIDTH 606 0
DWIDTH 10 0
BBX 9 11 0 -1
BITMAP
8000
E000
3800
0E00
0380
0E00
3800
E000
8000
0000
FF80
ENDCHAR
STARTCHAR uni226E
ENCODING 8814
SWIDTH 606 0
DWIDTH 10 0
BBX 9 14 0 -1
BITMAP
0200
0200
0200
0480
0780
0E00
3800
E800
3800
1E00
1380
1080
2000
2000
ENDCHAR
STARTCHAR uni226F
ENCODING 8815
SWIDTH 606 0
DWIDTH 10 0
BBX 9 14 0 -1
BITMAP
0200
0200
0200
8400
E400
3C00
0E00
0B80
0E00
3800
F000
9000
2000
2000
ENDCHAR
STARTCHAR uni2270
ENCODING 8816
SWIDTH 606 0
DWIDTH 10 0
BBX 9 14 0 -2
BITMAP
0200
0200
0280
0780
0E00
3C00
E800
3800
0E00
1380
1080
1000
FF80
2000
ENDCHAR
STARTCHAR uni2271
ENCODING 8817
SWIDTH 606 0
DWIDTH 10 0
BBX 9 14 0 -2
BITMAP
0200
0200
8200
E400
3C00
0E00
0B80
0E00
3800
F000
9000
1000
FF80
2000
ENDCHAR
STARTCHAR fi
ENCODING -1
SWIDTH 611 0
DWIDTH 11 0
BBX 10 14 0 0
BITMAP
0F00
1980
3180
3000
3000
FF80
3180
3180
3180
3180
3180
3180
3180
7BC0
ENDCHAR
STARTCHAR fl
ENCODING -1
SWIDTH 611 0
DWIDTH 11 0
BBX 10 14 0 0
BITMAP
0E80
1980
3180
3180
3180
FF80
3180
3180
3180
3180
3180
3180
3180
7BC0
ENDCHAR
ENDFONT
